<svg width="24" height="24" viewBox="0 0 24 24" fill="none" xmlns="http://www.w3.org/2000/svg">
<path d="M12.7071 4.29289L12 3.58579L10.5858 5L11.2929 5.70711L12.7071 4.29289ZM19 12L19.7071 12.7071C20.0976 12.3166 20.0976 11.6834 19.7071 11.2929L19 12ZM11.2929 18.2929C10.9024 18.6834 10.9024 19.3166 11.2929 19.7071C11.6834 20.0976 12.3166 20.0976 12.7071 19.7071L11.2929 18.2929ZM11.2929 5.70711L18.2929 12.7071L19.7071 11.2929L12.7071 4.29289L11.2929 5.70711ZM18.2929 11.2929L11.2929 18.2929L12.7071 19.7071L19.7071 12.7071L18.2929 11.2929Z" fill="black"/>
<path d="M5 12L19 12" stroke="black" stroke-width="2" stroke-linecap="round" stroke-linejoin="round"/>
</svg>
