<svg width="428" height="564" viewBox="0 0 428 564" fill="none" xmlns="http://www.w3.org/2000/svg">
<path d="M-34.177 561.477L-34.177 563.765L-32.108 563.765L-32.108 561.477L-34.177 561.477Z" fill="#A2F9E4"/>
<path d="M-3.74948 561.477L-3.74948 563.765L-1.68042 563.765L-1.68042 561.477L-3.74948 561.477Z" fill="#A2F9E4"/>
<path d="M26.6781 561.477L26.6781 563.765L28.7471 563.765L28.7471 561.477L26.6781 561.477Z" fill="#A2F9E4"/>
<path d="M57.1056 561.477L57.1056 563.765L59.1747 563.765L59.1747 561.477L57.1056 561.477Z" fill="#A2F9E4"/>
<path d="M87.5332 561.477L87.5332 563.765L89.6023 563.765L89.6023 561.477L87.5332 561.477Z" fill="#A2F9E4"/>
<path d="M117.961 561.477L117.961 563.765L120.03 563.765L120.03 561.477L117.961 561.477Z" fill="#A2F9E4"/>
<path d="M148.388 561.477L148.388 563.765L150.457 563.765L150.457 561.477L148.388 561.477Z" fill="#A2F9E4"/>
<path d="M178.816 561.477L178.816 563.765L180.885 563.765L180.885 561.477L178.816 561.477Z" fill="#A2F9E4"/>
<path d="M209.243 561.477L209.243 563.765L211.313 563.765L211.313 561.477L209.243 561.477Z" fill="#A2F9E4"/>
<path d="M239.671 561.477L239.671 563.765L241.74 563.765L241.74 561.477L239.671 561.477Z" fill="#A2F9E4"/>
<path d="M270.099 561.477L270.099 563.765L272.168 563.765L272.168 561.477L270.099 561.477Z" fill="#A2F9E4"/>
<path d="M300.526 561.477L300.526 563.765L302.595 563.765L302.595 561.477L300.526 561.477Z" fill="#A2F9E4"/>
<path d="M330.954 561.477L330.954 563.765L333.023 563.765L333.023 561.477L330.954 561.477Z" fill="#A2F9E4"/>
<path d="M361.381 561.477L361.381 563.765L363.45 563.765L363.45 561.477L361.381 561.477Z" fill="#A2F9E4"/>
<path d="M391.809 561.477L391.809 563.765L393.878 563.765L393.878 561.477L391.809 561.477Z" fill="#A2F9E4"/>
<path d="M422.236 561.477L422.236 563.765L424.305 563.765L424.305 561.477L422.236 561.477Z" fill="#A2F9E4"/>
<path d="M452.664 561.477L452.664 563.765L454.733 563.765L454.733 561.477L452.664 561.477Z" fill="#A2F9E4"/>
<path d="M-50.7075 526.373L-50.7075 531.573L-46.0051 531.573L-46.0051 526.373L-50.7075 526.373Z" fill="#A2F9E4"/>
<path d="M-20.2799 526.373L-20.2799 531.573L-15.5775 531.573L-15.5775 526.373L-20.2799 526.373Z" fill="#A2F9E4"/>
<path d="M10.1476 526.373L10.1476 531.573L14.8501 531.573L14.8501 526.373L10.1476 526.373Z" fill="#A2F9E4"/>
<path d="M40.5752 526.373L40.5752 531.573L45.2776 531.573L45.2776 526.373L40.5752 526.373Z" fill="#A2F9E4"/>
<path d="M71.0027 526.373L71.0027 531.573L75.7052 531.573L75.7052 526.373L71.0027 526.373Z" fill="#A2F9E4"/>
<path d="M101.43 526.373L101.43 531.573L106.133 531.573L106.133 526.373L101.43 526.373Z" fill="#A2F9E4"/>
<path d="M131.858 526.373L131.858 531.573L136.56 531.573L136.56 526.373L131.858 526.373Z" fill="#A2F9E4"/>
<path d="M162.285 526.373L162.285 531.573L166.988 531.573L166.988 526.373L162.285 526.373Z" fill="#A2F9E4"/>
<path d="M192.713 526.373L192.713 531.573L197.415 531.573L197.415 526.373L192.713 526.373Z" fill="#A2F9E4"/>
<path d="M223.141 526.373L223.141 531.573L227.843 531.573L227.843 526.373L223.141 526.373Z" fill="#A2F9E4"/>
<path d="M253.568 526.373L253.568 531.573L258.271 531.573L258.271 526.373L253.568 526.373Z" fill="#A2F9E4"/>
<path d="M283.996 526.373L283.996 531.573L288.698 531.573L288.698 526.373L283.996 526.373Z" fill="#A2F9E4"/>
<path d="M314.423 526.373L314.423 531.573L319.126 531.573L319.126 526.373L314.423 526.373Z" fill="#A2F9E4"/>
<path d="M344.851 526.373L344.851 531.573L349.553 531.573L349.553 526.373L344.851 526.373Z" fill="#A2F9E4"/>
<path d="M375.278 526.373L375.278 531.573L379.981 531.573L379.981 526.373L375.278 526.373Z" fill="#A2F9E4"/>
<path d="M405.706 526.373L405.706 531.573L410.408 531.573L410.408 526.373L405.706 526.373Z" fill="#A2F9E4"/>
<path d="M436.133 526.373L436.133 531.573L440.836 531.573L440.836 526.373L436.133 526.373Z" fill="#A2F9E4"/>
<path d="M-36.8104 491.27L-36.8104 499.382L-29.4746 499.382L-29.4746 491.27L-36.8104 491.27Z" fill="#A2F9E4"/>
<path d="M-6.38287 491.27L-6.38287 499.382L0.952978 499.382L0.952979 491.27L-6.38287 491.27Z" fill="#A2F9E4"/>
<path d="M24.0447 491.27L24.0447 499.382L31.3805 499.382L31.3805 491.27L24.0447 491.27Z" fill="#A2F9E4"/>
<path d="M54.4723 491.27L54.4723 499.382L61.8081 499.382L61.8081 491.27L54.4723 491.27Z" fill="#A2F9E4"/>
<path d="M84.8998 491.27L84.8998 499.382L92.2357 499.382L92.2357 491.27L84.8998 491.27Z" fill="#A2F9E4"/>
<path d="M115.327 491.27L115.327 499.382L122.663 499.382L122.663 491.27L115.327 491.27Z" fill="#A2F9E4"/>
<path d="M145.755 491.27L145.755 499.382L153.091 499.382L153.091 491.27L145.755 491.27Z" fill="#A2F9E4"/>
<path d="M176.183 491.27L176.183 499.382L183.518 499.382L183.518 491.27L176.183 491.27Z" fill="#A2F9E4"/>
<path d="M206.61 491.27L206.61 499.382L213.946 499.382L213.946 491.27L206.61 491.27Z" fill="#A2F9E4"/>
<path d="M237.038 491.27L237.038 499.382L244.373 499.382L244.373 491.27L237.038 491.27Z" fill="#A2F9E4"/>
<path d="M267.465 491.27L267.465 499.382L274.801 499.382L274.801 491.27L267.465 491.27Z" fill="#A2F9E4"/>
<path d="M297.893 491.27L297.893 499.382L305.229 499.382L305.229 491.27L297.893 491.27Z" fill="#A2F9E4"/>
<path d="M328.32 491.27L328.32 499.382L335.656 499.382L335.656 491.27L328.32 491.27Z" fill="#A2F9E4"/>
<path d="M358.748 491.27L358.748 499.382L366.084 499.382L366.084 491.27L358.748 491.27Z" fill="#A2F9E4"/>
<path d="M389.175 491.27L389.175 499.382L396.511 499.382L396.511 491.27L389.175 491.27Z" fill="#A2F9E4"/>
<path d="M419.603 491.27L419.603 499.382L426.939 499.382L426.939 491.27L419.603 491.27Z" fill="#A2F9E4"/>
<path d="M450.031 491.27L450.031 499.382L457.366 499.382L457.366 491.27L450.031 491.27Z" fill="#A2F9E4"/>
<path d="M-53.3174 456.192L-53.3174 467.164L-43.3952 467.164L-43.3952 456.192L-53.3174 456.192Z" fill="#A2F9E4"/>
<path d="M-22.8898 456.192L-22.8898 467.164L-12.9676 467.164L-12.9676 456.192L-22.8898 456.192Z" fill="#A2F9E4"/>
<path d="M7.53776 456.192L7.53776 467.164L17.4599 467.164L17.4599 456.192L7.53776 456.192Z" fill="#A2F9E4"/>
<path d="M37.9653 456.192L37.9653 467.164L47.8875 467.164L47.8875 456.192L37.9653 456.192Z" fill="#A2F9E4"/>
<path d="M68.3929 456.192L68.3929 467.164L78.315 467.164L78.315 456.192L68.3929 456.192Z" fill="#A2F9E4"/>
<path d="M98.8205 456.192L98.8205 467.164L108.743 467.164L108.743 456.192L98.8205 456.192Z" fill="#A2F9E4"/>
<path d="M129.248 456.192L129.248 467.164L139.17 467.164L139.17 456.192L129.248 456.192Z" fill="#A2F9E4"/>
<path d="M159.676 456.192L159.676 467.164L169.598 467.164L169.598 456.192L159.676 456.192Z" fill="#A2F9E4"/>
<path d="M190.103 456.192L190.103 467.164L200.025 467.164L200.025 456.192L190.103 456.192Z" fill="#A2F9E4"/>
<path d="M220.531 456.192L220.531 467.164L230.453 467.164L230.453 456.192L220.531 456.192Z" fill="#A2F9E4"/>
<path d="M250.958 456.192L250.958 467.164L260.88 467.164L260.88 456.192L250.958 456.192Z" fill="#A2F9E4"/>
<path d="M281.386 456.192L281.386 467.164L291.308 467.164L291.308 456.192L281.386 456.192Z" fill="#A2F9E4"/>
<path d="M311.813 456.192L311.813 467.164L321.736 467.164L321.736 456.192L311.813 456.192Z" fill="#A2F9E4"/>
<path d="M342.241 456.192L342.241 467.164L352.163 467.164L352.163 456.192L342.241 456.192Z" fill="#A2F9E4"/>
<path d="M372.668 456.192L372.668 467.164L382.591 467.164L382.591 456.192L372.668 456.192Z" fill="#A2F9E4"/>
<path d="M403.096 456.192L403.096 467.164L413.018 467.164L413.018 456.192L403.096 456.192Z" fill="#A2F9E4"/>
<path d="M433.524 456.192L433.524 467.164L443.446 467.164L443.446 456.192L433.524 456.192Z" fill="#A2F9E4"/>
<path d="M-39.4203 421.088L-39.4203 434.973L-26.8647 434.973L-26.8647 421.088L-39.4203 421.088Z" fill="#A2F9E4"/>
<path d="M-8.99269 421.088L-8.9927 434.973L3.56285 434.973L3.56285 421.088L-8.99269 421.088Z" fill="#A2F9E4"/>
<path d="M21.4349 421.088L21.4349 434.973L33.9904 434.973L33.9904 421.088L21.4349 421.088Z" fill="#A2F9E4"/>
<path d="M51.8624 421.088L51.8624 434.973L64.418 434.973L64.418 421.088L51.8624 421.088Z" fill="#A2F9E4"/>
<path d="M82.29 421.088L82.29 434.973L94.8455 434.973L94.8455 421.088L82.29 421.088Z" fill="#A2F9E4"/>
<path d="M112.718 421.088L112.718 434.973L125.273 434.973L125.273 421.088L112.718 421.088Z" fill="#A2F9E4"/>
<path d="M143.145 421.088L143.145 434.973L155.701 434.973L155.701 421.088L143.145 421.088Z" fill="#A2F9E4"/>
<path d="M173.573 421.088L173.573 434.973L186.128 434.973L186.128 421.088L173.573 421.088Z" fill="#A2F9E4"/>
<path d="M204 421.088L204 434.973L216.556 434.973L216.556 421.088L204 421.088Z" fill="#A2F9E4"/>
<path d="M234.428 421.088L234.428 434.973L246.983 434.973L246.983 421.088L234.428 421.088Z" fill="#A2F9E4"/>
<path d="M264.855 421.088L264.855 434.973L277.411 434.973L277.411 421.088L264.855 421.088Z" fill="#A2F9E4"/>
<path d="M295.283 421.088L295.283 434.973L307.838 434.973L307.838 421.088L295.283 421.088Z" fill="#A2F9E4"/>
<path d="M325.71 421.088L325.71 434.973L338.266 434.973L338.266 421.088L325.71 421.088Z" fill="#A2F9E4"/>
<path d="M356.138 421.088L356.138 434.973L368.694 434.973L368.694 421.088L356.138 421.088Z" fill="#A2F9E4"/>
<path d="M386.566 421.088L386.566 434.973L399.121 434.973L399.121 421.088L386.566 421.088Z" fill="#A2F9E4"/>
<path d="M416.993 421.088L416.993 434.973L429.549 434.973L429.549 421.088L416.993 421.088Z" fill="#A2F9E4"/>
<path d="M447.421 421.088L447.421 434.973L459.976 434.973L459.976 421.088L447.421 421.088Z" fill="#A2F9E4"/>
<path d="M-55.9272 386.011L-55.9272 402.755L-40.7853 402.755L-40.7853 386.011L-55.9272 386.011Z" fill="#A2F9E4"/>
<path d="M-25.4996 386.011L-25.4997 402.755L-10.3578 402.755L-10.3578 386.011L-25.4996 386.011Z" fill="#A2F9E4"/>
<path d="M4.92793 386.011L4.92793 402.755L20.0698 402.755L20.0698 386.011L4.92793 386.011Z" fill="#A2F9E4"/>
<path d="M35.3555 386.011L35.3555 402.755L50.4974 402.755L50.4974 386.011L35.3555 386.011Z" fill="#A2F9E4"/>
<path d="M65.783 386.011L65.783 402.755L80.9249 402.755L80.9249 386.011L65.783 386.011Z" fill="#A2F9E4"/>
<path d="M96.2106 386.011L96.2106 402.755L111.352 402.755L111.352 386.011L96.2106 386.011Z" fill="#A2F9E4"/>
<path d="M126.638 386.011L126.638 402.755L141.78 402.755L141.78 386.011L126.638 386.011Z" fill="#A2F9E4"/>
<path d="M157.066 386.011L157.066 402.755L172.208 402.755L172.208 386.011L157.066 386.011Z" fill="#A2F9E4"/>
<path d="M187.493 386.011L187.493 402.755L202.635 402.755L202.635 386.011L187.493 386.011Z" fill="#A2F9E4"/>
<path d="M217.921 386.011L217.921 402.755L233.063 402.755L233.063 386.011L217.921 386.011Z" fill="#A2F9E4"/>
<path d="M248.348 386.011L248.348 402.755L263.49 402.755L263.49 386.011L248.348 386.011Z" fill="#A2F9E4"/>
<path d="M278.776 386.011L278.776 402.755L293.918 402.755L293.918 386.011L278.776 386.011Z" fill="#A2F9E4"/>
<path d="M309.204 386.011L309.204 402.755L324.345 402.755L324.345 386.011L309.204 386.011Z" fill="#A2F9E4"/>
<path d="M339.631 386.011L339.631 402.755L354.773 402.755L354.773 386.011L339.631 386.011Z" fill="#A2F9E4"/>
<path d="M370.059 386.011L370.059 402.755L385.201 402.755L385.201 386.011L370.059 386.011Z" fill="#A2F9E4"/>
<path d="M400.486 386.011L400.486 402.755L415.628 402.755L415.628 386.011L400.486 386.011Z" fill="#A2F9E4"/>
<path d="M430.914 386.011L430.914 402.755L446.056 402.755L446.056 386.011L430.914 386.011Z" fill="#A2F9E4"/>
<path d="M-42.0301 350.907L-42.0301 370.563L-24.2549 370.563L-24.2549 350.907L-42.0301 350.907Z" fill="#A2F9E4"/>
<path d="M-11.6026 350.907L-11.6026 370.563L6.17272 370.563L6.17272 350.907L-11.6026 350.907Z" fill="#A2F9E4"/>
<path d="M18.825 350.907L18.825 370.563L36.6003 370.563L36.6003 350.907L18.825 350.907Z" fill="#A2F9E4"/>
<path d="M49.2526 350.907L49.2526 370.563L67.0278 370.563L67.0278 350.907L49.2526 350.907Z" fill="#A2F9E4"/>
<path d="M79.6801 350.907L79.6801 370.563L97.4554 370.563L97.4554 350.907L79.6801 350.907Z" fill="#A2F9E4"/>
<path d="M110.108 350.907L110.108 370.563L127.883 370.563L127.883 350.907L110.108 350.907Z" fill="#A2F9E4"/>
<path d="M140.535 350.907L140.535 370.563L158.311 370.563L158.311 350.907L140.535 350.907Z" fill="#A2F9E4"/>
<path d="M170.963 350.907L170.963 370.563L188.738 370.563L188.738 350.907L170.963 350.907Z" fill="#A2F9E4"/>
<path d="M201.39 350.907L201.39 370.563L219.166 370.563L219.166 350.907L201.39 350.907Z" fill="#A2F9E4"/>
<path d="M231.818 350.907L231.818 370.563L249.593 370.563L249.593 350.907L231.818 350.907Z" fill="#A2F9E4"/>
<path d="M262.246 350.907L262.246 370.563L280.021 370.563L280.021 350.907L262.246 350.907Z" fill="#A2F9E4"/>
<path d="M292.673 350.907L292.673 370.563L310.448 370.563L310.448 350.907L292.673 350.907Z" fill="#A2F9E4"/>
<path d="M323.101 350.907L323.101 370.563L340.876 370.563L340.876 350.907L323.101 350.907Z" fill="#A2F9E4"/>
<path d="M353.528 350.907L353.528 370.563L371.303 370.563L371.303 350.907L353.528 350.907Z" fill="#A2F9E4"/>
<path d="M383.956 350.907L383.956 370.563L401.731 370.563L401.731 350.907L383.956 350.907Z" fill="#A2F9E4"/>
<path d="M414.383 350.907L414.383 370.563L432.159 370.563L432.159 350.907L414.383 350.907Z" fill="#A2F9E4"/>
<path d="M444.811 350.907L444.811 370.563L462.586 370.563L462.586 350.907L444.811 350.907Z" fill="#A2F9E4"/>
<path d="M-58.537 315.829L-58.537 338.346L-38.1755 338.346L-38.1755 315.829L-58.537 315.829Z" fill="#A2F9E4"/>
<path d="M-28.1095 315.829L-28.1095 338.346L-7.74791 338.346L-7.7479 315.829L-28.1095 315.829Z" fill="#A2F9E4"/>
<path d="M2.31808 315.829L2.31807 338.346L22.6796 338.346L22.6796 315.829L2.31808 315.829Z" fill="#A2F9E4"/>
<path d="M32.7456 315.829L32.7456 338.346L53.1072 338.346L53.1072 315.829L32.7456 315.829Z" fill="#A2F9E4"/>
<path d="M63.1732 315.829L63.1732 338.346L83.5348 338.346L83.5348 315.829L63.1732 315.829Z" fill="#A2F9E4"/>
<path d="M93.6008 315.829L93.6008 338.346L113.962 338.346L113.962 315.829L93.6008 315.829Z" fill="#A2F9E4"/>
<path d="M124.028 315.829L124.028 338.346L144.39 338.346L144.39 315.829L124.028 315.829Z" fill="#A2F9E4"/>
<path d="M154.456 315.829L154.456 338.346L174.817 338.346L174.817 315.829L154.456 315.829Z" fill="#A2F9E4"/>
<path d="M184.883 315.829L184.883 338.346L205.245 338.346L205.245 315.829L184.883 315.829Z" fill="#A2F9E4"/>
<path d="M215.311 315.829L215.311 338.346L235.673 338.346L235.673 315.829L215.311 315.829Z" fill="#A2F9E4"/>
<path d="M245.739 315.829L245.739 338.346L266.1 338.346L266.1 315.829L245.739 315.829Z" fill="#A2F9E4"/>
<path d="M276.166 315.829L276.166 338.346L296.528 338.346L296.528 315.829L276.166 315.829Z" fill="#A2F9E4"/>
<path d="M306.594 315.829L306.594 338.346L326.955 338.346L326.955 315.829L306.594 315.829Z" fill="#A2F9E4"/>
<path d="M337.021 315.829L337.021 338.346L357.383 338.346L357.383 315.829L337.021 315.829Z" fill="#A2F9E4"/>
<path d="M367.449 315.829L367.449 338.346L387.81 338.346L387.81 315.829L367.449 315.829Z" fill="#A2F9E4"/>
<path d="M397.876 315.829L397.876 338.346L418.238 338.346L418.238 315.829L397.876 315.829Z" fill="#A2F9E4"/>
<path d="M428.304 315.829L428.304 338.346L448.665 338.346L448.665 315.829L428.304 315.829Z" fill="#A2F9E4"/>
<path d="M-44.64 280.726L-44.64 306.154L-21.645 306.154L-21.645 280.726L-44.64 280.726Z" fill="#A2F9E4"/>
<path d="M-14.2124 280.726L-14.2124 306.154L8.78255 306.154L8.78256 280.726L-14.2124 280.726Z" fill="#A2F9E4"/>
<path d="M16.2152 280.726L16.2152 306.154L39.2101 306.154L39.2101 280.726L16.2152 280.726Z" fill="#A2F9E4"/>
<path d="M46.6427 280.726L46.6427 306.154L69.6377 306.154L69.6377 280.726L46.6427 280.726Z" fill="#A2F9E4"/>
<path d="M77.0703 280.726L77.0703 306.154L100.065 306.154L100.065 280.726L77.0703 280.726Z" fill="#A2F9E4"/>
<path d="M107.498 280.726L107.498 306.154L130.493 306.154L130.493 280.726L107.498 280.726Z" fill="#A2F9E4"/>
<path d="M137.925 280.726L137.925 306.154L160.92 306.154L160.92 280.726L137.925 280.726Z" fill="#A2F9E4"/>
<path d="M168.353 280.726L168.353 306.154L191.348 306.154L191.348 280.726L168.353 280.726Z" fill="#A2F9E4"/>
<path d="M198.781 280.726L198.781 306.154L221.775 306.154L221.775 280.726L198.781 280.726Z" fill="#A2F9E4"/>
<path d="M229.208 280.726L229.208 306.154L252.203 306.154L252.203 280.726L229.208 280.726Z" fill="#A2F9E4"/>
<path d="M259.636 280.726L259.636 306.154L282.631 306.154L282.631 280.726L259.636 280.726Z" fill="#A2F9E4"/>
<path d="M290.063 280.726L290.063 306.154L313.058 306.154L313.058 280.726L290.063 280.726Z" fill="#A2F9E4"/>
<path d="M320.491 280.726L320.491 306.154L343.486 306.154L343.486 280.726L320.491 280.726Z" fill="#A2F9E4"/>
<path d="M350.918 280.726L350.918 306.154L373.913 306.154L373.913 280.726L350.918 280.726Z" fill="#A2F9E4"/>
<path d="M381.346 280.726L381.346 306.154L404.341 306.154L404.341 280.726L381.346 280.726Z" fill="#A2F9E4"/>
<path d="M411.773 280.726L411.773 306.154L434.768 306.154L434.768 280.726L411.773 280.726Z" fill="#A2F9E4"/>
<path d="M442.201 280.726L442.201 306.154L465.196 306.154L465.196 280.726L442.201 280.726Z" fill="#A2F9E4"/>
<path d="M-61.1469 245.648L-61.1469 273.936L-35.5656 273.936L-35.5656 245.648L-61.1469 245.648Z" fill="#A2F9E4"/>
<path d="M-30.7193 245.648L-30.7193 273.936L-5.13807 273.936L-5.13806 245.648L-30.7193 245.648Z" fill="#A2F9E4"/>
<path d="M-0.291781 245.648L-0.291784 273.936L25.2895 273.936L25.2895 245.648L-0.291781 245.648Z" fill="#A2F9E4"/>
<path d="M30.1358 245.648L30.1358 273.936L55.7171 273.936L55.7171 245.648L30.1358 245.648Z" fill="#A2F9E4"/>
<path d="M60.5634 245.648L60.5633 273.936L86.1446 273.936L86.1446 245.648L60.5634 245.648Z" fill="#A2F9E4"/>
<path d="M90.9909 245.648L90.9909 273.936L116.572 273.936L116.572 245.648L90.9909 245.648Z" fill="#A2F9E4"/>
<path d="M121.418 245.648L121.418 273.936L147 273.936L147 245.648L121.418 245.648Z" fill="#A2F9E4"/>
<path d="M151.846 245.648L151.846 273.936L177.427 273.936L177.427 245.648L151.846 245.648Z" fill="#A2F9E4"/>
<path d="M182.274 245.648L182.274 273.936L207.855 273.936L207.855 245.648L182.274 245.648Z" fill="#A2F9E4"/>
<path d="M212.701 245.648L212.701 273.936L238.282 273.936L238.282 245.648L212.701 245.648Z" fill="#A2F9E4"/>
<path d="M243.129 245.648L243.129 273.936L268.71 273.936L268.71 245.648L243.129 245.648Z" fill="#A2F9E4"/>
<path d="M273.556 245.648L273.556 273.936L299.138 273.936L299.138 245.648L273.556 245.648Z" fill="#A2F9E4"/>
<path d="M303.984 245.648L303.984 273.936L329.565 273.936L329.565 245.648L303.984 245.648Z" fill="#A2F9E4"/>
<path d="M334.411 245.648L334.411 273.936L359.993 273.936L359.993 245.648L334.411 245.648Z" fill="#A2F9E4"/>
<path d="M364.839 245.648L364.839 273.936L390.42 273.936L390.42 245.648L364.839 245.648Z" fill="#A2F9E4"/>
<path d="M395.267 245.648L395.267 273.936L420.848 273.936L420.848 245.648L395.267 245.648Z" fill="#A2F9E4"/>
<path d="M425.694 245.648L425.694 273.936L451.275 273.936L451.275 245.648L425.694 245.648Z" fill="#A2F9E4"/>
<path d="M-47.2498 210.544L-47.2498 241.745L-19.0351 241.745L-19.0351 210.544L-47.2498 210.544Z" fill="#A2F9E4"/>
<path d="M-16.8223 210.544L-16.8223 241.745L11.3924 241.745L11.3924 210.544L-16.8223 210.544Z" fill="#A2F9E4"/>
<path d="M13.6053 210.544L13.6053 241.745L41.8199 241.745L41.8199 210.544L13.6053 210.544Z" fill="#A2F9E4"/>
<path d="M44.0329 210.544L44.0329 241.745L72.2475 241.745L72.2475 210.544L44.0329 210.544Z" fill="#A2F9E4"/>
<path d="M74.4604 210.544L74.4604 241.745L102.675 241.745L102.675 210.544L74.4604 210.544Z" fill="#A2F9E4"/>
<path d="M104.888 210.544L104.888 241.745L133.103 241.745L133.103 210.544L104.888 210.544Z" fill="#A2F9E4"/>
<path d="M135.316 210.544L135.316 241.745L163.53 241.745L163.53 210.544L135.316 210.544Z" fill="#A2F9E4"/>
<path d="M165.743 210.544L165.743 241.745L193.958 241.745L193.958 210.544L165.743 210.544Z" fill="#A2F9E4"/>
<path d="M196.171 210.544L196.171 241.745L224.385 241.745L224.385 210.544L196.171 210.544Z" fill="#A2F9E4"/>
<path d="M226.598 210.544L226.598 241.745L254.813 241.745L254.813 210.544L226.598 210.544Z" fill="#A2F9E4"/>
<path d="M257.026 210.544L257.026 241.745L285.24 241.745L285.24 210.544L257.026 210.544Z" fill="#A2F9E4"/>
<path d="M287.453 210.544L287.453 241.745L315.668 241.745L315.668 210.544L287.453 210.544Z" fill="#A2F9E4"/>
<path d="M317.881 210.544L317.881 241.745L346.096 241.745L346.096 210.544L317.881 210.544Z" fill="#A2F9E4"/>
<path d="M348.309 210.544L348.308 241.745L376.523 241.745L376.523 210.544L348.309 210.544Z" fill="#A2F9E4"/>
<path d="M378.736 210.544L378.736 241.745L406.951 241.745L406.951 210.544L378.736 210.544Z" fill="#A2F9E4"/>
<path d="M409.164 210.544L409.164 241.745L437.378 241.745L437.378 210.544L409.164 210.544Z" fill="#A2F9E4"/>
<path d="M439.591 210.544L439.591 241.745L467.806 241.745L467.806 210.544L439.591 210.544Z" fill="#A2F9E4"/>
<path d="M-63.7802 175.44L-63.7802 209.553L-32.9323 209.553L-32.9322 175.44L-63.7802 175.44Z" fill="#A2F9E4"/>
<path d="M-33.3527 175.44L-33.3527 209.553L-2.5047 209.553L-2.5047 175.44L-33.3527 175.44Z" fill="#A2F9E4"/>
<path d="M-2.92514 175.44L-2.92514 209.553L27.9229 209.553L27.9229 175.44L-2.92514 175.44Z" fill="#A2F9E4"/>
<path d="M27.5024 175.44L27.5024 209.553L58.3504 209.553L58.3504 175.44L27.5024 175.44Z" fill="#A2F9E4"/>
<path d="M57.93 175.44L57.93 209.553L88.778 209.553L88.778 175.44L57.93 175.44Z" fill="#A2F9E4"/>
<path d="M88.3575 175.44L88.3575 209.553L119.206 209.553L119.206 175.44L88.3575 175.44Z" fill="#A2F9E4"/>
<path d="M118.785 175.44L118.785 209.553L149.633 209.553L149.633 175.44L118.785 175.44Z" fill="#A2F9E4"/>
<path d="M149.213 175.44L149.213 209.553L180.061 209.553L180.061 175.44L149.213 175.44Z" fill="#A2F9E4"/>
<path d="M179.64 175.44L179.64 209.553L210.488 209.553L210.488 175.44L179.64 175.44Z" fill="#A2F9E4"/>
<path d="M210.068 175.44L210.068 209.553L240.916 209.553L240.916 175.44L210.068 175.44Z" fill="#A2F9E4"/>
<path d="M240.495 175.44L240.495 209.553L271.343 209.553L271.343 175.44L240.495 175.44Z" fill="#A2F9E4"/>
<path d="M270.923 175.44L270.923 209.553L301.771 209.553L301.771 175.44L270.923 175.44Z" fill="#A2F9E4"/>
<path d="M301.35 175.44L301.35 209.553L332.199 209.553L332.199 175.44L301.35 175.44Z" fill="#A2F9E4"/>
<path d="M331.778 175.44L331.778 209.553L362.626 209.553L362.626 175.44L331.778 175.44Z" fill="#A2F9E4"/>
<path d="M362.206 175.44L362.206 209.553L393.054 209.553L393.054 175.44L362.206 175.44Z" fill="#A2F9E4"/>
<path d="M392.633 175.44L392.633 209.553L423.481 209.553L423.481 175.44L392.633 175.44Z" fill="#A2F9E4"/>
<path d="M423.061 175.44L423.061 209.553L453.909 209.553L453.909 175.44L423.061 175.44Z" fill="#A2F9E4"/>
<path d="M-49.8596 140.363L-49.8596 177.335L-16.4253 177.335L-16.4253 140.363L-49.8596 140.363Z" fill="#A2F9E4"/>
<path d="M-19.4321 140.363L-19.4321 177.335L14.0023 177.335L14.0023 140.363L-19.4321 140.363Z" fill="#A2F9E4"/>
<path d="M10.9955 140.363L10.9955 177.335L44.4298 177.335L44.4298 140.363L10.9955 140.363Z" fill="#A2F9E4"/>
<path d="M41.423 140.363L41.423 177.335L74.8574 177.335L74.8574 140.363L41.423 140.363Z" fill="#A2F9E4"/>
<path d="M71.8506 140.363L71.8506 177.335L105.285 177.335L105.285 140.363L71.8506 140.363Z" fill="#A2F9E4"/>
<path d="M102.278 140.363L102.278 177.335L135.713 177.335L135.713 140.363L102.278 140.363Z" fill="#A2F9E4"/>
<path d="M132.706 140.363L132.706 177.335L166.14 177.335L166.14 140.363L132.706 140.363Z" fill="#A2F9E4"/>
<path d="M163.133 140.363L163.133 177.335L196.568 177.335L196.568 140.363L163.133 140.363Z" fill="#A2F9E4"/>
<path d="M193.561 140.363L193.561 177.335L226.995 177.335L226.995 140.363L193.561 140.363Z" fill="#A2F9E4"/>
<path d="M223.988 140.363L223.988 177.335L257.423 177.335L257.423 140.363L223.988 140.363Z" fill="#A2F9E4"/>
<path d="M254.416 140.363L254.416 177.335L287.85 177.335L287.85 140.363L254.416 140.363Z" fill="#A2F9E4"/>
<path d="M284.844 140.363L284.844 177.335L318.278 177.335L318.278 140.363L284.844 140.363Z" fill="#A2F9E4"/>
<path d="M315.271 140.363L315.271 177.335L348.705 177.335L348.705 140.363L315.271 140.363Z" fill="#A2F9E4"/>
<path d="M345.699 140.363L345.699 177.335L379.133 177.335L379.133 140.363L345.699 140.363Z" fill="#A2F9E4"/>
<path d="M376.126 140.363L376.126 177.335L409.561 177.335L409.561 140.363L376.126 140.363Z" fill="#A2F9E4"/>
<path d="M406.554 140.363L406.554 177.335L439.988 177.335L439.988 140.363L406.554 140.363Z" fill="#A2F9E4"/>
<path d="M436.981 140.363L436.981 177.335L470.416 177.335L470.416 140.363L436.981 140.363Z" fill="#A2F9E4"/>
<path d="M-66.3901 105.259L-66.3901 145.144L-30.3224 145.144L-30.3224 105.259L-66.3901 105.259Z" fill="#A2F9E4"/>
<path d="M-35.9625 105.259L-35.9625 145.144L0.10517 145.144L0.105173 105.259L-35.9625 105.259Z" fill="#A2F9E4"/>
<path d="M-5.53496 105.259L-5.53497 145.144L30.5327 145.144L30.5327 105.259L-5.53496 105.259Z" fill="#A2F9E4"/>
<path d="M24.8926 105.259L24.8926 145.144L60.9603 145.144L60.9603 105.259L24.8926 105.259Z" fill="#A2F9E4"/>
<path d="M55.3201 105.259L55.3201 145.144L91.3879 145.144L91.3879 105.259L55.3201 105.259Z" fill="#A2F9E4"/>
<path d="M85.7477 105.259L85.7477 145.144L121.815 145.144L121.815 105.259L85.7477 105.259Z" fill="#A2F9E4"/>
<path d="M116.175 105.259L116.175 145.144L152.243 145.144L152.243 105.259L116.175 105.259Z" fill="#A2F9E4"/>
<path d="M146.603 105.259L146.603 145.144L182.671 145.144L182.671 105.259L146.603 105.259Z" fill="#A2F9E4"/>
<path d="M177.03 105.259L177.03 145.144L213.098 145.144L213.098 105.259L177.03 105.259Z" fill="#A2F9E4"/>
<path d="M207.458 105.259L207.458 145.144L243.526 145.144L243.526 105.259L207.458 105.259Z" fill="#A2F9E4"/>
<path d="M237.885 105.259L237.885 145.144L273.953 145.144L273.953 105.259L237.885 105.259Z" fill="#A2F9E4"/>
<path d="M268.313 105.259L268.313 145.144L304.381 145.144L304.381 105.259L268.313 105.259Z" fill="#A2F9E4"/>
<path d="M298.741 105.259L298.741 145.144L334.808 145.144L334.808 105.259L298.741 105.259Z" fill="#A2F9E4"/>
<path d="M329.168 105.259L329.168 145.144L365.236 145.144L365.236 105.259L329.168 105.259Z" fill="#A2F9E4"/>
<path d="M359.596 105.259L359.596 145.144L395.663 145.144L395.663 105.259L359.596 105.259Z" fill="#A2F9E4"/>
<path d="M390.023 105.259L390.023 145.144L426.091 145.144L426.091 105.259L390.023 105.259Z" fill="#A2F9E4"/>
<path d="M420.451 105.259L420.451 145.144L456.519 145.144L456.519 105.259L420.451 105.259Z" fill="#A2F9E4"/>
<path d="M-52.4695 70.1814L-52.4695 112.926L-13.8154 112.926L-13.8154 70.1814L-52.4695 70.1814Z" fill="#A2F9E4"/>
<path d="M-22.0419 70.1814L-22.0419 112.926L16.6121 112.926L16.6121 70.1814L-22.0419 70.1814Z" fill="#A2F9E4"/>
<path d="M8.38563 70.1814L8.38563 112.926L47.0397 112.926L47.0397 70.1814L8.38563 70.1814Z" fill="#A2F9E4"/>
<path d="M38.8132 70.1814L38.8132 112.926L77.4672 112.926L77.4672 70.1814L38.8132 70.1814Z" fill="#A2F9E4"/>
<path d="M69.2407 70.1814L69.2407 112.926L107.895 112.926L107.895 70.1814L69.2407 70.1814Z" fill="#A2F9E4"/>
<path d="M99.6683 70.1814L99.6683 112.926L138.322 112.926L138.322 70.1814L99.6683 70.1814Z" fill="#A2F9E4"/>
<path d="M130.096 70.1814L130.096 112.926L168.75 112.926L168.75 70.1814L130.096 70.1814Z" fill="#A2F9E4"/>
<path d="M160.523 70.1814L160.523 112.926L199.177 112.926L199.178 70.1814L160.523 70.1814Z" fill="#A2F9E4"/>
<path d="M190.951 70.1814L190.951 112.926L229.605 112.926L229.605 70.1814L190.951 70.1814Z" fill="#A2F9E4"/>
<path d="M221.379 70.1814L221.379 112.926L260.033 112.926L260.033 70.1814L221.379 70.1814Z" fill="#A2F9E4"/>
<path d="M251.806 70.1814L251.806 112.926L290.46 112.926L290.46 70.1814L251.806 70.1814Z" fill="#A2F9E4"/>
<path d="M282.234 70.1814L282.234 112.926L320.888 112.926L320.888 70.1814L282.234 70.1814Z" fill="#A2F9E4"/>
<path d="M312.661 70.1814L312.661 112.926L351.315 112.926L351.315 70.1814L312.661 70.1814Z" fill="#A2F9E4"/>
<path d="M343.089 70.1814L343.089 112.926L381.743 112.926L381.743 70.1814L343.089 70.1814Z" fill="#A2F9E4"/>
<path d="M373.516 70.1814L373.516 112.926L412.17 112.926L412.17 70.1814L373.516 70.1814Z" fill="#A2F9E4"/>
<path d="M403.944 70.1814L403.944 112.926L442.598 112.926L442.598 70.1814L403.944 70.1814Z" fill="#A2F9E4"/>
<path d="M434.371 70.1814L434.371 112.926L473.026 112.926L473.026 70.1814L434.371 70.1814Z" fill="#A2F9E4"/>
<path d="M-69 35.0777L-69 80.7345L-27.7125 80.7345L-27.7125 35.0777L-69 35.0777Z" fill="#A2F9E4"/>
<path d="M-38.5724 35.0777L-38.5724 80.7345L2.71504 80.7345L2.71504 35.0777L-38.5724 35.0777Z" fill="#A2F9E4"/>
<path d="M-8.14482 35.0777L-8.14482 80.7345L33.1426 80.7345L33.1426 35.0777L-8.14482 35.0777Z" fill="#A2F9E4"/>
<path d="M22.2827 35.0777L22.2827 80.7345L63.5702 80.7345L63.5702 35.0777L22.2827 35.0777Z" fill="#A2F9E4"/>
<path d="M52.7103 35.0777L52.7103 80.7345L93.9977 80.7345L93.9977 35.0777L52.7103 35.0777Z" fill="#A2F9E4"/>
<path d="M83.1379 35.0777L83.1379 80.7345L124.425 80.7345L124.425 35.0777L83.1379 35.0777Z" fill="#A2F9E4"/>
<path d="M113.565 35.0777L113.565 80.7345L154.853 80.7345L154.853 35.0777L113.565 35.0777Z" fill="#A2F9E4"/>
<path d="M143.993 35.0777L143.993 80.7345L185.28 80.7345L185.28 35.0777L143.993 35.0777Z" fill="#A2F9E4"/>
<path d="M174.421 35.0777L174.421 80.7345L215.708 80.7345L215.708 35.0777L174.421 35.0777Z" fill="#A2F9E4"/>
<path d="M204.848 35.0777L204.848 80.7345L246.136 80.7345L246.136 35.0777L204.848 35.0777Z" fill="#A2F9E4"/>
<path d="M235.276 35.0777L235.276 80.7345L276.563 80.7345L276.563 35.0777L235.276 35.0777Z" fill="#A2F9E4"/>
<path d="M265.703 35.0777L265.703 80.7345L306.991 80.7345L306.991 35.0777L265.703 35.0777Z" fill="#A2F9E4"/>
<path d="M296.131 35.0777L296.131 80.7345L337.418 80.7345L337.418 35.0777L296.131 35.0777Z" fill="#A2F9E4"/>
<path d="M326.558 35.0777L326.558 80.7345L367.846 80.7345L367.846 35.0777L326.558 35.0777Z" fill="#A2F9E4"/>
<path d="M356.986 35.0777L356.986 80.7345L398.273 80.7345L398.273 35.0777L356.986 35.0777Z" fill="#A2F9E4"/>
<path d="M387.413 35.0777L387.413 80.7345L428.701 80.7345L428.701 35.0777L387.413 35.0777Z" fill="#A2F9E4"/>
<path d="M417.841 35.0777L417.841 80.7345L459.128 80.7345L459.128 35.0777L417.841 35.0777Z" fill="#A2F9E4"/>
<path d="M-55.0794 1.46386e-05L-55.0794 48.5169L-11.2056 48.5169L-11.2056 1.84742e-05L-55.0794 1.46386e-05Z" fill="#A2F9E4"/>
<path d="M-24.6518 1.72987e-05L-24.6518 48.5169L19.222 48.5169L19.222 2.11342e-05L-24.6518 1.72987e-05Z" fill="#A2F9E4"/>
<path d="M5.77581 1.99587e-05L5.7758 48.5169L49.6496 48.5169L49.6496 2.37943e-05L5.77581 1.99587e-05Z" fill="#A2F9E4"/>
<path d="M36.2034 2.26188e-05L36.2034 48.5169L80.0771 48.5169L80.0771 2.64543e-05L36.2034 2.26188e-05Z" fill="#A2F9E4"/>
<path d="M66.6309 2.52788e-05L66.6309 48.5169L110.505 48.5169L110.505 2.91144e-05L66.6309 2.52788e-05Z" fill="#A2F9E4"/>
<path d="M97.0585 2.79389e-05L97.0585 48.5169L140.932 48.5169L140.932 3.17745e-05L97.0585 2.79389e-05Z" fill="#A2F9E4"/>
<path d="M127.486 3.0599e-05L127.486 48.5169L171.36 48.5169L171.36 3.44345e-05L127.486 3.0599e-05Z" fill="#A2F9E4"/>
<path d="M157.914 3.3259e-05L157.914 48.5169L201.787 48.5169L201.787 3.70946e-05L157.914 3.3259e-05Z" fill="#A2F9E4"/>
<path d="M188.341 3.59191e-05L188.341 48.5169L232.215 48.5169L232.215 3.97547e-05L188.341 3.59191e-05Z" fill="#A2F9E4"/>
<path d="M218.769 3.85792e-05L218.769 48.5169L262.642 48.5169L262.642 4.24147e-05L218.769 3.85792e-05Z" fill="#A2F9E4"/>
<path d="M249.196 4.12392e-05L249.196 48.5169L293.07 48.5169L293.07 4.50748e-05L249.196 4.12392e-05Z" fill="#A2F9E4"/>
<path d="M279.624 4.38993e-05L279.624 48.5169L323.498 48.5169L323.498 4.77348e-05L279.624 4.38993e-05Z" fill="#A2F9E4"/>
<path d="M310.051 4.65593e-05L310.051 48.5169L353.925 48.5169L353.925 5.03949e-05L310.051 4.65593e-05Z" fill="#A2F9E4"/>
<path d="M340.479 4.92194e-05L340.479 48.5169L384.353 48.5169L384.353 5.3055e-05L340.479 4.92194e-05Z" fill="#A2F9E4"/>
<path d="M370.907 5.18795e-05L370.907 48.5169L414.78 48.5169L414.78 5.5715e-05L370.907 5.18795e-05Z" fill="#A2F9E4"/>
<path d="M401.334 5.45395e-05L401.334 48.5169L445.208 48.5169L445.208 5.83751e-05L401.334 5.45395e-05Z" fill="#A2F9E4"/>
<path d="M431.762 5.71996e-05L431.762 48.5169L475.635 48.5169L475.635 6.10352e-05L431.762 5.71996e-05Z" fill="#A2F9E4"/>
</svg>
