<svg width="531" height="656" viewBox="0 0 531 656" fill="none" xmlns="http://www.w3.org/2000/svg">
<path d="M86.9362 573.911L95.0784 575.889L90.2389 581.612L86.9362 573.911Z" fill="#89E7D0"/>
<path d="M133.414 613.218L142.574 615.443L137.129 621.881L133.414 613.218Z" fill="#89E7D0"/>
<path d="M180.249 652.827L189.409 655.053L183.965 661.49L180.249 652.827Z" fill="#89E7D0"/>
<path d="M227.442 692.739L235.585 694.717L230.745 700.44L227.442 692.739Z" fill="#89E7D0"/>
<path d="M32.5172 447.554L41.6772 449.78L36.2327 456.218L32.5172 447.554Z" fill="#89E7D0"/>
<path d="M78.6117 486.537L89.8799 489.275L83.1824 497.194L78.6117 486.537Z" fill="#89E7D0"/>
<path d="M124.732 525.542L138.036 528.774L130.128 538.124L124.732 525.542Z" fill="#89E7D0"/>
<path d="M170.826 564.524L186.238 568.269L177.078 579.101L170.826 564.524Z" fill="#89E7D0"/>
<path d="M217.662 604.134L233.074 607.878L223.913 618.71L217.662 604.134Z" fill="#89E7D0"/>
<path d="M265.238 644.37L278.542 647.602L270.634 656.952L265.238 644.37Z" fill="#89E7D0"/>
<path d="M312.789 684.584L324.057 687.322L317.359 695.241L312.789 684.584Z" fill="#89E7D0"/>
<path d="M360.365 724.82L369.525 727.045L364.08 733.483L360.365 724.82Z" fill="#89E7D0"/>
<path d="M25.2912 361.11L34.4511 363.335L29.0066 369.773L25.2912 361.11Z" fill="#89E7D0"/>
<path d="M71.028 399.79L83.314 402.775L76.0115 411.41L71.028 399.79Z" fill="#89E7D0"/>
<path d="M116.765 438.47L132.177 442.215L123.016 453.047L116.765 438.47Z" fill="#89E7D0"/>
<path d="M162.502 477.151L181.04 481.655L170.021 494.684L162.502 477.151Z" fill="#89E7D0"/>
<path d="M208.239 515.831L229.903 521.095L217.026 536.32L208.239 515.831Z" fill="#89E7D0"/>
<path d="M255.074 555.44L276.738 560.704L263.861 575.93L255.074 555.44Z" fill="#89E7D0"/>
<path d="M303.008 595.979L321.546 600.483L310.527 613.512L303.008 595.979Z" fill="#89E7D0"/>
<path d="M350.942 636.517L366.354 640.262L357.193 651.093L350.942 636.517Z" fill="#89E7D0"/>
<path d="M398.876 677.055L411.162 680.04L403.859 688.675L398.876 677.055Z" fill="#89E7D0"/>
<path d="M446.81 717.594L455.969 719.819L450.525 726.257L446.81 717.594Z" fill="#89E7D0"/>
<path d="M64.1596 313.648L75.4279 316.386L68.7303 324.305L64.1596 313.648Z" fill="#89E7D0"/>
<path d="M109.539 352.026L124.951 355.77L115.79 366.602L109.539 352.026Z" fill="#89E7D0"/>
<path d="M154.918 390.403L174.474 395.155L162.85 408.899L154.918 390.403Z" fill="#89E7D0"/>
<path d="M200.272 428.76L224.044 434.536L209.914 451.243L200.272 428.76Z" fill="#89E7D0"/>
<path d="M245.651 467.137L273.567 473.92L256.974 493.54L245.651 467.137Z" fill="#89E7D0"/>
<path d="M292.486 506.747L320.402 513.53L303.81 533.149L292.486 506.747Z" fill="#89E7D0"/>
<path d="M340.778 547.588L364.55 553.364L350.42 570.071L340.778 547.588Z" fill="#89E7D0"/>
<path d="M389.095 588.45L408.651 593.202L397.027 606.946L389.095 588.45Z" fill="#89E7D0"/>
<path d="M437.386 629.291L452.798 633.036L443.638 643.867L437.386 629.291Z" fill="#89E7D0"/>
<path d="M485.678 670.132L496.946 672.87L490.249 680.789L485.678 670.132Z" fill="#89E7D0"/>
<path d="M58.0321 228.132L66.1743 230.11L61.3347 235.833L58.0321 228.132Z" fill="#89E7D0"/>
<path d="M103.054 266.207L116.357 269.44L108.45 278.79L103.054 266.207Z" fill="#89E7D0"/>
<path d="M148.05 304.261L166.588 308.765L155.569 321.794L148.05 304.261Z" fill="#89E7D0"/>
<path d="M193.046 342.315L216.818 348.091L202.688 364.798L193.046 342.315Z" fill="#89E7D0"/>
<path d="M238.067 380.39L267.001 387.42L249.803 407.756L238.067 380.39Z" fill="#89E7D0"/>
<path d="M283.063 418.444L317.231 426.746L296.923 450.76L283.063 418.444Z" fill="#89E7D0"/>
<path d="M329.899 458.053L364.067 466.355L343.758 490.369L329.899 458.053Z" fill="#89E7D0"/>
<path d="M378.573 499.218L407.507 506.248L390.31 526.584L378.573 499.218Z" fill="#89E7D0"/>
<path d="M427.223 540.362L450.995 546.138L436.865 562.845L427.223 540.362Z" fill="#89E7D0"/>
<path d="M475.897 581.527L494.435 586.031L483.417 599.059L475.897 581.527Z" fill="#89E7D0"/>
<path d="M524.572 622.691L537.876 625.924L529.968 635.274L524.572 622.691Z" fill="#89E7D0"/>
<path d="M573.221 663.835L581.363 665.813L576.524 671.535L573.221 663.835Z" fill="#89E7D0"/>
<path d="M97.2838 180.994L106.444 183.22L100.999 189.658L97.2838 180.994Z" fill="#89E7D0"/>
<path d="M141.922 218.746L157.334 222.49L148.174 233.322L141.922 218.746Z" fill="#89E7D0"/>
<path d="M186.56 256.497L208.225 261.761L195.348 276.986L186.56 256.497Z" fill="#89E7D0"/>
<path d="M231.199 294.248L259.115 301.031L242.522 320.651L231.199 294.248Z" fill="#89E7D0"/>
<path d="M275.837 331.999L310.005 340.301L289.697 364.315L275.837 331.999Z" fill="#89E7D0"/>
<path d="M320.476 369.751L360.896 379.572L336.871 407.979L320.476 369.751Z" fill="#89E7D0"/>
<path d="M367.311 409.36L407.731 419.181L383.706 447.589L367.311 409.36Z" fill="#89E7D0"/>
<path d="M416.343 450.827L450.511 459.129L430.203 483.143L416.343 450.827Z" fill="#89E7D0"/>
<path d="M465.376 492.295L493.292 499.078L476.699 518.697L465.376 492.295Z" fill="#89E7D0"/>
<path d="M514.408 533.762L536.072 539.026L523.196 554.252L514.408 533.762Z" fill="#89E7D0"/>
<path d="M563.44 575.23L578.852 578.974L569.692 589.806L563.44 575.23Z" fill="#89E7D0"/>
<path d="M612.473 616.697L621.633 618.922L616.188 625.36L612.473 616.697Z" fill="#89E7D0"/>
<path d="M136.893 134.159L146.053 136.384L140.609 142.822L136.893 134.159Z" fill="#89E7D0"/>
<path d="M181.531 171.91L196.943 175.655L187.783 186.487L181.531 171.91Z" fill="#89E7D0"/>
<path d="M226.17 209.661L247.834 214.925L234.957 230.151L226.17 209.661Z" fill="#89E7D0"/>
<path d="M270.808 247.413L298.724 254.196L282.132 273.815L270.808 247.413Z" fill="#89E7D0"/>
<path d="M315.447 285.164L349.615 293.466L329.306 317.48L315.447 285.164Z" fill="#89E7D0"/>
<path d="M360.085 322.915L400.505 332.736L376.48 361.144L360.085 322.915Z" fill="#89E7D0"/>
<path d="M406.92 362.525L447.34 372.346L423.316 400.753L406.92 362.525Z" fill="#89E7D0"/>
<path d="M455.953 403.992L490.121 412.294L469.812 436.308L455.953 403.992Z" fill="#89E7D0"/>
<path d="M504.985 445.459L532.901 452.242L516.308 471.862L504.985 445.459Z" fill="#89E7D0"/>
<path d="M554.017 486.927L575.681 492.191L562.805 507.416L554.017 486.927Z" fill="#89E7D0"/>
<path d="M603.05 528.394L618.462 532.139L609.301 542.971L603.05 528.394Z" fill="#89E7D0"/>
<path d="M652.082 569.861L661.242 572.087L655.798 578.525L652.082 569.861Z" fill="#89E7D0"/>
<path d="M176.86 87.626L185.002 89.6043L180.163 95.3267L176.86 87.626Z" fill="#89E7D0"/>
<path d="M221.882 125.701L235.185 128.934L227.278 138.284L221.882 125.701Z" fill="#89E7D0"/>
<path d="M266.878 163.755L285.416 168.259L274.397 181.288L266.878 163.755Z" fill="#89E7D0"/>
<path d="M311.874 201.809L335.646 207.585L321.516 224.292L311.874 201.809Z" fill="#89E7D0"/>
<path d="M356.895 239.884L385.829 246.914L368.631 267.249L356.895 239.884Z" fill="#89E7D0"/>
<path d="M401.891 277.938L436.059 286.24L415.751 310.254L401.891 277.938Z" fill="#89E7D0"/>
<path d="M448.727 317.547L482.895 325.849L462.586 349.863L448.727 317.547Z" fill="#89E7D0"/>
<path d="M497.401 358.712L526.335 365.742L509.138 386.077L497.401 358.712Z" fill="#89E7D0"/>
<path d="M546.051 399.856L569.823 405.632L555.693 422.339L546.051 399.856Z" fill="#89E7D0"/>
<path d="M594.725 441.02L613.263 445.525L602.245 458.553L594.725 441.02Z" fill="#89E7D0"/>
<path d="M643.4 482.185L656.704 485.418L648.796 494.768L643.4 482.185Z" fill="#89E7D0"/>
<path d="M692.049 523.329L700.191 525.307L695.352 531.029L692.049 523.329Z" fill="#89E7D0"/>
<path d="M262.206 79.4709L273.475 82.2087L266.777 90.1282L262.206 79.4709Z" fill="#89E7D0"/>
<path d="M307.585 117.849L322.998 121.593L313.837 132.425L307.585 117.849Z" fill="#89E7D0"/>
<path d="M352.965 156.227L372.521 160.978L360.897 174.722L352.965 156.227Z" fill="#89E7D0"/>
<path d="M398.318 194.583L422.091 200.359L407.961 217.066L398.318 194.583Z" fill="#89E7D0"/>
<path d="M443.698 232.961L471.614 239.743L455.021 259.363L443.698 232.961Z" fill="#89E7D0"/>
<path d="M490.533 272.57L518.449 279.353L501.856 298.973L490.533 272.57Z" fill="#89E7D0"/>
<path d="M538.825 313.411L562.597 319.187L548.467 335.894L538.825 313.411Z" fill="#89E7D0"/>
<path d="M587.142 354.273L606.697 359.025L595.074 372.769L587.142 354.273Z" fill="#89E7D0"/>
<path d="M635.433 395.114L650.845 398.859L641.685 409.69L635.433 395.114Z" fill="#89E7D0"/>
<path d="M683.725 435.955L694.993 438.693L688.295 446.612L683.725 435.955Z" fill="#89E7D0"/>
<path d="M302.556 33.2621L311.716 35.4877L306.272 41.9254L302.556 33.2621Z" fill="#89E7D0"/>
<path d="M348.293 71.9424L360.579 74.9275L353.277 83.5623L348.293 71.9424Z" fill="#89E7D0"/>
<path d="M394.03 110.623L409.442 114.367L400.282 125.199L394.03 110.623Z" fill="#89E7D0"/>
<path d="M439.767 149.303L458.305 153.807L447.286 166.836L439.767 149.303Z" fill="#89E7D0"/>
<path d="M485.504 187.983L507.168 193.247L494.291 208.473L485.504 187.983Z" fill="#89E7D0"/>
<path d="M532.339 227.593L554.003 232.856L541.127 248.082L532.339 227.593Z" fill="#89E7D0"/>
<path d="M580.273 268.131L598.811 272.635L587.793 285.664L580.273 268.131Z" fill="#89E7D0"/>
<path d="M628.207 308.669L643.619 312.414L634.459 323.246L628.207 308.669Z" fill="#89E7D0"/>
<path d="M676.141 349.208L688.427 352.193L681.124 360.828L676.141 349.208Z" fill="#89E7D0"/>
<path d="M724.075 389.746L733.235 391.972L727.79 398.409L724.075 389.746Z" fill="#89E7D0"/>
<path d="M389.001 26.036L398.161 28.2616L392.717 34.6994L389.001 26.036Z" fill="#89E7D0"/>
<path d="M435.096 65.0188L446.364 67.7567L439.666 75.6761L435.096 65.0188Z" fill="#89E7D0"/>
<path d="M481.216 104.023L494.519 107.256L486.612 116.606L481.216 104.023Z" fill="#89E7D0"/>
<path d="M527.31 143.006L542.722 146.751L533.562 157.582L527.31 143.006Z" fill="#89E7D0"/>
<path d="M574.146 182.615L589.558 186.36L580.397 197.192L574.146 182.615Z" fill="#89E7D0"/>
<path d="M621.722 222.851L635.026 226.084L627.118 235.434L621.722 222.851Z" fill="#89E7D0"/>
<path d="M669.273 263.065L680.541 265.803L673.843 273.723L669.273 263.065Z" fill="#89E7D0"/>
<path d="M716.849 303.301L726.009 305.527L720.564 311.965L716.849 303.301Z" fill="#89E7D0"/>
<path d="M522.639 58.7218L530.781 60.7001L525.941 66.4225L522.639 58.7218Z" fill="#89E7D0"/>
<path d="M569.117 98.0286L578.277 100.254L572.832 106.692L569.117 98.0286Z" fill="#89E7D0"/>
<path d="M615.952 137.638L625.112 139.864L619.667 146.301L615.952 137.638Z" fill="#89E7D0"/>
<path d="M663.145 177.55L671.287 179.528L666.448 185.251L663.145 177.55Z" fill="#89E7D0"/>
<path fill-rule="evenodd" clip-rule="evenodd" d="M470.435 432.772C459.634 456.742 446.282 477.936 430.469 499.102C431.577 449.09 432.533 398.807 434.166 348.336C444.181 367.839 454.85 385.488 469.094 404.849C480.261 416.763 475.054 421.708 470.435 432.772ZM505.843 1017.89C507.094 1016.12 506.354 1013.87 504.623 1012.73C508.309 1004.79 497.201 998.669 491.735 992.697C479.309 979.239 459.733 959.95 457.99 942.957C452.065 904.406 448.678 865.72 439.189 827.621C433.551 803.422 417.898 784.004 410.904 760.233C398.741 697.411 414.453 634.411 411.737 570.963C446.015 567.607 441.575 571.874 437.905 543.412C440.199 541.821 442.433 540.137 444.522 538.442C449.994 541.357 456.454 548.502 462.481 548.124C464.388 547.679 465.763 545.292 467.072 543.242C476.749 528.009 485.744 513.117 494.551 497.766C543.253 421.105 532.238 403.746 486.81 330.259C467.678 301.878 444.178 260.579 407.732 257.713C403.332 257.716 398.693 257.483 394.903 254.72C394.876 250.321 392.624 248.901 386.912 248.097C383.695 247.767 381.172 245.895 378.032 246.659C375.792 239.192 376.24 233.189 373.809 225.8C365.483 213.192 338.47 219.482 328.577 223.437C316.285 227.704 327.977 246.802 319.956 255.523C318.206 256.498 316.385 256.964 314.054 256.964C304.116 254.754 299.273 266.669 294.574 274.526C281.126 276.182 271.047 278.175 264.86 283.014C259.186 287.291 255.015 294.169 249.469 308.393C237.857 333.76 230.242 358.955 226.879 383.259C223.952 399.727 215.819 413.98 209.292 428.939C193.265 467.888 186.347 493.684 190.183 527.966C194.253 527.238 198.354 525.761 202.637 525.21L204.368 529.298C204.479 529.217 204.523 529.126 204.531 529.1C209.557 563.412 195.77 633.281 240.748 624.087C244.716 661.848 257.374 695.415 272.603 726.99C278.763 738.869 284.957 751.424 284.855 765.372L282.536 765.424C282.141 765.432 282.014 765.514 282.014 765.514C281.573 765.621 282.085 769.057 282.58 771.003C289.855 796.664 296.147 822.322 301.797 848.294C302.989 851.794 303.505 861.214 306.264 862.813C306.144 864.099 309.95 866.62 310.244 866.538C309.582 871.494 311.984 873.711 311.904 878.742C311.916 878.623 308.528 878.798 308.676 878.698C306.652 878.698 304.36 882.985 304.332 885.89C304.148 889.39 307.111 892.682 308.147 896.115C309.753 903.651 309.502 911.291 310.216 918.874C303.472 920.401 304.987 927.558 310.901 927.911C310.901 927.911 311.977 937.909 311.764 942.895C307.707 943.381 305.906 946.989 304.565 949.79C299.575 949.846 294.904 952.113 290.27 954.474C279.469 959.759 268.861 965.294 259.24 970.9C250.751 976.534 232.248 982.729 241.855 994.579C241.71 994.885 243.917 1000.38 246.894 999.883C261.584 1001.31 317.446 989.196 330.369 986.51C334.755 985.47 353.949 982.975 345.978 976.506C348.948 968.224 349.079 952.51 340.12 950.591C339.249 942.809 332.688 940.078 326.144 942.957C326.185 937.359 325.835 932.514 325.777 926.914C328.926 926.5 332.415 925.333 333.326 922.948C334.188 921.63 333.854 917.15 330.609 917.116C330.516 917.11 328.172 917.221 328.077 917.22C328.453 908.159 327.661 900.47 329.02 891.395C329.749 888.38 332.132 887.889 333.693 886.339C335.158 881.831 330.654 878.19 326.799 877.431C325.818 872.847 327.89 867.993 326.799 863.496C329.313 863.413 331.274 863.283 332.906 861.76C333.615 861.068 334.775 861.278 335.676 861.217C336.551 851.754 342.463 843.673 343.775 834.569C345.624 823.794 342.141 812.551 340.893 801.571C339.882 792.437 341.494 783.091 342.298 774.122C375.414 826.88 420.13 877.724 428.135 941.947C428.988 946.89 429.505 952.42 424.939 957.262L424.743 957.317C423.581 959.645 422.852 964.081 422.018 966.481C417.706 969.882 421.665 976.414 424.78 979.358C425.725 980.432 426.531 981.678 427.393 982.805C443.667 1002.21 445.507 1024.13 476.746 1022.65C484.425 1022.17 502.395 1022.41 505.843 1017.89Z" fill="white" fill-opacity="0.7"/>
<path fill-rule="evenodd" clip-rule="evenodd" d="M375.095 228.774C372.457 226.989 376.212 242.476 376.219 243.965C376.864 247.188 378.007 251.044 380.763 253.136C379.534 263.173 378.006 273.18 376.124 283.114L375.016 283.259C358.596 285.433 342.069 288.421 325.373 286.863C316.376 286.935 310.426 280.787 306.794 273.165L307.544 270.481C318.96 263.481 327.616 249.311 322.468 235.924C322.132 235.055 320.74 235.408 321.045 236.318C323.206 242.358 322.298 249.167 319.23 254.712C317.314 255.728 315.272 255.659 313.218 255.594C303.309 254.147 297.623 265.381 293.355 272.38L289.622 272.932C275.34 275.051 261.566 277.559 254.513 292.17L253.868 293.537C243.892 314.75 234.568 336.563 229.133 359.417C226.428 371.447 225.448 383.841 221.478 395.572C213.234 417.357 201.619 437.829 195.32 460.381C191.412 468.518 180.414 529.773 191.265 530.238C195.166 529.071 199.14 528.126 203.157 527.456C202.538 527.926 202.312 528.727 202.43 529.545C203.832 539.363 203.937 549.309 203.93 559.21C203.356 582.976 203.436 633.218 238.886 626.82C241.791 655.883 251.716 684.001 262.747 710.908C269.302 728.25 282.014 744.07 282.653 763.119C278.262 763.185 279.961 768.764 280.504 771.454C281.98 778.038 283.901 784.519 285.846 790.982C292.701 814.149 296.79 838.091 302.66 861.522C302.977 862.65 303.512 863.419 304.194 863.939C304.307 866.371 308.001 867.781 310.084 866.962C309.79 869.916 309.871 872.898 309.83 875.86L309.822 876.415L309.183 876.408C306.401 875.693 303.589 880.188 302.804 882.5C300.164 888.96 306.288 893.698 306.741 899.848C307.158 905.693 307.708 911.481 307.961 917.343C300.321 920.32 303.708 930.282 311.185 930.183C310.834 933.815 310.787 937.481 310.634 941.118C307.379 941.971 304.943 944.71 303.341 947.57C296.765 948.014 290.764 951.899 284.907 954.648C275.848 959.111 266.936 963.881 258.196 968.94C249.687 974.603 230.746 981.016 239.024 994.104C236.941 995.898 238.396 999.415 240.296 1000.88L240.361 1000.93C242.248 1002.41 244.745 1002.41 247.063 1002.16C274.008 1002.84 302.4 994.482 329.193 989.026L331.895 988.545C337.545 987.524 343.285 986.328 348.297 983.587C350.5 981.791 351.041 977.418 348.784 975.655C351.097 967.3 349.012 952.626 339.86 949.397C338.772 943.197 333.759 938.759 327.372 940.645C327.34 936.678 327.017 932.757 326.945 928.79C330.11 928.195 333.029 926.965 334.556 923.963C336.235 920.975 334.414 915.956 330.602 916.123C330.473 909.94 330.823 903.864 330.874 897.693L330.878 897.321C330.899 895.323 330.819 893.119 331.666 891.284C332.538 889.392 334.858 889.205 335.886 887.408C338.143 882.573 333.625 876.9 328.97 875.601C328.387 872.363 328.688 868.935 328.103 865.669C330.582 865.524 332.695 864.948 334.491 863.543C335.733 863.354 337.928 863.907 338.068 862.125C338.573 854.856 342.245 848.379 344.557 841.601C349.334 828.41 345 814.636 343.339 801.295C342.557 794.487 343.382 787.654 344.08 780.837C375.599 830.129 416.023 877.793 425.364 937.261C425.882 943.952 428.621 949.461 423.812 955.233C422.192 955.713 420.822 963.259 420.197 965.176C415.271 969.727 419.567 977.847 423.85 981.37C425.903 984.905 428.647 988.007 431.215 991.172L432.042 992.558C437.481 1001.64 443.29 1010.76 450.665 1018.37C463.075 1027.55 483.864 1024.94 498.474 1023.29L499.626 1023.1C502.705 1022.59 506.153 1021.87 507.932 1019.12C509.453 1016.77 509.249 1013.74 507.359 1011.98C509.235 1006.58 504.961 1001.28 500.941 997.965C485.363 984.172 471.932 967.951 461.47 949.969C457.461 920.892 453.344 891.824 448.887 862.81C445.289 838.81 439.81 814.771 428.237 793.239L427.205 791.277C421.781 780.991 416.346 770.885 413.271 759.572C406.899 735.873 408.426 711.069 409.308 686.808C410.443 648.948 413.145 611.07 412.794 573.18C419.928 572.432 439.283 572.886 442.328 565.565C443.326 558.588 440.986 551.483 440.457 544.513C441.964 543.459 443.435 542.351 444.867 541.213C447.521 543.191 450.259 545.055 453.073 546.795C459.805 551.634 465.012 552.406 469.176 544.451C481.232 525.425 492.859 506.119 503.831 486.449C514.009 467.579 526.622 448.748 529.206 427.022C532.962 387.927 487.028 325.339 464.029 293.573C449.753 276.325 431.246 257.942 407.552 256.935L407.249 256.922C404.133 256.8 399.786 257.058 397.258 255.01C396.768 247.952 389.511 247.982 384.121 246.82C383.005 245.966 381.31 245.761 379.882 245.835C377.948 240.284 377.506 234.143 375.095 228.774ZM441.68 955.004C447.594 951.928 454.65 951.685 460.875 954.114C468.59 968.398 478.47 981.434 489.695 993.14C493.791 998.854 509.186 1006.39 501.508 1014.1L499.949 1014.38C488.333 1016.48 476.543 1018.11 464.711 1017.15C456.866 1014.98 450.532 1009.18 445.541 1002.9C439.345 994.884 434.23 986.056 428.563 977.655C423.474 969.042 420.792 968.927 424.781 958.696C424.788 958.896 424.837 959.101 424.939 959.304C426.347 962.142 430.672 961.884 433.112 960.815C436.293 959.419 438.607 956.62 441.68 955.004ZM497.568 1016.75C497.45 1016.8 497.329 1016.86 497.207 1016.91C497.119 1016.91 497.031 1016.91 496.942 1016.92L497.568 1016.75ZM273.279 965.335C282.05 961.416 298.136 949.986 307.095 951.728C313.715 953.747 319.818 957.371 326.874 957.889L327.177 957.9C332.211 958.12 341.164 959.79 343.058 953.88C345.564 958.664 346.387 964.581 346.349 969.992C346.454 974.6 344.341 978.253 339.434 978.62L334.891 979.762C306.107 986.982 277.052 993.871 247.388 996.004C239.602 991.154 239.409 984.761 247.666 980.33C256.004 975.007 264.584 970.045 273.279 965.335ZM442.815 853.953C447.971 886.17 451.432 918.573 456.424 950.806C439.015 946.449 433.867 962.066 427.394 957.705C431.934 951.746 431.386 947.242 430.044 940.308C427.382 916.929 418.665 894.685 407.855 873.926C406.623 871.553 405.36 869.196 404.078 866.848C417.975 868.11 432.936 864.151 442.815 853.953ZM335.469 945.826C336.665 947.675 337.136 949.908 337.518 952.045C337.714 953.15 337.606 954.778 337.999 956.018C330.522 956.237 323 954.505 316.265 951.296C321.615 950.914 333.39 951.822 335.469 945.826ZM340.12 950.591C340.846 951.107 341.476 951.706 342.02 952.369C342.204 953.4 341.669 954.524 340.804 955.161C340.631 953.652 340.42 952.089 340.12 950.591ZM325.514 929.019C325.491 933.679 325.207 938.279 325.258 942.936C325.267 944.556 324.785 946.595 325.776 947.969L324.203 948.133C320.259 948.54 316.236 948.883 312.295 948.432C312.168 942.369 312.164 936.276 311.764 930.215C316.624 930.184 320.729 929.369 325.514 929.019ZM310.452 947.589C310.459 947.778 310.462 947.972 310.456 948.158C309.889 948.05 309.325 947.926 308.769 947.776C309.226 947.731 309.696 947.809 310.145 947.652C310.248 947.639 310.354 947.625 310.452 947.589ZM327.431 946.867C327.929 947.428 328.9 947.532 329.514 947.155C329.638 947.181 329.762 947.196 329.893 947.203L330.005 947.2L329.579 947.309C328.689 947.532 328.001 947.667 327.086 947.799C327.248 947.511 327.355 947.196 327.431 946.867ZM306.975 946.84C307.089 947.053 307.246 947.232 307.441 947.377C307.22 947.304 306.998 947.232 306.781 947.151C306.841 947.046 306.907 946.942 306.975 946.84ZM332.749 945.562C332.663 945.753 332.48 946.05 332.27 946.206C332.456 946.01 332.621 945.795 332.749 945.562ZM310.578 942.557C310.575 942.672 310.572 942.783 310.565 942.895C310.505 942.837 310.436 942.771 310.349 942.738C310.427 942.678 310.506 942.619 310.578 942.557ZM330.625 917.143C334.29 918.333 333.007 922.927 330.231 924.431C327.214 926.418 322.657 926.108 319.194 926.409C315.472 926.669 305.712 928.701 307.437 922.211C307.699 921.743 308.049 921.445 308.435 921.208C308.469 921.289 308.504 921.364 308.54 921.44C308.692 925.973 323.828 923.519 326.441 921.793L326.606 921.72C328.806 920.773 330.889 920.384 330.625 917.143ZM326.144 864.001C325.349 867.554 325.61 871.249 325.109 874.813C324.795 875.846 325.198 876.536 325.843 876.889L325.38 877.024C321.368 878.172 317.321 878.713 313.144 877.779C313.609 874.043 312.567 869.814 312.043 866.037C311.959 865.605 311.923 865.177 311.828 864.786L326.144 864.001ZM310.244 864.87C310.175 865.404 310.183 865.984 310.123 866.538C310.11 866.518 310.096 866.499 310.077 866.485C309.553 866.031 309.078 865.445 308.576 864.942C309.127 864.933 309.689 864.9 310.244 864.87ZM333.359 465.096L333.702 465.165C327.711 495.123 322.996 525.464 321.364 556.021L321.342 556.469C321.179 559.475 320.774 562.799 322.777 565.3C324.889 567.938 328.181 568.272 331.303 568.753C357.719 572.762 384.51 574.117 411.213 573.249C408.127 614.325 406.985 655.522 405.027 696.663L404.939 698.82C404.01 722.08 403.792 745.973 411.491 768.22C423.795 795.813 439.125 822.057 442.611 852.78C431.327 861.309 416.189 866.551 402.225 863.481C385.629 832.457 363.346 805.094 344.899 775.276C310.31 715.307 313.727 642.775 314.606 576.276C314.729 575.813 314.264 575.652 314.291 576.194C313.934 576.161 313.56 576.328 313.491 576.738C311.386 590.675 312.137 604.861 312.226 618.907C312.258 629.386 311.532 640.269 312.305 650.557C313.399 685.897 317.821 721.719 331.012 754.763C314.693 758.409 304.628 775.367 286.696 764.071C286.693 743.446 272.978 726.336 265.86 707.708C256.249 685.245 249.05 661.791 243.907 637.923L243.362 635.371C242.693 632.252 241.959 629.018 240.82 626.023C242.181 624.369 241.01 621.182 241.046 618.344C242.988 618.344 245.478 617.539 245.716 615.304L245.725 615.199C247.152 599.494 247.273 583.351 244.325 567.815L244.742 567.84C252.114 568.272 287.376 569.746 288.334 563.826C289.648 553.896 286.473 544.052 285.824 534.194C284.66 511.92 284.941 489.56 285.095 467.258C292.169 468.194 298.963 466.845 305.963 466.62C314.847 465.964 323.996 466.561 332.774 465.19L333.359 465.096ZM223.088 526.05C223.441 526.465 223.829 526.716 224.222 526.844C224.218 536.283 226.124 545.565 231.35 553.739C233.644 556.772 234.877 560.268 235.977 563.869C235.661 564.847 236.058 565.974 236.796 566.532C241.624 581.199 242.122 596.9 240.34 612.133C234.91 604.173 232.755 594.675 231.235 585.31C231.154 584.839 230.374 584.845 230.289 585.31C228.486 595.321 231.541 605.323 235.485 614.474C237.673 616.318 237.201 620.516 237.457 623.128C197.425 628.958 211.347 552.155 206.22 528.501C206.124 527.851 205.57 527.377 204.941 527.178C210.946 526.262 217.029 526.195 223.088 526.05ZM385.06 248.503L385.754 248.678C393.056 250.504 394.996 250.543 395.46 259.122C397.279 271.235 403.99 281.799 407.007 293.511C408.214 297.647 406.938 305.27 401.216 304.151C399.362 303.581 397.916 306.08 399.319 307.404C403.463 311.32 407.485 315.358 411.531 319.37C395.285 374.167 374.179 427.541 348.47 478.605C347.45 480.633 350.507 482.414 351.52 480.387C377.079 429.16 398.335 375.803 414.834 320.992L415.332 319.331C416.062 317.313 406.745 310.08 405.048 307.721C422.038 299.542 398.377 270.923 397.687 257.16C402.606 259.091 408.061 258.424 413.196 259.263C423.064 260.992 431.724 266.688 439.423 272.837C470.693 300.428 490.677 338.629 510.666 374.635C524.28 398.127 530.841 426.844 517.181 451.835C501.33 483.875 482.942 514.757 463.501 544.738C461.366 547.509 458.083 544.328 455.832 543.158C442.902 535.395 431.69 524.832 423.067 512.481C445.676 484.156 466.711 453.213 478.431 418.749C479.368 410.366 467.606 400.65 463.314 393.365C453.836 380.308 444.983 366.792 436.529 353.059C436.795 351.702 436.233 350.208 434.792 350.251L433.958 348.859C427.52 338.157 426.795 337.754 433.191 350.836C429.938 399.229 430.479 448.56 429.072 497.259C425.268 502.29 421.353 507.236 417.347 512.105C404.35 503.154 389.061 497.318 373.358 495.508L372.758 495.45C366.141 494.78 354.676 493.247 353.783 502.081C354.865 512.725 376.879 506.741 383.917 512.778C372.379 517.425 359.158 518.734 348.565 525.739C345.167 527.72 338.506 534.032 345.013 536.447C347.853 536.69 350.786 535.588 353.623 535.345C350.43 536.419 347.493 538.24 345.622 541.096C344.276 543.053 343.294 547.119 346.511 547.956C353.844 548.163 361.148 545.772 368.371 544.585L367.73 544.845C362.464 546.999 354.279 550.868 361.37 556.575C368.472 560.247 377.068 554 384.14 552.332C403.19 547.902 417.281 560.04 436.811 546.899C437.36 552.688 439.112 558.642 438.574 564.434C433.882 568.822 419.248 568.677 412.711 569.26L412.705 569.214C412.639 568.579 412.955 565.561 411.977 566.863C411.886 567.677 411.788 568.487 411.686 569.302C387.913 569.988 364.049 569.189 340.453 566.124L339.457 565.993C335.833 565.51 332.047 565.191 328.489 564.328C324.85 563.84 324.843 559.963 325.229 557.11C330.226 451.733 373.066 352.647 385.06 248.503ZM317.726 257.207C316.885 258.458 315.951 259.652 314.943 260.78C313.392 258.377 309.604 257.02 308.533 260.601C307.324 264.284 305.591 268.072 305.54 271.975C280.778 352.68 280.15 438.497 280.632 522.208C279.891 535.486 284.01 548.483 283.63 561.687C270.066 563.639 256.306 563.806 242.688 562.361C242.284 561.304 241.828 560.265 241.312 559.244C220.926 534.396 231.737 503.255 241.554 476.34C247.49 476.59 253.46 476.214 259.402 476.288C257.565 481.968 257.092 487.977 256.116 493.851C255.451 498.037 254.601 502.19 253.626 506.312L253.365 507.41C252.997 508.93 252.508 510.571 253.044 512.078C253.568 513.567 255.376 514.168 256.575 513.011C258.737 510.547 258.505 506.875 259.203 503.819L259.375 502.538C260.559 493.865 262.061 484.88 259.913 476.283C262.047 475.825 267.883 477.508 268.189 474.639C268.099 469.901 271.537 459.634 267.71 456.514C265.433 454.777 261.518 455.326 258.848 455.219C255.762 455.095 252.679 454.98 249.596 454.999C274.372 395.139 267.481 376.713 264.968 317.14L264.893 315.322C264.899 314.93 264.267 314.832 264.198 315.227C260.41 339.629 265.459 364.335 263.067 388.814C258.819 435.325 229.341 475.257 224.412 521.544C213.782 520.311 203.033 521.823 192.73 524.49C192.513 522.611 192.346 520.724 192.227 518.837C190.273 484.287 202.398 450.734 216.546 419.747C225.025 403.299 230.265 385.745 232.459 367.389C236.719 343.482 246.276 320.961 255.803 298.753C261.825 282.148 274.844 278.232 290.988 276.303C285.543 285.328 280.13 294.372 274.728 303.421C273.522 306.158 277.218 308.112 278.829 309.797C258.997 320.61 270.577 354.002 270.167 372.712C271.639 389.905 272.195 407.196 274.79 424.27C274.98 425.453 276.796 425.106 276.812 423.998C276.572 398.416 273.522 372.936 272.183 347.397L271.987 345.151C270.956 333.076 270.106 315.962 284.497 312.678C286.46 312.356 286.611 309.44 285.034 308.564C282.938 307.397 281.1 305.971 279.455 304.275C287.751 290.956 294.987 276.924 303.718 263.896C309.925 255.948 309.343 258.751 317.726 257.207ZM357.803 501.433C359.407 496.708 374.978 499.786 379.134 500.299C394.46 503.192 409.884 509.973 421.556 520.416C422.278 521.06 423.129 521.051 423.801 520.7C429.029 527.378 435.067 533.43 441.688 538.748C440.476 539.703 439.232 540.628 437.95 541.514C437.337 541.58 436.784 541.897 436.535 542.466C418.316 555.665 404.914 545.37 385.987 547.746C378.922 549.171 372.413 553.664 365.132 553.853C359.788 552.638 364.494 550.405 366.989 549.541C373.018 546.664 379.171 544.058 385.331 541.475L388.795 540.024C391.065 539.072 390.286 535.643 387.75 536.24C383.311 537.287 378.858 538.28 374.404 539.258C365.835 541.006 357.062 543.248 348.403 544.098C350.329 538.749 370.75 532.972 376.687 530.846C378.93 529.787 385.325 529.988 384.596 526.513C384.005 523.28 377.2 526.982 374.931 527.246C365.669 529.595 356.214 531.019 346.776 532.451C356.913 522.282 372.627 521.405 385.575 516.643L385.931 516.562C388.233 516.027 391.387 515.015 389.515 512.4C382.863 502.594 356.69 507.556 357.803 501.433ZM376.959 446.836C372.237 442.962 369.707 450.919 370.006 454.617C369.784 457.687 369.545 460.757 369.344 463.827C369.638 466.228 367.079 474.978 370.501 475.059C385.462 474.298 400.396 474.49 415.361 473.589C415.382 476.608 415.529 479.622 415.375 482.643C415.456 486.421 414.143 490.194 414.91 493.93C415.377 495.646 417.714 495.878 418.625 494.414C421.359 487.984 419.48 479.691 417.543 473.188C428.789 470.392 423.427 461.171 423.398 453.267C423.414 453.057 423.205 452.949 423.034 452.989C420.232 456.899 423.881 462.122 422.28 466.375C420.676 470.884 414.024 470.619 410.004 470.672L409.517 470.68C397.161 470.892 384.814 471.401 372.457 471.641C372.984 467.482 373.129 463.22 373.447 459.063C373.847 456.075 373.27 452.534 374.79 449.857C381.66 452.089 388.813 452.978 396.036 452.839C404.646 453.071 413.696 453.845 422.113 452.818C410.047 450.955 396.716 451.228 384.419 448.862C381.975 448.23 379.479 446.956 376.959 446.836ZM436.355 357.054C443.8 371.256 452.357 384.77 461.474 397.927C463.426 400.734 465.431 403.509 467.468 406.261L467.719 406.582C471.828 411.824 476.184 416.13 472.298 423.059C462.219 447.534 448.724 470.517 433.089 491.847C434.081 446.916 434.955 401.972 436.355 357.054ZM249.32 455.718C268.012 459.634 268.363 452.301 265.242 473.057C257.746 473.108 250.254 472.94 242.755 473.06C244.898 467.263 247.119 461.493 249.32 455.718ZM311.61 260.986C312.392 260.974 313.591 261.434 314.388 261.384C312.854 263.022 311.164 264.509 309.386 265.821L309.071 266.05L309.213 265.778C309.967 264.306 310.592 262.612 311.447 261.239L311.61 260.986Z" fill="#151515"/>
<path fill-rule="evenodd" clip-rule="evenodd" d="M293.146 144.637C303.949 129.366 331.095 127.646 348.253 127.743C382.134 127.461 389.229 166.328 390.998 193.563C394.612 194.176 398.127 195.434 400.511 198.267C403.416 201.719 404.419 207.644 401.695 211.503C399.887 214.066 397.033 214.923 394.046 215.065C384.155 214.123 382.126 222.921 377.255 229.519C364.756 246.373 343.1 251.84 323.239 251.924C316.491 252.102 308.365 252.608 304.044 246.273C290.398 222.668 290.102 191.363 289.26 164.612C289.145 157.764 289.173 150.514 293.146 144.637Z" fill="white" fill-opacity="0.7"/>
<path fill-rule="evenodd" clip-rule="evenodd" d="M269.832 157.882C269.695 158.141 269.593 158.427 269.538 158.739C269.36 159.728 269.724 160.484 270.204 161.219C270.141 161.731 270.106 162.227 270.079 162.663C269.927 165.114 270.49 168.474 272.654 169.474C272.689 169.514 272.722 169.554 272.758 169.596C272.925 169.866 273.18 170.101 273.515 170.273C273.599 170.331 273.683 170.385 273.767 170.433C273.789 170.451 273.814 170.469 273.838 170.486C273.854 170.498 273.872 170.51 273.889 170.524C273.863 170.497 273.838 170.468 273.812 170.44C273.792 170.419 273.774 170.399 273.755 170.379C274.954 170.855 276.11 170.955 277.344 170.81C278.109 171.084 278.873 171.29 279.518 171.45C281.534 171.946 284.133 172.344 286.097 171.497C286.668 171.25 287.144 170.924 287.5 170.534C287.471 172.051 287.426 173.567 287.361 175.085C287.226 178.92 287.233 182.752 287.262 186.591C287.295 190.909 287.416 195.232 287.649 199.547C287.757 201.716 287.931 203.88 288.164 206.038C288.36 208.14 288.589 210.238 288.855 212.331C289.48 216.634 290.512 220.969 291.77 225.128C292.317 226.933 292.917 228.761 293.599 230.546C293.887 231.366 294.191 232.178 294.522 232.982C296.268 237.196 298.444 241.263 301.382 244.775C302.988 246.691 304.76 248.414 306.738 249.863C308.328 251.099 310.048 252.144 311.938 252.968C316 254.74 320.535 255.139 324.928 255.074C326.604 255.051 328.38 254.756 330.042 254.48L330.143 254.462C331.441 254.249 332.754 253.965 334.055 253.631C335.208 253.364 336.349 253.053 337.472 252.691C338.825 252.335 340.122 251.82 341.358 251.157L343.546 250.336C344.461 249.994 345.348 249.584 346.21 249.116L348.588 248.009C349.574 247.534 350.534 247.014 351.471 246.443C351.569 246.39 351.681 246.302 351.724 246.204C351.824 246.148 351.926 246.092 352.028 246.037C352.171 245.961 352.313 245.884 352.455 245.804C352.493 245.785 352.464 245.67 352.412 245.56C352.455 245.472 352.448 245.374 352.329 245.285C352.241 245.217 352.1 245.236 351.953 245.281C351.966 245.272 351.976 245.262 351.986 245.252C352.038 245.225 352.089 245.196 352.14 245.168C352.252 245.11 352.361 245.051 352.47 244.99C352.634 244.902 352.66 244.673 352.507 244.553C352.464 244.52 352.415 244.503 352.365 244.501C352.368 244.501 352.371 244.499 352.371 244.499C352.371 244.499 352.373 244.496 352.376 244.496C352.405 244.477 352.382 244.386 352.339 244.284C352.422 244.179 352.448 244.052 352.303 243.94C352.106 243.786 351.663 244.04 351.456 244.158C351.439 244.167 351.426 244.176 351.412 244.183C351.284 244.255 351.154 244.323 351.024 244.392C350.946 244.433 350.867 244.474 350.79 244.517C350.777 244.487 350.751 244.461 350.708 244.434C351.013 244.274 351.314 244.112 351.616 243.947C351.802 243.849 352.045 243.644 351.799 243.451C351.602 243.294 351.095 243.562 350.852 243.699C350.823 243.676 350.79 243.666 350.751 243.66C350.792 243.636 350.837 243.614 350.879 243.59C350.944 243.556 351.009 243.521 351.071 243.484C351.366 243.32 351.166 242.809 350.861 242.98C350.843 242.991 350.826 243.002 350.808 243.012C350.79 243.023 350.772 243.034 350.754 243.045C350.545 243.027 350.257 243.189 350.108 243.271L350.085 243.284C349.06 243.928 347.992 244.491 346.884 244.974C346.138 245.327 345.388 245.677 344.634 246.017C343.894 246.384 343.131 246.701 342.347 246.968C340.379 247.734 338.389 248.446 336.381 249.107C333.567 249.875 330.655 250.493 327.733 250.736C327.352 250.765 326.973 250.791 326.592 250.803C326.178 250.801 325.764 250.798 325.351 250.795C324.933 250.794 324.516 250.791 324.099 250.787C322.633 250.637 321.167 250.488 319.703 250.339L319.257 250.294C318.693 250.216 318.143 250.118 317.599 250.003C317.314 249.934 317.029 249.863 316.748 249.78C316.649 249.767 316.551 249.748 316.453 249.732C315.762 249.548 315.083 249.329 314.404 249.075C313.979 248.901 313.556 248.718 313.137 248.525C311.752 247.88 310.389 247.031 309.104 246.057C308.301 245.258 307.499 244.461 306.696 243.663C305.89 242.864 305.084 242.064 304.279 241.263L302.807 239.263C300.907 236.552 299.404 233.531 298.155 230.448L296.17 224.739C295.963 224.052 295.767 223.365 295.58 222.676C295.203 221.133 294.827 219.59 294.45 218.05C294.326 217.485 294.204 216.922 294.086 216.359C293.363 212.858 292.963 209.304 292.618 205.749C291.989 199.282 291.819 192.796 291.774 186.303C291.743 182.422 291.777 178.54 291.855 174.663C291.901 172.414 291.934 170.164 291.967 167.916C292.01 165.528 292.055 163.138 292.117 160.751C292.12 160.699 292.101 160.653 292.075 160.614C292.081 160.333 292.084 160.052 292.088 159.767C292.091 159.581 292.019 159.499 291.915 159.483C291.934 157.779 291.948 156.079 291.95 154.379C291.95 154.268 291.898 154.196 291.829 154.154V153.722C292.115 152.538 292.501 151.378 293.002 150.273C293.173 149.874 293.363 149.485 293.573 149.105C293.831 148.537 294.169 148.02 294.581 147.546C294.925 146.967 295.348 146.454 295.839 145.996C295.938 145.924 296.039 145.853 296.14 145.781C296.241 145.709 296.341 145.637 296.442 145.564C296.609 145.476 296.854 145.322 297.071 145.146C297.266 145.027 297.46 144.906 297.655 144.786C297.848 144.666 298.042 144.546 298.237 144.427C298.463 144.309 298.315 144.015 298.155 143.936V143.926C298.191 143.91 298.231 143.89 298.274 143.855C298.746 143.41 299.237 142.991 299.747 142.599C299.84 142.635 299.947 142.622 300.029 142.553C300.331 142.272 300.638 142.001 300.953 141.739C301.658 141.278 302.394 140.856 303.164 140.484C304.4 139.902 305.664 139.401 306.962 138.976C307.214 138.894 307.467 138.819 307.721 138.744L307.803 138.72C307.957 138.713 308.108 138.705 308.261 138.697C308.507 138.685 308.753 138.673 308.999 138.662C323.844 138.012 338.729 138.285 353.54 139.477C357.189 139.771 360.834 140.121 364.471 140.527C365.157 140.604 365.873 140.663 366.601 140.724C369.276 140.947 372.141 141.186 374.453 142.335C374.578 142.398 374.696 142.463 374.812 142.531C374.612 143.806 374.133 145.056 373.668 146.269C373.598 146.454 373.528 146.638 373.459 146.82C372.652 148.957 371.929 151.135 372.001 153.45C372.05 155.063 372.398 156.615 372.899 158.132C373.155 160.294 373.831 162.382 374.547 164.434C378.075 174.527 379.995 184.863 379.798 195.578C379.793 195.865 379.86 196.115 379.973 196.329L379.967 196.372C379.905 196.825 379.842 197.281 379.769 197.733C379.473 199.539 381.86 200.437 382.683 199.24C382.739 199.295 382.816 199.332 382.886 199.339C383.096 199.358 383.439 199.015 383.539 198.857C383.666 198.623 383.801 198.394 383.944 198.175C383.964 198.165 383.98 198.158 383.997 198.151C383.954 198.241 383.91 198.331 383.867 198.42C383.82 198.514 383.775 198.606 383.732 198.697C383.587 198.986 384.142 199.126 384.304 198.862C384.452 198.628 384.6 198.406 384.747 198.194C384.833 198.256 384.926 198.273 384.99 198.17C385.517 197.301 386.127 196.556 386.794 195.922C387.847 195.065 388.996 194.545 390.304 194.242C391.331 194.094 392.387 194.087 393.406 194.206C394.576 194.342 395.808 194.633 396.866 195.166C397.727 195.758 398.592 196.35 399.457 196.941C399.67 197.163 399.873 197.397 400.062 197.638C400.662 198.413 401.144 199.24 401.541 200.12C401.556 200.175 401.573 200.231 401.589 200.284C401.832 201.022 401.989 201.781 402.058 202.559C402.062 203.051 402.067 203.542 402.071 204.033C402.075 204.524 402.079 205.015 402.085 205.508C401.953 206.787 401.625 208.028 401.124 209.209C400.889 209.906 400.519 210.527 400.017 211.076C399.749 211.54 399.444 211.963 399.103 212.354C398.412 212.812 397.658 213.201 396.855 213.509C396.659 213.561 396.462 213.612 396.263 213.652C395.231 214.048 394.162 214.261 393.059 214.29C391.662 214.385 390.297 214.264 388.96 213.927C388.135 213.779 387.335 213.541 386.563 213.211C385.822 212.839 385.124 212.39 384.471 211.867C384.399 211.822 384.292 211.848 384.173 211.906C384.148 211.888 384.124 211.87 384.097 211.852C383.979 211.765 383.86 211.68 383.744 211.586C383.679 211.54 383.62 211.596 383.591 211.655L383.551 211.625C383.292 211.448 382.581 212.001 382.903 212.328C382.765 212.414 382.627 212.514 382.503 212.619C381.933 212.643 380.782 213.688 380.999 213.851C381.32 214.13 381.657 214.385 382.002 214.626C381.697 214.853 381.297 215.202 381.483 215.342C381.818 215.66 382.181 215.934 382.569 216.17C382.831 216.369 383.099 216.559 383.381 216.733C383.685 216.912 383.997 217.065 384.318 217.21C383.758 218.292 383.224 219.384 382.726 220.495C382.395 221.284 382.012 222.045 381.569 222.778C381.006 223.892 380.331 224.938 379.541 225.913C378.899 226.992 378.145 227.983 377.284 228.889C376.219 230.097 375.076 231.235 373.86 232.288C373.376 232.631 372.881 232.965 372.366 233.273C371.053 234.261 369.654 235.106 368.17 235.813C367.996 235.908 367.858 236.117 368.062 236.28C368.065 236.282 368.068 236.283 368.071 236.284C368.075 236.286 368.077 236.287 368.082 236.29C367.596 236.566 367.108 236.836 366.617 237.105L366.6 237.113C366.403 237.221 366.036 237.418 366.321 237.65C366.512 237.807 367.098 237.526 367.448 237.344C367.4 237.37 367.348 237.399 367.295 237.428C367.29 237.431 367.284 237.435 367.277 237.438C367.131 237.516 366.582 237.81 366.948 238C367.141 238.034 367.324 238 367.501 237.905C367.684 237.836 367.868 237.762 368.048 237.683C368.042 237.742 368.075 237.798 368.17 237.843C368.246 237.857 368.317 237.857 368.389 237.85C367.989 238.076 367.59 238.298 367.186 238.516C367.069 238.58 366.512 238.886 366.879 239.076C367.059 239.112 367.233 239.083 367.4 238.991C367.705 238.876 368.006 238.743 368.298 238.595C368.366 238.556 368.435 238.52 368.504 238.48C368.556 238.48 368.608 238.475 368.661 238.465C368.339 238.638 368.015 238.805 367.688 238.969C367.495 239.072 367.171 239.285 367.448 239.501C367.643 239.649 368.163 239.384 368.471 239.21C368.491 239.234 368.513 239.258 368.546 239.285C368.748 239.438 369.225 239.162 369.465 239.024C369.5 239.005 369.529 238.987 369.552 238.974C371.177 238.105 372.747 237.206 374.256 236.175C375.18 235.585 376.081 234.963 376.963 234.287C378.65 232.985 380.184 231.471 381.588 229.875C382.548 228.784 383.07 228.169 383.999 226.845C385.493 224.713 386.62 222.489 387.705 220.132C387.721 220.096 387.69 220.005 387.64 219.914C387.862 219.368 388.079 218.814 388.295 218.242C388.858 218.318 389.425 218.37 389.985 218.403C391.305 218.478 392.587 218.361 393.828 218.089C395.332 217.896 396.819 217.471 398.136 216.805C398.925 216.409 399.686 215.987 400.407 215.516C401.053 215.173 401.675 214.781 402.271 214.323C404.81 212.387 406.19 209.383 406.526 206.263C406.786 204.89 406.841 203.477 406.688 202.114C406.576 201.124 406.353 200.143 406.028 199.198C405.43 197.101 404.312 195.163 402.694 193.695C402.421 193.417 402.137 193.152 401.832 192.904C400.931 192.168 399.909 191.577 398.821 191.145C398.611 191.044 398.399 190.949 398.186 190.861L398.444 190.266C398.536 190.292 398.854 190.24 398.894 190.128C398.957 189.953 399.019 189.776 399.081 189.6C399.12 189.489 399.159 189.378 399.199 189.269C399.257 189.305 399.332 189.324 399.414 189.327V189.658C399.411 189.751 399.592 190.341 399.69 190.033C399.752 189.862 399.81 189.687 399.868 189.513C399.905 189.401 399.942 189.291 399.981 189.18C400.062 189.128 400.126 189.066 400.148 188.994C400.157 188.964 400.167 188.935 400.181 188.906C400.184 188.903 400.188 188.903 400.192 188.902C400.196 188.902 400.2 188.9 400.204 188.899V189C400.2 189.062 400.364 189.534 400.393 189.441C400.96 187.885 401.422 186.296 401.782 184.68C402.028 183.792 402.222 182.893 402.369 181.981C402.53 181.16 402.671 180.336 402.792 179.506L402.821 179.299C402.823 179.291 402.825 179.283 402.827 179.276C402.828 179.269 402.829 179.262 402.831 179.254C402.84 179.165 402.852 179.074 402.864 178.986C402.995 178.047 403.103 177.106 403.185 176.158C403.359 174.209 403.428 172.25 403.407 170.295C403.435 170.305 403.46 170.319 403.485 170.331C403.501 170.339 403.516 170.346 403.533 170.354C404.384 170.716 405.282 171.011 406.198 171.247C407.772 173.516 410.286 175.053 413.297 175.214C414.316 175.27 415.386 175.145 416.376 174.859C416.479 174.882 416.586 174.901 416.695 174.915C417.212 174.983 417.629 174.872 418.059 174.758C418.3 174.694 418.547 174.628 418.818 174.592C418.916 174.58 419.012 174.567 419.107 174.555C420.19 174.416 421.113 174.298 421.832 173.654C422.073 173.66 422.304 173.625 422.523 173.56C424.595 174.056 426.798 172.962 427.526 170.672C428.771 169.943 429.761 168.866 430.427 167.613C431.71 165.973 432.735 163.96 433.373 161.846C433.375 161.838 433.38 161.83 433.384 161.822C433.391 161.81 433.396 161.798 433.402 161.786C433.724 161.088 433.879 160.338 433.891 159.587C434.235 157.447 434.145 155.304 433.491 153.42C433.519 152.399 433.279 151.335 432.839 150.37C432.305 149.199 431.491 147.853 430.434 147.072C430.433 145.872 429.916 144.551 429.238 143.656C427.886 141.868 425.928 140.923 423.806 140.786C422.727 138.027 419.461 137.383 416.641 138.301C415.47 137.107 413.755 136.537 412.043 136.74C410.596 136.911 409.359 137.602 408.335 138.554C408.065 138.631 407.796 138.711 407.527 138.795C406.63 138.402 405.584 138.313 404.627 138.559C402.969 138.986 401.887 140.24 401.138 141.679C400.9 141.843 400.666 142.012 400.439 142.189C400.188 142.301 399.961 142.45 399.755 142.626C399.455 142.785 399.201 143.047 399.047 143.427C398.623 143.862 398.23 144.322 397.883 144.815C397.622 144.214 397.354 143.617 397.077 143.024C396.625 143.16 396.078 142.985 395.851 142.382L395.793 142.229C394.34 138.38 391.754 131.529 389.313 128.348C392.199 130.309 395.722 131.343 399.222 131.239C399.371 131.234 399.523 131.228 399.675 131.22C401.556 131.543 403.467 131.574 405.221 131.222C406.402 130.794 407.554 130.284 408.669 129.707C408.941 129.567 409.21 129.419 409.477 129.27C409.561 129.199 409.641 129.123 409.72 129.046C409.752 129.016 409.783 128.986 409.815 128.956C410.046 128.973 410.287 128.955 410.544 128.887C411.509 128.632 412.403 127.991 412.963 127.167C413.067 127.014 413.151 126.856 413.225 126.697C413.834 126.104 414.359 125.432 414.747 124.646C415.202 123.727 415.481 122.694 415.51 121.661C415.7 120.647 415.686 119.604 415.333 118.637C415.308 118.571 415.281 118.506 415.253 118.441C415.237 118.403 415.221 118.365 415.205 118.326C415.197 118.299 415.19 118.272 415.183 118.245C415.173 118.205 415.163 118.165 415.15 118.127C415.046 117.782 414.914 117.474 414.754 117.183C414.694 116.884 414.598 116.588 414.461 116.299C414.446 116.159 414.427 116.02 414.405 115.881C415.445 113.921 415.077 111.357 413.518 109.764C413.733 108.734 413.514 107.642 412.886 106.728C412.425 106.057 411.784 105.527 411.057 105.159C410.982 105.121 410.781 105.055 410.541 104.979C410.273 104.743 409.989 104.518 409.679 104.321C409.605 102.405 407.689 101.3 406.03 100.343C405.95 100.297 405.87 100.251 405.791 100.205C405.25 99.8919 404.859 99.4421 404.467 98.992C404.054 98.5194 403.642 98.0465 403.058 97.7314C402.036 97.1806 400.78 97.0538 399.6 96.935C399.339 96.9087 399.083 96.8829 398.833 96.8528C395.58 96.4619 392.118 96.1597 388.848 96.5132C387.034 96.7093 385.532 97.5839 384.91 99.0167C383.348 99.2007 381.958 100.325 380.857 101.481C379.483 102.924 378.313 104.46 377.909 106.356C377.641 106.501 377.397 106.678 377.176 106.878C377.185 108.211 377.359 109.547 377.728 110.805C377.619 111.557 377.847 112.276 378.23 112.927C378.171 113.544 378.214 114.151 378.344 114.756C377.596 116.079 378.295 118.077 379.342 119.389L379.349 120.128C379.287 120.096 379.226 120.058 379.17 120.01C376.16 117.454 373.097 116.749 369.788 115.988C367.877 115.549 365.885 115.09 363.773 114.246C358.573 113.244 353.263 112.606 347.934 112.394C347.964 112.389 347.995 112.385 348.025 112.381C348.065 112.376 348.105 112.371 348.145 112.364C350.831 111.925 353.409 110.823 355.628 109.24C356.215 109.091 356.771 108.827 357.269 108.384C357.753 107.955 358.089 107.459 358.282 106.927C358.37 106.834 358.457 106.739 358.542 106.643C360.206 106.235 361.475 104.797 361.263 102.908C362.317 101.662 362.704 100.125 362.347 98.5235C362.936 97.5305 362.988 96.2787 362.548 95.2301C363.474 94.108 363.546 92.5151 362.82 91.2456C363.484 90.3056 363.63 89.0599 362.812 87.9467C362.426 87.421 361.892 87.0893 361.308 86.9292C361.144 86.3233 360.81 85.7606 360.285 85.3261C360.014 85.1029 359.731 84.9371 359.442 84.8135C359.333 84.188 358.978 83.595 358.297 83.1284C357.988 82.9168 357.672 82.7801 357.357 82.7042C357.059 81.9687 356.539 81.3236 355.808 80.9047C354.927 80.3997 353.9 80.3326 352.965 80.5975C351.743 78.7553 349.064 78.0413 347.206 79.4077C345.658 78.4522 343.713 78.6536 342.322 79.8153C340.641 78.8237 338.552 79.2239 337.233 80.6066C335.121 79.4544 332.332 80.3054 331.201 82.4885C329.07 82.2524 327.06 83.6453 326.491 85.6613C326.399 85.7361 326.308 85.8132 326.217 85.8902L326.192 85.9104C324.915 85.9715 323.701 86.4711 322.986 87.6566C322.627 88.2488 322.463 88.9445 322.487 89.6262C321.724 90.0381 321.106 90.7139 320.842 91.5899C320.594 92.4111 320.688 93.2236 321.013 93.9315C319.95 95.0604 319.668 96.8201 320.422 98.2381C320.11 98.7717 319.948 99.4024 319.973 100.058C320.012 101.029 320.463 101.811 321.076 102.479C320.304 103.869 320.605 105.651 321.859 106.626C322.581 109.174 324.403 110.87 327.198 111.911C328.601 112.433 330.068 112.836 331.565 113.131C325.578 113.935 319.688 115.348 314.029 117.455C313.721 117.57 313.461 117.525 313.261 117.391C313.207 117.42 313.152 117.448 313.097 117.476C313.028 117.511 312.957 117.546 312.888 117.584C311.328 118.437 309.802 119.362 308.315 120.353C308.315 120.19 308.311 120.026 308.304 119.859C308.333 118.514 308.192 117.189 307.834 115.912C308.303 115.274 308.653 114.548 308.844 113.799C309.32 111.931 308.415 109.272 306.787 108.634C306.217 107.056 304.92 105.915 303.333 105.465C303.206 105.352 303.072 105.242 302.921 105.139C302.588 104.91 302.222 104.753 301.845 104.662C301.65 103.807 301.172 103.02 300.379 102.468C299.26 101.688 297.937 101.604 296.774 102.029C296.554 101.955 296.329 101.891 296.103 101.835C294.232 100.245 291.314 100.362 289.669 102.222C288.538 101.706 287.206 101.683 286.049 102.377C285.123 102.932 284.547 103.828 284.322 104.81C282.568 104.864 280.966 106.024 280.459 107.757C278.844 107.939 277.524 109.2 277.242 110.788C276.212 110.931 275.261 111.415 274.682 112.375C274.414 112.82 274.269 113.306 274.231 113.793C273.711 114.042 273.243 114.42 272.89 114.913C272.272 115.778 272.153 116.787 272.381 117.737C272.359 117.78 272.337 117.823 272.315 117.865C272.283 117.927 272.251 117.988 272.221 118.051C272.054 118.409 271.919 118.791 271.799 119.18C271.255 119.962 271.004 120.918 271.054 121.877C270.938 122.284 270.826 122.691 270.734 123.1C270.367 124.705 270.229 126.415 270.481 128.05C270.607 128.841 270.786 129.619 271.041 130.374C271.068 130.518 271.11 130.652 271.16 130.78C271.301 131.375 271.482 131.96 271.711 132.532C272.261 133.261 272.838 133.971 273.443 134.657C273.955 135.422 274.537 136.129 275.197 136.776C275.671 137.243 276.192 137.678 276.746 138.071C277.845 138.95 279.074 139.636 280.388 140.082C280.621 140.032 280.857 139.994 281.092 139.957C282.582 140.775 284.927 140.868 286.361 140.862C287.94 140.856 289.387 140.458 290.59 139.706C290.451 139.983 290.312 140.26 290.172 140.538C290.207 140.558 290.244 140.576 290.274 140.599C290.535 140.169 290.825 139.787 291.167 139.513C291.633 139.137 292.386 139.103 292.71 139.711C292.716 139.721 292.722 139.732 292.727 139.743C292.899 140.067 292.876 140.378 292.744 140.632C292.695 140.701 292.648 140.77 292.6 140.84C292.595 140.845 292.59 140.851 292.586 140.857C292.574 140.871 292.561 140.885 292.548 140.899L292.556 140.9C292.109 141.259 291.669 142.139 291.251 142.995C290.97 143.494 290.701 144.002 290.448 144.518C290.302 144.734 290.04 144.924 289.763 144.979C289.816 145.391 289.627 145.817 289.316 146.028C289.233 145.864 289.133 145.695 289.005 145.521C287.597 143.612 284.831 142.789 282.748 143.661C282.333 143.591 281.915 143.533 281.494 143.5C280.119 143.41 278.724 143.517 277.366 143.802C276.944 144.054 276.542 144.338 276.166 144.662C275.848 144.937 275.554 145.224 275.278 145.522C275.065 145.681 274.856 145.85 274.65 146.026C273.817 146.473 273.206 147.33 272.693 148.183C272.284 148.758 271.929 149.37 271.621 150.017C270.192 152.456 268.543 155.484 269.832 157.882ZM384.39 205.017C383.866 205.622 383.457 206.296 383.162 207.038C383.043 207.276 383.188 207.42 383.431 207.379C383.539 207.362 383.686 207.283 383.837 207.179C383.826 207.206 383.813 207.232 383.801 207.259C383.788 207.285 383.776 207.311 383.765 207.339C383.637 207.591 383.744 207.77 384.037 207.675C384.053 207.665 384.07 207.656 384.082 207.646C383.932 207.914 383.794 208.188 383.677 208.477C383.548 208.732 383.663 208.908 383.951 208.81C384.102 208.725 384.246 208.627 384.384 208.519C384.366 208.557 384.35 208.594 384.333 208.631C384.286 208.729 384.241 208.828 384.201 208.93C384.07 209.19 384.22 209.324 384.475 209.264C384.695 209.144 384.897 208.999 385.088 208.833C385.107 208.817 385.125 208.802 385.143 208.786C385.153 208.777 385.161 208.769 385.171 208.761C385.085 208.973 385.245 209.104 385.459 209.062C385.76 209.004 386.327 208.496 386.465 208.228C386.469 208.22 386.473 208.212 386.477 208.203C386.481 208.195 386.485 208.187 386.491 208.179C386.651 208.071 386.825 207.921 386.956 207.777C387.061 207.928 387.263 208.038 387.356 207.856C387.63 207.107 388.059 206.465 388.646 205.926C388.981 205.439 389.386 205.024 389.861 204.68C390.117 204.465 390.382 204.26 390.654 204.062C391.136 203.844 391.638 203.677 392.162 203.566C392.221 203.548 392.282 203.533 392.341 203.519C392.388 203.508 392.434 203.497 392.479 203.484L392.518 203.477C392.737 203.437 392.954 203.397 393.173 203.367C394.121 203.236 395.071 203.212 396.02 203.298C396.191 203.305 396.354 203.174 396.427 203.024C396.64 203.033 396.849 203.043 397.062 203.062C397.414 203.076 397.338 202.582 397.073 202.532C396.738 202.47 396.404 202.425 396.077 202.386C396.082 202.356 396.087 202.323 396.08 202.298C396.68 202.268 397.276 202.281 397.878 202.343C398.141 202.356 397.829 201.872 397.685 201.845C397.651 201.84 397.616 201.834 397.582 201.829C397.55 201.825 397.518 201.819 397.485 201.814C397.492 201.804 397.495 201.797 397.498 201.787H397.514C397.874 201.804 398.121 201.232 397.688 201.153C397.636 201.143 397.585 201.135 397.535 201.128C397.48 201.12 397.425 201.11 397.371 201.101C397.39 201.045 397.393 200.996 397.374 200.95C397.56 200.947 397.743 200.947 397.931 200.947C397.881 200.943 397.838 200.841 397.794 200.732C397.746 200.616 397.695 200.495 397.633 200.487C397.593 200.481 397.553 200.476 397.513 200.47C397.456 200.462 397.4 200.455 397.345 200.447C397.338 200.325 397.154 200.045 397.076 200.029C396.453 199.924 395.844 199.852 395.241 199.829C395.182 199.692 395.097 199.509 395.015 199.509C394.33 199.499 393.671 199.504 393.016 199.573C392.99 199.554 392.963 199.544 392.941 199.547C392.832 199.573 392.734 199.597 392.63 199.623C392.267 199.675 391.903 199.75 391.533 199.858C390.658 200.117 389.782 200.525 389.026 201.032C388.312 201.509 387.601 202.007 386.979 202.601C386.758 202.788 386.553 202.99 386.356 203.2C386.038 203.461 385.731 203.73 385.435 203.995C385.075 204.324 384.725 204.664 384.39 205.017Z" fill="#151515"/>
<path fill-rule="evenodd" clip-rule="evenodd" d="M315.225 195.865C312.75 197.366 308.982 200.866 311.643 204.586C314.775 207.867 319.286 204.105 321.509 202.404C323.57 201.085 325.884 204.476 323.972 206.016C307.912 217.883 301.394 196.258 313.974 194.101C315.359 193.864 315.873 195.402 315.225 195.865ZM337.577 167.245L336.962 167.138L336.647 167.085C334.804 166.78 332.62 166.577 331.347 168.02C330.634 168.83 330.388 170.335 331.347 171.109C333.036 172.473 334.902 171.945 336.924 172.06C338.591 172.156 340.192 172.431 341.798 172.889C345.321 173.893 348.192 175.728 351.199 177.742C351.595 178.006 351.998 177.502 351.809 177.133C350.072 173.738 346.706 170.95 343.336 169.251C341.536 168.343 339.568 167.59 337.577 167.245ZM321.282 214.144C315.898 214.534 304.232 211.969 299.389 215.815C281.131 238.567 353.511 244.416 345.694 219.246C340.715 211.107 329.264 214.378 321.282 214.144ZM322.205 227.878C323.537 227.77 325.153 228.823 325.544 229.635C325.934 230.449 325.784 232.168 325.771 232.466C323.444 232.7 321.096 232.736 318.762 232.583C319.368 230.581 319.388 228.181 322.205 227.878ZM311.458 231.237C311.832 228.752 313.613 228.163 315.054 228.537C316.529 228.918 317.395 230.612 317.301 232.12C317.294 232.224 317.355 232.313 317.395 232.396C315.391 232.16 313.404 231.771 311.458 231.237ZM327.967 228.329C328.808 227.054 330.813 226.439 332.098 226.664C334.194 227.104 334.443 229.765 334.443 230.307C332.51 231.042 330.456 231.531 328.493 231.92C328.099 231.997 327.704 232.067 327.308 232.132L327.282 231.809C327.235 231.118 327.199 229.494 327.967 228.329ZM304.239 228.118C306.39 224.797 311.012 227.174 310.63 230.802C310.219 230.674 309.811 230.539 309.404 230.397C307.714 229.809 305.86 229.111 304.239 228.118ZM321.172 216.676C324.065 216.416 326.439 216.504 328.326 216.853L328.383 217.482C328.592 219.663 328.861 221.808 327.714 222.685C326.781 223.397 323.688 223.33 321.614 222.814C321.1 222.685 320.435 218.162 321.172 216.676ZM316.697 216.416C317.161 218.566 317.379 221.176 316.447 221.951C315.465 222.769 312.299 222.659 311.472 222.113C310.747 221.636 310.765 219.441 311.034 216.977C312.637 216.599 315.429 216.416 316.697 216.416ZM329.605 216.875L330.553 216.883L331.089 216.89C332.445 216.914 333.908 216.992 335.291 217.293C338.038 223.219 328.005 224.241 329.555 217.094L329.605 216.875ZM309.758 217.017L309.776 217.354C309.859 219.017 309.804 221.209 308.879 221.801C307.521 222.672 304.967 222.503 303.585 218.476C304.042 217.275 308.896 217.105 309.758 217.017ZM336.385 181.687C335.804 181.687 335.25 181.883 334.744 182.247C334.246 182.606 333.794 183.129 333.419 183.781C332.709 185.016 332.265 186.721 332.265 188.605C332.265 190.489 332.709 192.195 333.419 193.429C333.794 194.082 334.246 194.604 334.744 194.962C335.25 195.326 335.804 195.523 336.385 195.523C336.967 195.523 337.522 195.326 338.028 194.962C338.526 194.604 338.977 194.082 339.352 193.429C340.063 192.195 340.507 190.489 340.507 188.605C340.507 186.721 340.063 185.016 339.352 183.781C338.977 183.129 338.526 182.606 338.028 182.247C337.522 181.883 336.967 181.687 336.385 181.687ZM299.615 181.687C299.034 181.687 298.478 181.883 297.972 182.247C297.474 182.606 297.023 183.129 296.648 183.781C295.937 185.016 295.493 186.721 295.493 188.605C295.493 190.489 295.937 192.195 296.648 193.429C297.023 194.082 297.474 194.604 297.972 194.962C298.478 195.326 299.034 195.523 299.615 195.523C300.196 195.523 300.752 195.326 301.256 194.962C301.754 194.604 302.206 194.082 302.581 193.429C303.291 192.195 303.735 190.489 303.735 188.605C303.735 186.721 303.291 185.016 302.581 183.781C302.206 183.129 301.754 182.606 301.256 182.247C300.752 181.883 300.196 181.687 299.615 181.687ZM304.617 165.725L304.146 165.821L303.835 165.887C298.757 166.977 292.319 169.125 289.942 174.046C289.849 174.756 289.947 174.908 290.026 175.007L290.052 175.041C290.118 175.126 290.171 175.243 290.479 175.34C290.564 175.319 290.651 175.297 290.738 175.275C291.85 174.984 292.73 174.583 293.582 174.167L294.505 173.714C295.577 173.189 296.657 172.684 297.804 172.311C300.248 171.515 302.763 170.955 305.316 170.655C305.869 170.59 306.402 170.404 306.823 170.084C307.221 169.781 307.526 169.361 307.666 168.803C307.846 168.081 307.794 167.535 307.406 166.883C307.114 166.393 306.696 166.054 306.217 165.859C305.727 165.661 305.17 165.614 304.617 165.725Z" fill="#151515"/>
</svg>
