<svg width="531" height="656" viewBox="0 0 531 656" fill="none" xmlns="http://www.w3.org/2000/svg">
<path d="M86.9362 573.911L95.0784 575.889L90.2389 581.612L86.9362 573.911Z" fill="#89E7D0"/>
<path d="M133.414 613.218L142.574 615.443L137.129 621.881L133.414 613.218Z" fill="#89E7D0"/>
<path d="M180.249 652.827L189.409 655.053L183.965 661.491L180.249 652.827Z" fill="#89E7D0"/>
<path d="M227.442 692.739L235.585 694.717L230.745 700.44L227.442 692.739Z" fill="#89E7D0"/>
<path d="M32.5172 447.555L41.6772 449.78L36.2327 456.218L32.5172 447.555Z" fill="#89E7D0"/>
<path d="M78.6117 486.537L89.8799 489.275L83.1824 497.195L78.6117 486.537Z" fill="#89E7D0"/>
<path d="M124.732 525.542L138.036 528.774L130.128 538.124L124.732 525.542Z" fill="#89E7D0"/>
<path d="M170.826 564.524L186.238 568.269L177.078 579.101L170.826 564.524Z" fill="#89E7D0"/>
<path d="M217.662 604.134L233.074 607.878L223.913 618.71L217.662 604.134Z" fill="#89E7D0"/>
<path d="M265.238 644.37L278.542 647.602L270.634 656.952L265.238 644.37Z" fill="#89E7D0"/>
<path d="M312.789 684.584L324.057 687.322L317.359 695.241L312.789 684.584Z" fill="#89E7D0"/>
<path d="M360.365 724.82L369.525 727.045L364.08 733.483L360.365 724.82Z" fill="#89E7D0"/>
<path d="M25.2912 361.11L34.4511 363.335L29.0066 369.773L25.2912 361.11Z" fill="#89E7D0"/>
<path d="M71.028 399.79L83.314 402.775L76.0115 411.41L71.028 399.79Z" fill="#89E7D0"/>
<path d="M116.765 438.47L132.177 442.215L123.016 453.047L116.765 438.47Z" fill="#89E7D0"/>
<path d="M162.502 477.151L181.04 481.655L170.021 494.684L162.502 477.151Z" fill="#89E7D0"/>
<path d="M208.239 515.831L229.903 521.095L217.026 536.321L208.239 515.831Z" fill="#89E7D0"/>
<path d="M255.074 555.44L276.738 560.704L263.861 575.93L255.074 555.44Z" fill="#89E7D0"/>
<path d="M303.008 595.979L321.546 600.483L310.527 613.512L303.008 595.979Z" fill="#89E7D0"/>
<path d="M350.942 636.517L366.354 640.262L357.193 651.094L350.942 636.517Z" fill="#89E7D0"/>
<path d="M398.876 677.055L411.162 680.041L403.859 688.675L398.876 677.055Z" fill="#89E7D0"/>
<path d="M446.81 717.594L455.969 719.819L450.525 726.257L446.81 717.594Z" fill="#89E7D0"/>
<path d="M64.1596 313.648L75.4279 316.386L68.7303 324.305L64.1596 313.648Z" fill="#89E7D0"/>
<path d="M109.539 352.026L124.951 355.77L115.79 366.602L109.539 352.026Z" fill="#89E7D0"/>
<path d="M154.918 390.404L174.474 395.155L162.85 408.899L154.918 390.404Z" fill="#89E7D0"/>
<path d="M200.272 428.76L224.044 434.536L209.914 451.243L200.272 428.76Z" fill="#89E7D0"/>
<path d="M245.651 467.138L273.567 473.92L256.974 493.54L245.651 467.138Z" fill="#89E7D0"/>
<path d="M292.486 506.747L320.402 513.53L303.81 533.15L292.486 506.747Z" fill="#89E7D0"/>
<path d="M340.778 547.588L364.55 553.364L350.42 570.071L340.778 547.588Z" fill="#89E7D0"/>
<path d="M389.095 588.45L408.651 593.202L397.027 606.946L389.095 588.45Z" fill="#89E7D0"/>
<path d="M437.386 629.291L452.798 633.036L443.638 643.867L437.386 629.291Z" fill="#89E7D0"/>
<path d="M485.678 670.132L496.946 672.87L490.249 680.789L485.678 670.132Z" fill="#89E7D0"/>
<path d="M58.0321 228.132L66.1743 230.111L61.3347 235.833L58.0321 228.132Z" fill="#89E7D0"/>
<path d="M103.054 266.208L116.357 269.44L108.45 278.79L103.054 266.208Z" fill="#89E7D0"/>
<path d="M148.05 304.261L166.588 308.766L155.569 321.794L148.05 304.261Z" fill="#89E7D0"/>
<path d="M193.046 342.315L216.818 348.091L202.688 364.799L193.046 342.315Z" fill="#89E7D0"/>
<path d="M238.067 380.39L267.001 387.421L249.803 407.756L238.067 380.39Z" fill="#89E7D0"/>
<path d="M283.063 418.444L317.231 426.746L296.923 450.76L283.063 418.444Z" fill="#89E7D0"/>
<path d="M329.899 458.054L364.067 466.355L343.758 490.369L329.899 458.054Z" fill="#89E7D0"/>
<path d="M378.573 499.218L407.507 506.249L390.31 526.584L378.573 499.218Z" fill="#89E7D0"/>
<path d="M427.223 540.362L450.995 546.138L436.865 562.845L427.223 540.362Z" fill="#89E7D0"/>
<path d="M475.897 581.527L494.435 586.031L483.417 599.06L475.897 581.527Z" fill="#89E7D0"/>
<path d="M524.572 622.692L537.876 625.924L529.968 635.274L524.572 622.692Z" fill="#89E7D0"/>
<path d="M573.221 663.835L581.363 665.813L576.524 671.536L573.221 663.835Z" fill="#89E7D0"/>
<path d="M97.2838 180.994L106.444 183.22L100.999 189.658L97.2838 180.994Z" fill="#89E7D0"/>
<path d="M141.922 218.746L157.334 222.49L148.174 233.322L141.922 218.746Z" fill="#89E7D0"/>
<path d="M186.56 256.497L208.225 261.761L195.348 276.986L186.56 256.497Z" fill="#89E7D0"/>
<path d="M231.199 294.248L259.115 301.031L242.522 320.651L231.199 294.248Z" fill="#89E7D0"/>
<path d="M275.837 332L310.005 340.301L289.697 364.315L275.837 332Z" fill="#89E7D0"/>
<path d="M320.476 369.751L360.896 379.572L336.871 407.98L320.476 369.751Z" fill="#89E7D0"/>
<path d="M367.311 409.36L407.731 419.181L383.706 447.589L367.311 409.36Z" fill="#89E7D0"/>
<path d="M416.343 450.828L450.511 459.129L430.203 483.143L416.343 450.828Z" fill="#89E7D0"/>
<path d="M465.376 492.295L493.292 499.078L476.699 518.697L465.376 492.295Z" fill="#89E7D0"/>
<path d="M514.408 533.762L536.072 539.026L523.196 554.252L514.408 533.762Z" fill="#89E7D0"/>
<path d="M563.44 575.23L578.853 578.974L569.692 589.806L563.44 575.23Z" fill="#89E7D0"/>
<path d="M612.473 616.697L621.633 618.923L616.188 625.36L612.473 616.697Z" fill="#89E7D0"/>
<path d="M136.893 134.159L146.053 136.385L140.609 142.822L136.893 134.159Z" fill="#89E7D0"/>
<path d="M181.531 171.91L196.943 175.655L187.783 186.487L181.531 171.91Z" fill="#89E7D0"/>
<path d="M226.17 209.662L247.834 214.925L234.957 230.151L226.17 209.662Z" fill="#89E7D0"/>
<path d="M270.808 247.413L298.724 254.196L282.132 273.815L270.808 247.413Z" fill="#89E7D0"/>
<path d="M315.447 285.164L349.615 293.466L329.306 317.48L315.447 285.164Z" fill="#89E7D0"/>
<path d="M360.085 322.915L400.505 332.736L376.48 361.144L360.085 322.915Z" fill="#89E7D0"/>
<path d="M406.92 362.525L447.34 372.346L423.316 400.754L406.92 362.525Z" fill="#89E7D0"/>
<path d="M455.953 403.992L490.121 412.294L469.812 436.308L455.953 403.992Z" fill="#89E7D0"/>
<path d="M504.985 445.46L532.901 452.242L516.308 471.862L504.985 445.46Z" fill="#89E7D0"/>
<path d="M554.017 486.927L575.681 492.191L562.805 507.416L554.017 486.927Z" fill="#89E7D0"/>
<path d="M603.05 528.394L618.462 532.139L609.301 542.971L603.05 528.394Z" fill="#89E7D0"/>
<path d="M652.082 569.862L661.242 572.087L655.798 578.525L652.082 569.862Z" fill="#89E7D0"/>
<path d="M176.86 87.6261L185.002 89.6044L180.163 95.3268L176.86 87.6261Z" fill="#89E7D0"/>
<path d="M221.882 125.701L235.185 128.934L227.278 138.284L221.882 125.701Z" fill="#89E7D0"/>
<path d="M266.878 163.755L285.416 168.259L274.397 181.288L266.878 163.755Z" fill="#89E7D0"/>
<path d="M311.874 201.809L335.646 207.585L321.516 224.292L311.874 201.809Z" fill="#89E7D0"/>
<path d="M356.895 239.884L385.829 246.914L368.631 267.25L356.895 239.884Z" fill="#89E7D0"/>
<path d="M401.891 277.938L436.059 286.24L415.751 310.254L401.891 277.938Z" fill="#89E7D0"/>
<path d="M448.727 317.547L482.895 325.849L462.586 349.863L448.727 317.547Z" fill="#89E7D0"/>
<path d="M497.401 358.712L526.335 365.742L509.138 386.078L497.401 358.712Z" fill="#89E7D0"/>
<path d="M546.051 399.856L569.823 405.632L555.693 422.339L546.051 399.856Z" fill="#89E7D0"/>
<path d="M594.725 441.021L613.263 445.525L602.245 458.554L594.725 441.021Z" fill="#89E7D0"/>
<path d="M643.4 482.185L656.704 485.418L648.796 494.768L643.4 482.185Z" fill="#89E7D0"/>
<path d="M692.049 523.329L700.191 525.307L695.352 531.029L692.049 523.329Z" fill="#89E7D0"/>
<path d="M262.206 79.471L273.475 82.2089L266.777 90.1283L262.206 79.471Z" fill="#89E7D0"/>
<path d="M307.586 117.849L322.998 121.594L313.837 132.425L307.586 117.849Z" fill="#89E7D0"/>
<path d="M352.965 156.227L372.521 160.978L360.897 174.722L352.965 156.227Z" fill="#89E7D0"/>
<path d="M398.318 194.583L422.091 200.359L407.961 217.066L398.318 194.583Z" fill="#89E7D0"/>
<path d="M443.698 232.961L471.614 239.744L455.021 259.363L443.698 232.961Z" fill="#89E7D0"/>
<path d="M490.533 272.57L518.449 279.353L501.856 298.973L490.533 272.57Z" fill="#89E7D0"/>
<path d="M538.824 313.411L562.597 319.187L548.467 335.894L538.824 313.411Z" fill="#89E7D0"/>
<path d="M587.142 354.273L606.697 359.025L595.074 372.769L587.142 354.273Z" fill="#89E7D0"/>
<path d="M635.433 395.114L650.845 398.859L641.685 409.691L635.433 395.114Z" fill="#89E7D0"/>
<path d="M683.725 435.955L694.993 438.693L688.295 446.612L683.725 435.955Z" fill="#89E7D0"/>
<path d="M302.556 33.2622L311.716 35.4878L306.272 41.9256L302.556 33.2622Z" fill="#89E7D0"/>
<path d="M348.293 71.9425L360.579 74.9277L353.277 83.5624L348.293 71.9425Z" fill="#89E7D0"/>
<path d="M394.03 110.623L409.442 114.368L400.282 125.199L394.03 110.623Z" fill="#89E7D0"/>
<path d="M439.767 149.303L458.305 153.807L447.286 166.836L439.767 149.303Z" fill="#89E7D0"/>
<path d="M485.504 187.983L507.168 193.247L494.291 208.473L485.504 187.983Z" fill="#89E7D0"/>
<path d="M532.339 227.593L554.003 232.857L541.127 248.082L532.339 227.593Z" fill="#89E7D0"/>
<path d="M580.273 268.131L598.811 272.635L587.793 285.664L580.273 268.131Z" fill="#89E7D0"/>
<path d="M628.207 308.669L643.619 312.414L634.458 323.246L628.207 308.669Z" fill="#89E7D0"/>
<path d="M676.141 349.208L688.427 352.193L681.124 360.828L676.141 349.208Z" fill="#89E7D0"/>
<path d="M724.075 389.746L733.235 391.972L727.79 398.41L724.075 389.746Z" fill="#89E7D0"/>
<path d="M389.001 26.0361L398.161 28.2618L392.717 34.6995L389.001 26.0361Z" fill="#89E7D0"/>
<path d="M435.096 65.0189L446.364 67.7568L439.666 75.6762L435.096 65.0189Z" fill="#89E7D0"/>
<path d="M481.216 104.023L494.519 107.256L486.612 116.606L481.216 104.023Z" fill="#89E7D0"/>
<path d="M527.31 143.006L542.722 146.751L533.562 157.583L527.31 143.006Z" fill="#89E7D0"/>
<path d="M574.146 182.615L589.558 186.36L580.397 197.192L574.146 182.615Z" fill="#89E7D0"/>
<path d="M621.722 222.851L635.026 226.084L627.118 235.434L621.722 222.851Z" fill="#89E7D0"/>
<path d="M669.273 263.066L680.541 265.803L673.843 273.723L669.273 263.066Z" fill="#89E7D0"/>
<path d="M716.849 303.301L726.009 305.527L720.564 311.965L716.849 303.301Z" fill="#89E7D0"/>
<path d="M522.639 58.7219L530.781 60.7002L525.941 66.4227L522.639 58.7219Z" fill="#89E7D0"/>
<path d="M569.117 98.0288L578.277 100.254L572.832 106.692L569.117 98.0288Z" fill="#89E7D0"/>
<path d="M615.952 137.638L625.112 139.864L619.667 146.301L615.952 137.638Z" fill="#89E7D0"/>
<path d="M663.145 177.55L671.287 179.528L666.448 185.251L663.145 177.55Z" fill="#89E7D0"/>
<path fill-rule="evenodd" clip-rule="evenodd" d="M169.836 458.417C171.307 454.377 169.16 450.346 167.968 446.437C163.735 432.884 159.112 419.328 152.575 406.688C150.097 402.458 154.173 397.272 158.893 398.464C166.977 399.597 175.312 398.695 183.409 398.194C186.37 390.531 194.274 387.351 200.495 382.936C207.553 378.531 214.418 373.467 221.76 369.605C222.168 365.953 226.593 365.048 229.299 367.659C236.732 363.034 245.645 363.894 253.611 360.862C259.665 351.074 260.12 340.78 261.722 331.338C262.422 327.22 261.68 323.249 264.49 319.579C273.937 306.29 311.257 300.526 325.019 308.402C332.425 303.781 332.605 312.151 333.779 317.317C335.089 319.901 335.796 322.828 335.576 325.911C343.532 342.536 361.735 350.05 378.036 356.14C380.082 354.17 383.004 354.42 384.95 356.049C399.08 359.12 412.793 364.523 424.632 372.957C438.081 376.893 447.554 387.836 454.403 399.57C455.158 400.807 455.336 402.067 455.115 403.226C476.178 434.114 486.231 471.091 487.643 508.436C501.188 516.569 481.205 589.623 476.553 604.79C476.548 604.787 476.544 604.785 476.539 604.783C473.521 610.128 470.095 625.381 462.542 624.2C457.361 630.061 449.105 628.909 442.074 629.359C443.219 633.753 442.656 638.781 441.294 643.123C439.682 648.29 431.771 648.466 430.65 642.83C360.635 656.439 288.8 645.583 217.999 647.623C197.527 647.77 177.06 648.404 156.637 649.862C153.763 650.068 150.846 647.127 151.044 644.264C155.434 597.534 159.555 536.061 164.466 489.79C165.63 479.237 166.552 468.569 169.836 458.417Z" fill="white" fill-opacity="0.7"/>
<path fill-rule="evenodd" clip-rule="evenodd" d="M332.627 311.287C332.425 310.737 331.607 310.811 331.592 311.427C331.268 324.566 334.539 340.621 345.048 349.496C350.444 354.052 357.575 356.138 364.126 358.533L364.864 358.806L376.437 363.118C379.506 364.262 382.817 366.021 385.528 364.406C383.335 369.848 381.493 375.44 378.821 380.685C375.495 387.216 371.474 393.188 366.552 398.622C347.055 420.148 316.197 426.714 288.505 420.408C274.245 417.159 260.37 411.003 250.642 399.776C243.249 391.242 239.001 379.79 237.999 368.492C238.292 368.539 238.6 368.537 238.914 368.468C242.418 367.703 245.955 365.824 249.037 363.983L249.334 363.805C252.302 362.017 255.393 359.971 257.523 357.195C259.637 354.438 261.855 345.447 261.855 345.447C262.46 342.068 263.027 335.336 262.93 331.921C262.921 331.599 261.491 331.409 261.339 331.743C260.018 334.642 259.59 341.015 258.571 344.031L258.367 344.634C257.277 347.788 256.344 351.624 254.088 354.172C249.848 358.957 243.455 360.982 237.749 363.38C237.339 357.973 228.705 358.099 228.816 363.739C228.822 364.045 228.836 364.35 228.847 364.654C228.164 365.028 227.511 365.456 226.899 365.871L226.301 366.276C224.04 367.814 221.762 369.277 219.356 370.58C214.697 373.108 209.762 375.112 204.989 377.403C200.158 379.725 195.642 382.489 191.422 385.8C189.441 387.353 187.542 389.006 185.74 390.766L185.253 391.249C183.538 392.957 181.306 394.868 180.329 397.112C180.114 397.607 179.035 398.759 178.449 398.797C169.377 399.393 160.324 400.233 151.312 401.491C148.976 401.817 148.054 403.02 148.916 404.966C151.881 411.654 163.487 438.362 166.574 445.529C166.212 450.794 166.7 456.992 166.374 462.26C165.9 469.945 165.277 477.628 164.533 485.291C161.862 512.708 157.818 539.992 154.162 567.29C152.333 580.949 150.665 594.631 149.018 608.315C148.187 615.232 147.48 622.152 146.937 629.097C146.711 631.992 146.505 634.888 146.326 637.784L146.168 640.355C145.953 643.588 145.459 646.675 147.46 649.452C148.367 650.711 150.439 651.42 151.631 649.988C153.129 648.191 153.687 646.848 153.829 644.486C153.94 642.677 153.967 640.862 154.049 639.052C154.226 635.129 154.45 631.207 154.711 627.289C155.234 619.455 155.832 611.624 156.524 603.801C158.946 576.378 163.553 549.16 166.618 521.803C168.163 508.012 169.262 494.195 169.842 480.327C170.133 473.402 170.239 466.477 170.17 459.547C170.144 456.957 170.022 454.38 169.845 451.809C174.436 462.244 179.263 472.58 184.311 482.776L185.505 485.192C188.705 491.638 191.99 498.107 195.832 504.183L196.495 505.22C198.05 507.689 200.178 511.58 203.019 512.358C204.996 512.901 207.413 512.52 209.441 512.48C211.455 512.442 213.47 512.433 215.482 512.351C217.738 512.261 219.89 511.964 222.07 511.376C222.434 511.279 222.775 511.173 223.087 511.037C225.283 514.634 229.018 517.373 232.834 518.969C235.889 520.247 239.094 521.123 242.303 521.934L243.435 522.22C246.874 523.075 250.81 523.483 252.751 526.807L253.201 527.578C254.644 530.029 256.027 532.183 258.416 533.94C260.984 535.833 264.029 537.023 267.063 537.949C270.167 538.898 273.345 539.622 276.499 540.4L277.358 540.615C279.439 541.136 281.54 541.614 283.61 542.18C284.492 542.423 285.389 542.671 286.256 542.968C287.271 543.319 288.007 543.861 288.807 544.453C289.527 546.966 292.6 548.331 295.127 548.156C296.454 548.065 297.644 547.615 298.728 546.955C300.62 548.564 302.701 550.007 304.629 551.498C307.328 553.588 310.038 555.662 312.762 557.716C318.38 561.953 324.042 566.133 329.761 570.23C339.913 577.506 350.286 584.446 360.835 591.13C365.234 593.915 369.662 596.699 374.133 599.413L373.656 599.591L372.71 599.948C370.472 600.783 367.979 602.135 367.546 604.745C367.202 606.817 368.358 608.244 370.403 608.497C372.832 608.796 374.722 607.081 376.235 605.441C376.903 604.719 377.65 604.047 378.289 603.303C378.55 602.999 378.751 602.649 378.927 602.281C383.34 604.883 387.8 607.396 392.33 609.747L393.465 610.332C404.699 616.078 415.635 622.374 426.965 627.958C429.921 629.417 433.524 630.992 437.28 632.067C436.284 635.932 436.299 640.175 436.274 644.098C436.25 647.92 442.323 647.903 442.195 644.098L442.133 642.261C442.022 639.169 441.842 635.963 441.109 632.958C452.176 634.793 463.232 630.804 465.29 629.605C467.562 628.282 469.625 626.168 471.341 624.207C475.014 620.005 477.563 614.972 479.824 609.909C484.668 599.063 488.1 587.469 490.609 575.875C499.858 533.129 495.88 487.379 480.858 446.404C477.105 436.166 472.674 426.154 467.597 416.505L466.966 415.311C461.9 405.768 456.269 396.261 449.116 388.142C441.665 379.683 432.474 373.106 422.467 368C417.584 365.507 412.559 363.349 407.423 361.434C406.598 361.126 405.767 360.851 404.935 360.588C399.583 357.175 393.087 353.908 386.589 354.037C386.148 354.046 385.79 354.212 385.523 354.465C385.21 354.52 384.897 354.586 384.583 354.677C383.891 354.879 383.159 355.639 383.259 356.419L383.292 356.678C383.311 356.805 383.334 356.927 383.373 357.046C383.141 357.082 382.913 357.137 382.69 357.212C376.473 355.455 370.356 352.769 364.29 350.604L362.909 350.115C357.828 348.335 352.613 346.589 348.445 343.063C344.299 339.555 341.181 335.012 338.927 330.101C336.15 324.052 334.907 317.499 332.627 311.287ZM208.156 630.392C206.926 629.476 205.47 630.538 205.009 631.672C203.497 635.393 204.244 641.175 206.376 644.466C208.583 647.874 213.871 646.529 213.999 642.4C214.132 638.095 211.63 632.98 208.156 630.392ZM195.44 527.638C195.331 527.155 194.58 527.159 194.467 527.638C193.443 532.006 193.465 536.708 193.166 541.184L193.131 541.681C192.77 546.618 192.466 551.569 192.249 556.513C191.826 566.244 191.318 575.974 190.749 585.698C190.467 590.518 190.164 595.34 189.842 600.158C188.832 599.595 187.79 599.101 186.711 598.664C185.095 598.011 183.522 597.935 181.785 597.953C179.671 597.975 178.079 599.837 178.359 601.909C178.664 604.165 180.65 605.133 182.713 604.812C184.998 604.453 187.292 603.899 189.598 603.668C189.341 607.396 189.075 611.121 188.796 614.844C188.422 619.774 187.936 624.696 187.593 629.629C187.562 630.099 187.526 630.569 187.489 631.043C186.115 630.327 184.654 629.959 182.999 629.51L182.567 629.388C180.165 628.698 177.592 627.743 175.367 629.359C173.873 630.447 173.574 632.235 174.813 633.669C176.69 635.845 179.469 635.424 182.064 635.311L183.46 635.26C184.776 635.209 185.988 635.125 187.205 634.793C186.981 638.006 186.864 641.23 187.258 644.397C187.471 646.108 189.723 646.555 190.319 644.809C191.874 640.249 192.198 635.329 192.767 630.551C193.299 626.09 193.623 621.594 193.971 617.113L194.077 615.768C194.859 605.909 195.486 596.041 195.945 586.161C196.404 576.28 196.679 566.403 196.787 556.513C196.838 552.023 196.763 547.516 196.588 543.026L196.532 541.681C196.329 537.063 196.47 532.163 195.44 527.638ZM401.17 631.118C401.11 630.489 400.605 629.705 399.853 629.802C399.161 629.893 398.447 629.849 397.762 629.964C396.858 630.112 396.131 630.649 395.29 630.983C393.923 631.531 392.434 631.812 391.031 632.26C388.401 633.1 386.967 635.87 388.056 638.458C389.202 641.177 392.081 641.795 394.569 640.654C396.529 639.754 397.991 638.316 399.309 636.652L399.683 636.178C400.251 635.462 400.895 634.664 401.134 633.8C401.365 632.956 401.251 631.978 401.17 631.118ZM273.358 618.334C270.081 617.871 267.282 618.992 264.25 620.049L264.004 620.133C260.92 621.199 256.417 621.937 254.834 625.097C253.882 627.001 254.622 629.532 256.867 630.097C260.423 630.988 263.612 628.388 266.553 626.638L266.706 626.547C269.545 624.882 272.474 623.484 274.287 620.617C274.77 619.852 274.351 618.474 273.358 618.334ZM387.744 357.647C389.056 357.939 390.369 358.201 391.68 358.449C396.669 361.124 401.511 363.901 406.661 366.283C412.126 368.811 417.57 371.424 422.761 374.482C433.248 380.663 441.893 388.698 449.036 398.546C461.376 415.561 470.554 435.18 477.123 455.089C478.811 460.203 480.321 465.376 481.658 470.59C479.295 468.405 476.498 467.06 473.362 465.91C472.033 465.422 470.378 466.249 469.704 467.399C469.401 467.915 469.231 468.427 469.262 469.034C469.332 470.373 470.203 471.893 471.64 472.159C474.991 472.777 478.249 473.978 481.48 475.038C481.969 475.197 482.39 475.137 482.726 474.949C485.934 488.54 487.94 502.41 488.651 516.365C489.252 528.178 488.882 540.085 487.574 551.884C486.568 551.432 485.585 551.008 484.483 550.751C483.054 550.419 481.648 550.013 480.253 549.557C476.23 548.236 474.395 554.882 478.507 555.895C480.038 556.271 481.578 556.584 483.137 556.814C484.496 557.014 485.698 556.925 486.98 556.717C486.001 564.076 484.664 571.383 482.961 578.587L482.585 580.163C480.372 589.361 477.794 598.647 474.065 607.342C472.235 611.606 469.814 615.657 466.823 619.212C465.354 620.96 463.724 622.46 461.945 623.881C460.465 625.062 455.433 627.626 449.473 627.626C443.513 627.626 441.9 627.063 438.893 626.028C432.947 623.981 427.301 620.712 421.724 617.8L421.148 617.501C418.682 616.224 416.225 614.928 413.775 613.623C414.085 611.123 413.543 609.024 412.242 606.718C410.835 604.22 407.349 605.463 407.089 608.018L407.081 608.116C407.042 608.69 406.945 609.277 406.826 609.862C390.444 600.885 374.409 591.278 358.628 581.268C348.465 574.822 338.408 568.18 328.498 561.346C323.543 557.929 318.632 554.45 313.77 550.904C311.224 549.047 308.689 547.174 306.165 545.284C305.114 544.497 304.084 543.671 303.031 542.88C303.286 542.561 303.537 542.242 303.778 541.925C307.712 536.772 310.262 530.632 311.534 524.296C312.303 520.473 312.673 516.504 312.786 512.606L312.835 510.911C312.913 508.057 312.935 505.067 312.407 502.302C313.123 502.694 313.855 503.082 314.584 503.494C317.201 504.976 319.818 506.455 322.439 507.928C327.692 510.873 332.957 513.787 338.291 516.582C347.818 521.575 357.438 526.324 367.318 530.581L372.125 532.653C380.469 536.245 388.88 539.768 397.555 542.439C402.448 543.943 407.378 545.229 412.341 546.377L410.334 548.73C408.973 550.323 408.949 552.613 410.689 553.956C412.398 555.274 414.693 554.725 415.832 552.972L417.908 549.778C418.352 549.094 418.604 548.455 418.746 547.782C421.033 548.26 423.325 548.719 425.623 549.162L429.968 549.993C436.173 551.19 442.188 553.563 447.734 556.599C449.662 557.654 450.199 555.604 448.156 554.175C442.184 549.998 435.217 547.635 428.028 545.65L427.675 545.555C425.038 544.832 422.405 544.079 419.778 543.299C420.067 542.253 420.234 541.167 420.201 539.972C420.126 537.306 419.891 534.634 419.75 531.97C419.453 526.381 419.074 520.81 418.63 515.232C418.46 513.085 418.269 510.929 418.05 508.777C419.459 508.021 420.674 507.017 422.244 506.523L422.51 506.448C424.189 505.994 423.623 503.829 422.13 503.642C420.779 503.476 419.434 503.554 418.101 503.84C417.895 503.884 417.699 503.935 417.513 503.99C417.268 501.996 416.997 500.008 416.688 498.029C415.872 492.804 415.295 487.297 413.596 482.275C413.471 481.905 412.919 481.772 412.714 482.16C410.243 486.862 410.157 492.633 409.878 497.87L409.844 498.494C409.516 504.207 409.497 509.976 409.603 515.698C409.712 521.592 409.913 527.474 410.178 533.364C410.284 535.737 410.28 538.197 410.684 540.466C395.979 535.684 381.535 529.96 367.689 523.181C357.923 518.401 348.241 513.428 338.668 508.27C333.872 505.686 329.054 503.144 324.263 500.549C322.584 499.64 320.906 498.727 319.231 497.814L316.715 496.442C314.362 495.157 312.399 493.878 309.657 493.79C308.842 493.763 308.108 494.144 307.588 494.725C306.116 493.679 304.412 493.039 302.626 493.054C299.938 489.338 297.208 485.652 294.367 482.047L292.27 479.377C288.64 474.772 284.795 470.096 280.166 466.59C278.099 465.028 275.827 463.853 273.456 462.885C274.014 462.747 274.56 462.473 275.047 462.023C277.31 459.922 277.622 456.022 278.081 453.092C278.56 450.054 278.376 447.335 277.904 444.305C277.72 443.129 275.772 442.885 275.295 443.966C274.294 446.245 273.232 448.43 272.321 450.734L272.051 451.43C271.071 454.025 268.986 456.753 269.126 459.567C269.161 460.341 269.421 461.012 269.819 461.553C267.829 460.893 265.813 460.303 263.825 459.687C257.571 457.755 251.295 455.875 244.92 454.377C243.225 453.979 241.518 453.606 239.807 453.267C238.91 449.008 237.602 444.826 236.062 440.72C237.52 439.971 238.465 438.717 239.721 437.602C240.898 436.558 241.707 435.286 242.71 434.087C243.623 432.997 243.109 431.025 241.467 431.089L241.004 431.109C239.302 431.189 237.656 431.364 236.113 432.157L235.564 432.441C234.81 432.833 233.986 433.281 233.252 433.81C232.291 431.601 231.293 429.411 230.283 427.244L228.975 424.443C225.578 417.148 222.192 409.578 217.931 402.786C216.036 399.767 213.512 397.881 209.893 397.591C206.166 397.29 202.29 397.678 198.558 397.811C194.23 397.966 189.904 398.15 185.581 398.378C186.689 397.217 187.699 395.925 188.812 394.81C190.66 392.962 192.612 391.209 194.664 389.591C198.724 386.387 203.189 383.747 207.825 381.474C212.464 379.2 217.239 377.217 221.594 374.407C224.348 372.63 226.81 370.394 229.057 367.974C230.471 383.236 237.84 397.418 248.909 408.073C260.406 419.138 276.292 425.216 291.834 427.803C307.687 430.44 324.232 429.471 339.397 423.96C347.215 421.117 354.714 417.057 361.402 411.962C361.475 412.405 361.564 412.844 361.739 413.256C361.972 413.808 362.255 414.28 362.583 414.766L363.166 415.619C363.534 416.155 363.908 416.687 364.325 417.183C365.337 418.389 366.769 418.916 368.312 418.91C371.265 418.901 373.502 416.002 372.707 413.137C372.208 411.337 371.139 410.254 369.47 409.547C368.943 409.325 368.406 409.139 367.865 408.955L367.459 408.818C366.913 408.629 366.371 408.452 365.808 408.348C368.975 405.551 371.913 402.511 374.545 399.229C382.797 388.94 390.937 374.527 388.178 360.86C388.13 360.627 387.919 360.479 387.691 360.441C387.532 359.482 387.021 358.555 386.322 357.93C386.793 357.806 387.267 357.711 387.744 357.647ZM302.047 593.933C300.414 593.022 298.726 595.183 300.053 596.517L302.036 598.503C303.878 600.353 305.668 602.223 307.244 604.331L307.625 604.847C309.753 607.741 312.02 611.094 315.503 612.176C319.718 613.485 323.769 608.349 321.329 604.597C319.195 601.319 315.091 600.083 311.552 598.726C308.204 597.443 305.179 595.673 302.047 593.933ZM438.008 578.802C437.048 577.545 434.544 578.208 435.2 579.988C437.331 585.765 438.199 593.645 443.58 597.485C445.316 598.722 448.044 598.155 449.473 596.723C451.097 595.099 451.162 592.812 450.233 590.828C449.1 588.411 446.314 586.658 444.361 584.816L444.186 584.648C442.084 582.607 439.812 581.164 438.008 578.802ZM213.102 585.455C211.387 584.714 206.919 583.278 205.596 584.978C205.534 585.04 205.481 585.109 205.439 585.184C205.115 585.749 205.066 586.545 205.439 587.103C206.981 589.423 208.588 591.154 210.782 592.805L211.028 592.989C213.414 594.744 215.659 596.807 218.567 597.598C222.6 598.698 225.416 593.645 222.584 590.698C220.302 588.32 216.82 587.088 213.795 585.763L213.102 585.455ZM375.036 552.435C375.711 551.214 374.333 549.718 373.084 550.481C369.524 552.659 365.376 554.292 361.378 555.465C359.758 555.939 358.297 557.581 358.419 559.352L358.437 559.62C358.486 560.245 358.572 560.867 358.969 561.386C360.363 563.21 362.355 563.912 364.482 562.833C369.224 560.429 372.47 557.074 375.036 552.435ZM270.972 548.741C271.058 548.227 270.684 547.833 270.161 547.93C267.153 548.502 264.372 549.956 261.791 551.627C260.403 552.524 259.067 553.508 257.684 554.412C255.976 555.531 255.338 556.453 255.085 558.505C254.919 559.859 256.182 561.096 257.341 561.468C260.499 562.487 264.118 559.146 266.256 556.972L266.353 556.874C268.592 554.592 270.44 551.89 270.972 548.741ZM180.597 545.193C181.284 543.341 178.919 541.803 177.375 542.714C175.919 543.571 174.339 544.28 172.967 545.262C171.704 546.166 170.554 547.234 169.344 548.214L168.745 548.686C166.527 550.472 162.864 554.884 166.037 557.446C169.056 559.881 173.06 556.77 175.088 554.494L175.23 554.335C176.395 552.985 177.833 551.522 178.678 549.947C179.475 548.466 180.016 546.767 180.597 545.193ZM210.378 401.757C214.161 402.493 215.703 407.162 217.295 410.207C221.055 417.392 224.512 424.709 227.983 432.035C229.053 434.287 230.092 436.558 231.143 438.825C231.207 439.002 231.289 439.178 231.386 439.35C233.538 443.984 235.754 448.587 238.343 452.984C235.974 452.54 233.591 452.161 231.2 451.864C231.32 449.613 229.78 446.599 229.018 444.702L228.953 444.543C228.003 442.112 227.005 438.284 224.559 437.024C223.743 436.605 222.87 437.13 222.808 438.03C222.622 440.702 225.237 443.765 226.516 446.034C227.289 447.408 228.04 448.786 228.776 450.18C229.051 450.703 229.281 451.215 229.563 451.676C228.331 451.541 227.096 451.423 225.857 451.337L225.051 451.282C220.461 450.978 215.588 450.892 211.442 453.156C207.595 455.255 205.627 459.738 207.741 463.82C210.374 468.906 216.171 469.579 221.27 469.992C227.639 470.504 234.021 471.432 240.344 472.336C246.885 473.274 253.044 475.685 259.486 476.926C260.087 477.041 260.459 476.256 259.909 475.922C254.828 472.826 248.649 471.124 242.968 469.389L242.507 469.247C239.424 468.301 236.412 467.219 233.224 466.681C230.13 466.16 227.014 465.739 223.894 465.418L223.59 465.389C220.153 465.101 211.384 465.198 211.754 460.108C212 456.738 217.474 456.157 219.974 456.117C231.433 455.933 242.972 458.976 253.862 462.236L256.293 462.965C260.751 464.308 265.217 465.688 269.593 467.262C274.551 469.043 278.458 471.822 282.068 475.627C286.072 479.846 289.95 484.159 294.103 488.236C296.722 490.805 299.375 493.329 302.047 495.833C302.652 496.615 303.135 497.466 303.47 498.57C304.035 500.436 303.904 502.169 303.692 504.083C303.153 508.921 303.034 513.81 302.36 518.632C301.735 523.099 300.86 527.733 299.005 531.877C298.271 533.517 297.316 535.13 296.226 536.571L295.348 537.714C294.965 538.211 294.537 538.753 294.087 539.263C293.427 538.459 292.472 537.934 291.362 538.067C289.004 538.344 287.149 538.277 284.835 537.734C283.043 537.315 281.265 536.823 279.484 536.369C275.98 535.476 272.448 534.663 268.982 533.637L268.386 533.457C265.802 532.664 263.218 531.671 261.068 530.002C258.571 528.065 257.802 525.269 255.951 522.849C252.002 517.686 243.464 517.794 237.684 516.38C232.771 515.179 228.045 513.282 224.645 509.717L224.448 509.504C224.599 508.868 224.355 508.15 223.763 507.82L223.635 507.749C223.404 507.62 223.156 507.567 222.912 507.571C222.598 507.108 222.292 506.63 222.015 506.12C221.789 505.699 221.219 506.009 221.295 506.424C221.339 506.672 221.401 506.913 221.459 507.155C218.166 506.308 214.549 506.47 211.207 506.472L206.868 506.457C206.117 506.448 204.998 506.41 204.898 506.364L204.796 506.319C204.526 506.202 204.909 506.395 204.721 506.144C204.512 505.867 204.309 505.588 204.107 505.304C203.387 504.298 202.706 503.261 202.042 502.215C209.306 504.068 216.834 505.22 224.251 506.18C232.211 507.212 240.275 507.928 248.304 507.935C250.518 507.937 250.498 504.593 248.304 504.511C239.801 504.185 231.342 503.735 222.897 502.645C218.529 502.08 214.179 501.373 209.855 500.544C208.184 500.225 206.52 499.886 204.858 499.529L203.613 499.257C202.83 499.084 200.623 498.836 199.546 498.113C199.334 497.75 199.123 497.387 198.912 497.023C199.017 495.747 202.259 495.917 203.019 495.915C205.175 495.911 207.331 495.928 209.49 495.935C213.802 495.946 218.112 495.908 222.427 495.875C231.043 495.804 239.692 495.503 248.302 495.871C250.391 495.962 251.488 492.609 249.423 491.727C240.304 487.831 230.181 486.984 220.444 485.788C215.322 485.158 210.199 484.431 205.195 483.157L203.956 482.843C200.812 482.036 197.339 481.052 194.691 479.131C198.671 477.52 203.619 477.704 207.743 477.475L208.06 477.458C213.838 477.103 219.624 476.921 225.412 476.912C237.255 476.897 249.099 477.316 260.929 477.879C261.226 477.892 261.288 477.422 260.997 477.36C248.84 474.707 236.483 473.429 224.04 473.232C218.247 473.138 212.448 473.22 206.66 473.478L204.535 473.575C199.599 473.788 194.121 473.845 189.991 476.828C189.361 477.282 189.029 477.863 188.978 478.477C183.438 467.432 178.323 456.155 173.186 444.953C169.193 436.243 165.348 427.461 161.211 418.819L159.87 416.024C158.075 412.292 156.238 408.563 154.197 404.966C161.829 403.947 169.503 403.238 177.182 402.695C184.18 402.201 207.01 401.106 210.378 401.757ZM213.758 521.471C212.889 520.985 211.555 521.38 211.34 522.454C211.181 523.252 210.908 524.141 210.908 524.959C210.908 525.938 211.258 527.002 211.444 527.961C211.874 530.166 212.404 531.957 213.523 533.92C214.223 535.148 215.639 535.981 217.062 535.95C218.188 535.924 219.187 535.622 219.958 534.749C220.885 533.703 221.521 532.167 221.013 530.76C219.684 527.075 217.237 523.403 213.758 521.471ZM398.36 517.792C396.323 514.224 391.496 511.035 387.283 511.35C380.958 511.824 379.667 520.345 385.791 522.377C389.452 523.593 394.488 522.346 397.69 520.345C398.554 519.806 398.87 518.687 398.36 517.792ZM463.371 505.601C463.834 504.928 463.069 504.161 462.38 504.312C460.851 504.646 459.203 504.795 457.706 505.249C456.173 505.717 454.689 506.49 453.17 507.022C449.988 508.137 446.59 508.697 443.51 510.042C442.28 510.581 441.311 512.365 441.425 513.679L441.454 513.987C441.522 514.638 441.635 515.208 442 515.804C442.98 517.406 444.922 518.233 446.754 517.739C450.154 516.826 453.475 514.479 456.374 512.529L456.909 512.174C458.176 511.339 459.537 510.466 460.558 509.393C461.623 508.27 462.498 506.871 463.371 505.601ZM346.515 492.622C346.907 491.213 345.152 490.282 344.13 491.235C342.089 493.138 339.953 494.902 337.952 496.855L337.819 496.988C336.387 498.428 334.302 501.203 336.166 503.064C338.552 505.453 341.876 501.909 343.157 500.063C344.779 497.721 345.755 495.361 346.515 492.622ZM190.234 480.968C193.264 484.177 197.931 485.652 202.042 486.876C206.915 488.325 211.934 489.189 216.96 489.903C221.818 490.59 226.635 491.204 231.415 491.993C227.801 492.039 224.184 492.066 220.579 492.13C216.419 492.205 212.262 492.296 208.102 492.416C205.073 492.505 201.521 492.088 198.642 493.214C198.124 493.418 197.64 493.699 197.217 494.04C194.797 489.737 192.477 485.373 190.234 480.968ZM377.104 450.947C373.942 449.943 370.968 448.609 367.616 448.957C366.725 449.048 366.087 449.914 366.573 450.772C368.162 453.569 370.745 455.149 373.288 457.019L373.512 457.185C376.295 459.255 379.284 461.143 382.311 462.843C387.522 465.768 392.192 457.393 386.929 454.938C383.762 453.458 380.436 452.006 377.104 450.947ZM320.172 443.678C315.335 443.997 310.499 444.212 305.657 444.41C300.046 444.636 301.932 453.274 306.619 451.525C311.248 449.799 315.88 448.093 320.551 446.482C321.974 445.992 321.859 443.654 320.263 443.674L320.172 443.678ZM444.253 428.312C442.999 428.226 441.735 428.498 440.479 428.62L439.143 428.751C436.389 429.024 433.806 429.363 431.179 430.484C426.333 432.554 428.936 440.348 433.801 440.168C437.397 440.035 440.472 438.491 443.509 436.693C446.164 435.12 447.791 433.152 449.584 430.683C450.177 429.866 449.35 428.95 448.541 428.868C447.117 428.722 445.678 428.412 444.253 428.312ZM201.306 412.397C202.108 417.403 204.1 422.094 207.099 426.18C208.605 428.232 211.254 428.31 212.747 426.18C214.861 423.167 213.558 419.712 211.965 416.818L211.493 415.971C210.782 414.699 209.687 412.844 208.435 411.566L208.415 411.435C207.743 406.192 200.479 407.238 201.306 412.397ZM396.975 380.268C395.769 379.18 393.548 379.508 393.157 381.277C392.609 383.752 392.275 386.544 392.634 389.057C392.828 390.42 392.901 391.949 393.437 393.219C394.013 394.584 395.12 395.634 396.164 396.663C398.247 398.71 402.639 398.034 403.197 394.803L403.268 394.409C403.549 392.88 403.908 391.247 403.492 389.733C403.179 388.59 402.477 387.424 401.897 386.365L401.775 386.139C400.613 383.974 398.802 381.913 396.975 380.268ZM227.451 385.536L227.014 385.54C223.648 385.607 217.494 386.427 217.461 390.588C217.454 391.57 218.179 392.585 219.154 392.811C221.166 393.279 222.467 392.089 223.901 390.888C225.073 389.904 226.44 389.119 227.861 388.556C229.394 387.945 229.292 385.534 227.451 385.536Z" fill="#151515"/>
<path fill-rule="evenodd" clip-rule="evenodd" d="M216.791 263.427C219.728 242.236 226.442 221.662 227.406 200.154C227.98 190.95 228.554 181.746 229.126 172.541C229.343 166.792 236.809 164.853 239.661 169.946C246.141 162.755 257.746 163.814 266.599 164.033C318.721 165.88 368.252 201.134 386.144 250.288C386.574 251.46 386.444 252.708 385.958 253.823C394.297 281.645 364.803 299.557 344.688 311.963C336.529 320.59 326.938 327.757 316.108 332.665C303.649 338.527 289.781 341.798 276.015 342.11C272.995 342.179 271.18 339.734 270.96 337.206C266.568 336.182 259.054 337.363 256.731 332.862C230.249 321.355 212.993 292.189 216.791 263.427Z" fill="white" fill-opacity="0.7"/>
<path fill-rule="evenodd" clip-rule="evenodd" d="M229.183 188.278C229.259 187.591 228.268 187.57 228.062 188.126C226.384 192.701 224.645 197.244 223.315 201.934C222.032 206.454 221.11 211.077 220.175 215.68C218.624 223.319 217.29 231.014 216.188 238.734C213.831 236.892 210.748 236.725 207.845 238.158C206.482 238.83 205.959 240.607 206.287 241.986C206.549 243.093 206.87 244.194 207.256 245.271C206.431 246 205.733 246.897 205.226 247.93C203.889 250.647 204.319 253.497 205.518 256.09C205.427 256.243 205.336 256.4 205.252 256.564C203.517 259.934 204.446 262.955 205.713 266.246C206.662 268.706 206.132 271.478 208.18 273.337C208.893 275.624 209.961 277.754 211.517 279.675C211.869 280.322 212.399 280.843 213.026 281.226C213.183 284.836 213.565 288.437 214.283 292.005C217.066 305.858 225.899 318.201 236.833 326.908C247.534 335.426 260.102 340.517 273.662 342.163C280.248 342.963 286.841 342.711 293.371 341.569L294.185 341.425C300.212 340.331 307.503 338.52 311.671 333.973C313.863 331.582 312.58 326.318 308.706 326.815C306.654 327.079 304.868 327.407 302.936 328.164C301.429 328.756 299.917 329.326 298.371 329.809C295.408 330.731 292.343 331.451 289.265 331.85C282.854 332.679 276.192 332.459 269.854 331.207C258.331 328.933 247.136 323.688 238.391 315.79C228.224 306.609 222.265 294.724 221.39 281.02C220.412 265.756 222.174 250.126 223.637 234.941C224.397 227.042 225.363 219.159 226.526 211.309C227.663 203.639 228.343 195.98 229.183 188.278ZM319.148 138.99L318.654 138.914C299.084 135.935 278.495 136.146 260.099 144.225C256.574 145.775 253.123 147.644 249.875 149.813C247.548 149.569 245.205 149.372 242.907 149.34C240.015 149.302 237.192 150.805 236.835 153.733C234.125 154.07 231.63 155.067 230.032 157.063C229.409 157.84 228.993 158.739 228.782 159.676C227.116 160.07 225.483 160.674 223.934 161.47C222.05 162.44 220.964 165.137 221.629 167.133C221.782 167.586 221.957 168.027 222.152 168.459L222.303 168.781L222.214 168.903C220.711 171.32 221.755 174.49 224.06 175.933C225.786 177.015 227.716 177.877 229.7 178.294C229.536 179.09 229.387 179.891 229.265 180.701C229.219 181.029 229.64 181.263 229.826 180.94C229.826 180.94 229.115 183.155 228.042 185.596C227.621 186.556 228.971 187.408 229.485 186.439C230.852 183.853 231.699 181.202 232.94 178.537C234.087 178.462 235.229 178.2 236.33 177.699C237.05 177.371 237.598 176.818 237.992 176.158C238.014 176.186 238.03 176.219 238.052 176.252C241.746 181.005 248.966 182.673 254.546 184.176C260.538 185.793 266.672 186.79 272.828 187.525C283.579 188.804 294.413 189.043 305.212 189.539C305.927 189.572 306.641 189.608 307.357 189.643C311.742 193.492 317.393 195.885 323.19 196.612C326.127 196.98 329.601 196.887 332.894 196.136C334.087 197.354 335.591 198.256 337.236 198.719C337.533 204.854 340.952 210.663 346.122 214.049L346.029 214.414C344.746 219.652 344.761 225.379 349.366 229.02C349.991 229.513 350.672 229.935 351.387 230.286L351.23 230.647C348.852 236.209 348.092 242.352 352.564 246.966C354.377 248.837 357.559 248.393 358.92 246.248L358.986 246.14C359.062 246.011 359.144 245.889 359.221 245.763C359.343 246.011 359.527 246.219 359.802 246.337C361.501 247.068 362.182 246.53 363.731 245.776C365.165 245.074 366.676 244.548 368.22 244.141C369.48 243.813 370.735 243.578 371.999 243.443C379.986 246.496 385.145 255.864 383.919 264.655C383.254 269.441 380.627 274.181 376.049 276.167C374.045 277.038 371.69 277.404 369.522 277.109C366.587 276.71 364.329 274.862 361.291 275.919C360.092 276.335 359.343 277.277 359.279 278.565C359.17 280.588 359.888 282.106 361.096 283.23C358.964 285.009 357.247 287.482 355.396 289.454C353.085 291.923 350.738 294.392 348.238 296.668C345.878 298.826 343.37 300.832 340.71 302.611L340.431 302.795C337.098 304.967 332.901 306.893 332.742 311.431C332.691 312.798 333.519 314.053 334.643 314.751C338.842 317.355 343.412 313.935 346.703 311.431C348.028 310.423 349.315 309.379 350.556 308.298C351.385 308.362 352.289 308.227 353.229 307.81C353.834 307.549 354.423 307.238 355.004 306.91C356.89 307.385 358.669 306.968 360.134 305.98C362.246 306.498 364.484 306.56 366.385 306.144C368.122 305.758 369.672 304.938 370.95 303.839C373.619 304.69 376.582 304.532 379.214 302.915C380.791 301.946 382.023 300.564 382.692 298.948C383.033 298.414 383.251 297.791 383.267 297.106L383.268 296.845C385.562 296.898 387.861 296.109 389.635 294.294C391.265 292.626 392.06 290.547 392.149 288.433C394.457 287.779 396.569 286.434 398.175 284.36C400.834 280.92 401.189 276.672 399.822 272.878C399.912 272.679 399.991 272.473 400.062 272.267C402.182 269.273 403.582 265.663 403.47 262.042C403.456 261.479 403.381 260.927 403.269 260.38C405.357 259.27 406.892 257.32 407.056 254.842C407.183 252.899 406.485 250.997 405.226 249.559C405.839 248.094 406.111 246.501 405.923 244.91C405.731 243.274 405.155 241.855 404.312 240.671C404.331 240.24 404.308 239.804 404.238 239.359C404.322 238.923 404.392 238.474 404.429 238.015C404.828 232.994 401.363 228.6 397.145 226.282C396.035 225.673 394.837 225.177 393.638 224.755C392.767 224.446 391.456 224.343 390.689 223.776C390.721 223.753 390.403 223.341 390.347 223.121C390.286 222.849 390.221 222.582 390.187 222.306C390.061 221.144 390.155 219.95 390.178 218.784C390.281 213.491 390.118 208.175 389.56 202.911C388.526 193.15 385.974 183.6 381.002 175.071C376.831 167.924 371.119 161.887 364.568 156.88C351.523 146.912 335.241 141.492 319.148 138.99ZM379.607 260.373C381.306 256.291 373.31 256.251 371.196 256.444L371.134 256.451C366.376 256.925 358.937 259.214 356.99 264.016C356.185 266.004 358.57 268.16 360.48 267.507C362.348 266.866 363.396 265.492 364.894 264.289C365.288 263.974 365.698 263.68 366.116 263.396C365.896 264.096 365.544 264.743 365.056 265.226L364.941 265.335C362.638 267.405 366.755 270.656 368.283 267.917C369.097 266.459 369.423 264.859 369.169 263.203C369.094 262.713 368.963 262.268 368.772 261.84C368.924 261.765 369.073 261.683 369.227 261.61L369.501 261.481C371.334 260.65 379.153 257.384 379.09 260.305C379.083 260.628 379.502 260.628 379.607 260.373Z" fill="#151515"/>
<path fill-rule="evenodd" clip-rule="evenodd" d="M269.62 305.261C272.767 303.976 275.575 301.833 277.629 299.096C278.342 298.146 278.526 297.142 278.378 296.222C278.209 295.19 277.598 294.252 276.765 293.625C275.929 292.993 274.883 292.683 273.873 292.843C272.993 292.98 272.12 293.461 271.426 294.458L271.282 294.658C270.061 296.311 268.472 297.665 266.659 298.538C264.913 299.38 262.959 299.775 260.937 299.546C257.086 299.11 254.433 297.027 251.612 294.199C251.262 293.842 250.912 293.472 250.562 293.1C250.34 292.759 250.032 292.541 249.689 292.426C249.31 292.3 248.88 292.306 248.486 292.444C248.107 292.577 247.768 292.827 247.539 293.162C247.324 293.481 247.2 293.873 247.24 294.323C247.499 297.255 249.031 299.872 251.207 301.926C253.625 304.207 256.829 305.787 259.845 306.338C263.167 306.95 266.553 306.514 269.62 305.261ZM258.276 260.036C254.741 262.186 249.354 267.199 253.157 272.528C257.636 277.228 264.08 271.839 267.255 269.404C270.203 267.515 273.511 272.371 270.779 274.576C247.827 291.575 238.511 260.599 256.488 257.508C258.469 257.169 259.202 259.371 258.276 260.036ZM299.406 240.262C299.016 235.411 291.632 234.31 290.896 239.109C290.24 243.409 291.014 247.358 292.951 251.23C294.799 254.928 299.448 253.202 299.8 249.836C300.272 245.322 299.65 243.279 299.406 240.262ZM243.196 238.114C242.165 236.765 240.681 235.845 238.899 236.365C233.334 237.991 234.974 245.893 236.929 249.741C237.99 251.83 241.423 252.36 242.974 250.521C245.503 247.52 246.713 241.531 243.499 238.577C243.411 238.424 243.315 238.27 243.196 238.114ZM293.028 219.037L292.148 218.884C289.429 218.413 286.05 217.961 284.126 220.148C283.105 221.308 282.755 223.463 284.126 224.573C286.537 226.526 289.205 225.769 292.095 225.935C294.477 226.071 296.767 226.466 299.06 227.122C304.095 228.561 308.197 231.189 312.496 234.074C313.059 234.452 313.635 233.73 313.367 233.203C310.885 228.339 306.076 224.345 301.259 221.91C298.686 220.61 295.874 219.532 293.028 219.037ZM248.268 216.859L247.595 216.997C240.273 218.528 230.762 221.586 227.296 228.78C227.163 229.797 227.302 230.015 227.415 230.157L227.453 230.205C227.548 230.326 227.621 230.494 228.062 230.632C228.184 230.603 228.308 230.572 228.435 230.54C230.024 230.123 231.28 229.549 232.497 228.954L233.817 228.303C235.349 227.552 236.893 226.828 238.531 226.294C242.024 225.154 245.618 224.351 249.266 223.922C250.057 223.829 250.819 223.562 251.42 223.105C251.989 222.67 252.426 222.069 252.625 221.269C252.882 220.235 252.809 219.451 252.253 218.518C251.836 217.817 251.238 217.331 250.553 217.052C249.855 216.768 249.059 216.701 248.268 216.859Z" fill="#151515"/>
<path fill-rule="evenodd" clip-rule="evenodd" d="M216.375 262.888C222.059 268.765 231.548 270.452 239.112 267.301C258.531 259.183 249.026 233.868 234.05 227.07C232.18 226.603 229.68 225.497 227.402 225.246C227.196 225.145 226.746 225.437 226.203 225.161C209.691 227.005 205.931 252.648 216.375 262.888ZM279.009 264.393C285.383 272.852 297.236 275.462 306.921 271.529C326.05 263.992 319.266 241.544 306.176 232.743C278.526 222.35 267.109 248.797 279.009 264.393ZM320.481 245.65C320.498 245.641 320.516 245.636 320.534 245.63C320.434 245.585 320.332 245.539 320.232 245.495C320.263 245.581 320.299 245.665 320.332 245.752C320.381 245.716 320.425 245.676 320.481 245.65ZM203.216 236.506C204.776 236.509 207.03 236.766 208.324 237.849C211.509 227.099 223.271 217.15 233.501 224.404C241.556 226.996 247.533 232.743 250.93 240.384C257.055 236.739 266.686 238.296 271.998 243.115C275.477 231.617 284.038 227.59 294.227 226.996C305.349 225.173 316.434 235.979 319.893 244.648C322.77 244.32 327.067 243.405 329.773 245.18C347.333 240.573 378.034 238.033 381.603 240.593C384.148 241.569 385.544 247.578 381.99 247.901C378.894 247.46 382.352 243.5 379.23 243.066C362.599 242.035 346.455 245.386 329.999 246.793C328.529 248.77 323.783 249.43 321.25 248.637C325.239 263.34 316.629 273.346 303.727 276.342C283.752 280.931 266.374 263.055 271.597 244.462C265.545 241.45 258.584 241.579 251.994 243.166C263.007 283.721 197.718 281.902 207.914 239.239C201.129 242.616 199.655 237.188 203.216 236.506Z" fill="#151515"/>
</svg>
