<svg width="671" height="665" viewBox="0 0 671 665" fill="none" xmlns="http://www.w3.org/2000/svg">
<path d="M106.418 703.396L116.384 705.818L110.46 712.822L106.418 703.396Z" fill="#89E7D0"/>
<path d="M163.31 751.511L174.523 754.235L167.858 762.116L163.31 751.511Z" fill="#89E7D0"/>
<path d="M220.641 799.996L231.854 802.721L225.189 810.601L220.641 799.996Z" fill="#89E7D0"/>
<path d="M278.409 848.852L288.376 851.273L282.452 858.278L278.409 848.852Z" fill="#89E7D0"/>
<path d="M39.8039 548.725L51.0165 551.449L44.352 559.329L39.8039 548.725Z" fill="#89E7D0"/>
<path d="M96.2276 596.443L110.021 599.794L101.822 609.488L96.2276 596.443Z" fill="#89E7D0"/>
<path d="M152.683 644.188L168.968 648.144L159.288 659.59L152.683 644.188Z" fill="#89E7D0"/>
<path d="M209.106 691.906L227.972 696.49L216.759 709.749L209.106 691.906Z" fill="#89E7D0"/>
<path d="M266.437 740.391L285.303 744.975L274.089 758.234L266.437 740.391Z" fill="#89E7D0"/>
<path d="M324.674 789.644L340.959 793.6L331.28 805.046L324.674 789.644Z" fill="#89E7D0"/>
<path d="M382.881 838.869L396.674 842.221L388.475 851.915L382.881 838.869Z" fill="#89E7D0"/>
<path d="M441.118 888.122L452.331 890.846L445.666 898.726L441.118 888.122Z" fill="#89E7D0"/>
<path d="M30.9586 442.909L42.1712 445.633L35.5067 453.513L30.9586 442.909Z" fill="#89E7D0"/>
<path d="M86.9445 490.257L101.984 493.911L93.0447 504.481L86.9445 490.257Z" fill="#89E7D0"/>
<path d="M142.93 537.605L161.796 542.189L150.583 555.448L142.93 537.605Z" fill="#89E7D0"/>
<path d="M198.916 584.953L221.608 590.466L208.121 606.415L198.916 584.953Z" fill="#89E7D0"/>
<path d="M254.902 632.301L281.421 638.744L265.659 657.382L254.902 632.301Z" fill="#89E7D0"/>
<path d="M312.233 680.786L338.752 687.23L322.989 705.867L312.233 680.786Z" fill="#89E7D0"/>
<path d="M370.908 730.409L393.6 735.922L380.113 751.871L370.908 730.409Z" fill="#89E7D0"/>
<path d="M429.583 780.031L448.449 784.615L437.236 797.874L429.583 780.031Z" fill="#89E7D0"/>
<path d="M488.259 829.654L503.298 833.308L494.359 843.878L488.259 829.654Z" fill="#89E7D0"/>
<path d="M546.934 879.276L558.146 882.001L551.482 889.881L546.934 879.276Z" fill="#89E7D0"/>
<path d="M78.537 384.811L92.3303 388.163L84.1319 397.857L78.537 384.811Z" fill="#89E7D0"/>
<path d="M134.085 431.789L152.951 436.373L141.737 449.632L134.085 431.789Z" fill="#89E7D0"/>
<path d="M189.633 478.767L213.571 484.583L199.343 501.407L189.633 478.767Z" fill="#89E7D0"/>
<path d="M245.15 525.718L274.249 532.789L256.953 553.24L245.15 525.718Z" fill="#89E7D0"/>
<path d="M300.698 572.696L334.87 580.999L314.559 605.015L300.698 572.696Z" fill="#89E7D0"/>
<path d="M358.029 621.181L392.201 629.484L371.89 653.5L358.029 621.181Z" fill="#89E7D0"/>
<path d="M417.142 671.174L446.241 678.244L428.945 698.696L417.142 671.174Z" fill="#89E7D0"/>
<path d="M476.286 721.193L500.224 727.009L485.996 743.833L476.286 721.193Z" fill="#89E7D0"/>
<path d="M535.399 771.186L554.265 775.77L543.052 789.029L535.399 771.186Z" fill="#89E7D0"/>
<path d="M594.512 821.179L608.306 824.53L600.107 834.224L594.512 821.179Z" fill="#89E7D0"/>
<path d="M71.0363 280.133L81.0031 282.554L75.0791 289.559L71.0363 280.133Z" fill="#89E7D0"/>
<path d="M126.147 326.74L142.432 330.697L132.752 342.142L126.147 326.74Z" fill="#89E7D0"/>
<path d="M181.226 373.321L203.918 378.835L190.43 394.783L181.226 373.321Z" fill="#89E7D0"/>
<path d="M236.305 419.902L265.404 426.973L248.108 447.424L236.305 419.902Z" fill="#89E7D0"/>
<path d="M291.415 466.51L326.833 475.115L305.781 500.007L291.415 466.51Z" fill="#89E7D0"/>
<path d="M346.494 513.091L388.319 523.253L363.459 552.648L346.494 513.091Z" fill="#89E7D0"/>
<path d="M403.825 561.576L445.65 571.739L420.79 601.134L403.825 561.576Z" fill="#89E7D0"/>
<path d="M463.407 611.966L498.824 620.571L477.773 645.463L463.407 611.966Z" fill="#89E7D0"/>
<path d="M522.958 662.329L552.057 669.399L534.761 689.85L522.958 662.329Z" fill="#89E7D0"/>
<path d="M582.54 712.718L605.232 718.232L591.744 734.18L582.54 712.718Z" fill="#89E7D0"/>
<path d="M642.122 763.108L658.407 767.064L648.727 778.51L642.122 763.108Z" fill="#89E7D0"/>
<path d="M701.673 813.471L711.639 815.892L705.715 822.897L701.673 813.471Z" fill="#89E7D0"/>
<path d="M119.084 222.432L130.296 225.156L123.632 233.036L119.084 222.432Z" fill="#89E7D0"/>
<path d="M173.725 268.643L192.591 273.226L181.377 286.485L173.725 268.643Z" fill="#89E7D0"/>
<path d="M228.366 314.853L254.885 321.297L239.123 339.934L228.366 314.853Z" fill="#89E7D0"/>
<path d="M283.008 361.064L317.179 369.367L296.868 393.383L283.008 361.064Z" fill="#89E7D0"/>
<path d="M337.649 407.275L379.474 417.437L354.614 446.832L337.649 407.275Z" fill="#89E7D0"/>
<path d="M392.29 453.486L441.768 465.508L412.359 500.281L392.29 453.486Z" fill="#89E7D0"/>
<path d="M449.621 501.971L499.099 513.993L469.69 548.767L449.621 501.971Z" fill="#89E7D0"/>
<path d="M509.641 552.731L551.465 562.893L526.606 592.288L509.641 552.731Z" fill="#89E7D0"/>
<path d="M569.66 603.491L603.832 611.794L583.521 635.81L569.66 603.491Z" fill="#89E7D0"/>
<path d="M629.68 654.25L656.199 660.694L640.437 679.331L629.68 654.25Z" fill="#89E7D0"/>
<path d="M689.7 705.01L708.566 709.594L697.353 722.853L689.7 705.01Z" fill="#89E7D0"/>
<path d="M749.72 755.77L760.933 758.494L754.268 766.374L749.72 755.77Z" fill="#89E7D0"/>
<path d="M167.569 165.101L178.782 167.825L172.117 175.706L167.569 165.101Z" fill="#89E7D0"/>
<path d="M222.21 211.312L241.076 215.896L229.863 229.155L222.21 211.312Z" fill="#89E7D0"/>
<path d="M276.852 257.523L303.37 263.966L287.608 282.604L276.852 257.523Z" fill="#89E7D0"/>
<path d="M331.493 303.734L365.665 312.037L345.354 336.053L331.493 303.734Z" fill="#89E7D0"/>
<path d="M386.134 349.945L427.959 360.107L403.099 389.502L386.134 349.945Z" fill="#89E7D0"/>
<path d="M440.775 396.155L490.253 408.177L460.845 442.951L440.775 396.155Z" fill="#89E7D0"/>
<path d="M498.106 444.641L547.584 456.662L518.175 491.436L498.106 444.641Z" fill="#89E7D0"/>
<path d="M558.126 495.4L599.951 505.563L575.091 534.958L558.126 495.4Z" fill="#89E7D0"/>
<path d="M618.146 546.16L652.318 554.463L632.007 578.479L618.146 546.16Z" fill="#89E7D0"/>
<path d="M678.166 596.92L704.684 603.363L688.922 622.001L678.166 596.92Z" fill="#89E7D0"/>
<path d="M738.186 647.679L757.051 652.263L745.838 665.522L738.186 647.679Z" fill="#89E7D0"/>
<path d="M798.205 698.439L809.418 701.164L802.754 709.044L798.205 698.439Z" fill="#89E7D0"/>
<path d="M216.492 108.141L226.459 110.562L220.535 117.567L216.492 108.141Z" fill="#89E7D0"/>
<path d="M271.602 154.748L287.887 158.705L278.208 170.15L271.602 154.748Z" fill="#89E7D0"/>
<path d="M326.682 201.33L349.374 206.843L335.886 222.791L326.682 201.33Z" fill="#89E7D0"/>
<path d="M381.761 247.911L410.86 254.981L393.564 275.432L381.761 247.911Z" fill="#89E7D0"/>
<path d="M436.871 294.518L472.289 303.124L451.237 328.016L436.871 294.518Z" fill="#89E7D0"/>
<path d="M491.95 341.099L533.775 351.262L508.915 380.657L491.95 341.099Z" fill="#89E7D0"/>
<path d="M549.281 389.585L591.105 399.747L566.246 429.142L549.281 389.585Z" fill="#89E7D0"/>
<path d="M608.863 439.974L644.28 448.579L623.229 473.471L608.863 439.974Z" fill="#89E7D0"/>
<path d="M668.414 490.337L697.513 497.407L680.217 517.859L668.414 490.337Z" fill="#89E7D0"/>
<path d="M727.996 540.726L750.688 546.24L737.2 562.188L727.996 540.726Z" fill="#89E7D0"/>
<path d="M787.578 591.116L803.863 595.073L794.183 606.518L787.578 591.116Z" fill="#89E7D0"/>
<path d="M847.129 641.479L857.095 643.9L851.171 650.905L847.129 641.479Z" fill="#89E7D0"/>
<path d="M320.963 98.1583L334.757 101.51L326.558 111.204L320.963 98.1583Z" fill="#89E7D0"/>
<path d="M376.511 145.136L395.377 149.72L384.164 162.979L376.511 145.136Z" fill="#89E7D0"/>
<path d="M432.06 192.114L455.998 197.93L441.769 214.754L432.06 192.114Z" fill="#89E7D0"/>
<path d="M487.576 239.065L516.676 246.136L499.38 266.587L487.576 239.065Z" fill="#89E7D0"/>
<path d="M543.125 286.043L577.296 294.346L556.985 318.362L543.125 286.043Z" fill="#89E7D0"/>
<path d="M600.455 334.528L634.627 342.831L614.316 366.847L600.455 334.528Z" fill="#89E7D0"/>
<path d="M659.568 384.521L688.668 391.591L671.372 412.043L659.568 384.521Z" fill="#89E7D0"/>
<path d="M718.712 434.54L742.651 440.357L728.422 457.181L718.712 434.54Z" fill="#89E7D0"/>
<path d="M777.826 484.533L796.691 489.117L785.478 502.376L777.826 484.533Z" fill="#89E7D0"/>
<path d="M836.939 534.526L850.732 537.877L842.533 547.571L836.939 534.526Z" fill="#89E7D0"/>
<path d="M370.355 41.5947L381.568 44.319L374.904 52.1994L370.355 41.5947Z" fill="#89E7D0"/>
<path d="M426.341 88.9427L441.381 92.5968L432.442 103.166L426.341 88.9427Z" fill="#89E7D0"/>
<path d="M482.327 136.291L501.193 140.875L489.98 154.134L482.327 136.291Z" fill="#89E7D0"/>
<path d="M538.313 183.639L561.005 189.152L547.518 205.101L538.313 183.639Z" fill="#89E7D0"/>
<path d="M594.299 230.987L620.818 237.43L605.056 256.068L594.299 230.987Z" fill="#89E7D0"/>
<path d="M651.63 279.472L678.148 285.916L662.386 304.553L651.63 279.472Z" fill="#89E7D0"/>
<path d="M710.305 329.095L732.997 334.608L719.509 350.557L710.305 329.095Z" fill="#89E7D0"/>
<path d="M768.98 378.717L787.846 383.301L776.633 396.56L768.98 378.717Z" fill="#89E7D0"/>
<path d="M827.656 428.34L842.695 431.994L833.756 442.563L827.656 428.34Z" fill="#89E7D0"/>
<path d="M886.331 477.962L897.543 480.687L890.879 488.567L886.331 477.962Z" fill="#89E7D0"/>
<path d="M476.171 32.7493L487.384 35.4737L480.719 43.354L476.171 32.7493Z" fill="#89E7D0"/>
<path d="M532.595 80.4677L546.388 83.8191L538.19 93.5131L532.595 80.4677Z" fill="#89E7D0"/>
<path d="M589.05 128.212L605.335 132.169L595.656 143.615L589.05 128.212Z" fill="#89E7D0"/>
<path d="M645.474 175.931L664.339 180.515L653.126 193.774L645.474 175.931Z" fill="#89E7D0"/>
<path d="M702.804 224.416L721.67 229L710.457 242.259L702.804 224.416Z" fill="#89E7D0"/>
<path d="M761.042 273.668L777.327 277.625L767.647 289.07L761.042 273.668Z" fill="#89E7D0"/>
<path d="M819.248 322.894L833.041 326.245L824.843 335.94L819.248 322.894Z" fill="#89E7D0"/>
<path d="M877.485 372.146L888.698 374.871L882.034 382.751L877.485 372.146Z" fill="#89E7D0"/>
<path d="M639.756 72.7596L649.722 75.1812L643.798 82.186L639.756 72.7596Z" fill="#89E7D0"/>
<path d="M696.648 120.875L707.861 123.599L701.196 131.479L696.648 120.875Z" fill="#89E7D0"/>
<path d="M753.979 169.36L765.192 172.084L758.527 179.965L753.979 169.36Z" fill="#89E7D0"/>
<path d="M811.747 218.215L821.714 220.637L815.79 227.642L811.747 218.215Z" fill="#89E7D0"/>
</svg>
