<svg width="100" height="100" viewBox="0 0 100 100" fill="none" xmlns="http://www.w3.org/2000/svg">
<path d="M25 91.6666V16.6666C25 14.4564 25.878 12.3368 27.4408 10.774C29.0036 9.21123 31.1232 8.33325 33.3333 8.33325H66.6667C68.8768 8.33325 70.9964 9.21123 72.5592 10.774C74.122 12.3368 75 14.4564 75 16.6666V91.6666H25Z" stroke="black" stroke-width="8.33333" stroke-linecap="round" stroke-linejoin="round"/>
<path d="M25 50H16.6667C14.4566 50 12.337 50.878 10.7742 52.4408C9.21135 54.0036 8.33337 56.1232 8.33337 58.3333V83.3333C8.33337 85.5435 9.21135 87.6631 10.7742 89.2259C12.337 90.7887 14.4566 91.6667 16.6667 91.6667H25" stroke="black" stroke-width="8.33333" stroke-linecap="round" stroke-linejoin="round"/>
<path d="M75 37.5H83.3333C85.5435 37.5 87.6631 38.378 89.2259 39.9408C90.7887 41.5036 91.6667 43.6232 91.6667 45.8333V83.3333C91.6667 85.5435 90.7887 87.6631 89.2259 89.2259C87.6631 90.7887 85.5435 91.6667 83.3333 91.6667H75" stroke="black" stroke-width="8.33333" stroke-linecap="round" stroke-linejoin="round"/>
<path d="M41.6666 25H58.3333" stroke="black" stroke-width="8.33333" stroke-linecap="round" stroke-linejoin="round"/>
<path d="M41.6666 41.6667H58.3333" stroke="black" stroke-width="8.33333" stroke-linecap="round" stroke-linejoin="round"/>
<path d="M41.6666 58.3333H58.3333" stroke="black" stroke-width="8.33333" stroke-linecap="round" stroke-linejoin="round"/>
<path d="M41.6666 75H58.3333" stroke="black" stroke-width="8.33333" stroke-linecap="round" stroke-linejoin="round"/>
</svg>
