<svg width="32" height="32" viewBox="0 0 32 32" fill="none" xmlns="http://www.w3.org/2000/svg">
<g id="settings">
<path id="Vector" d="M16.2933 2.66675H15.7067C14.9994 2.66675 14.3211 2.9477 13.8211 3.4478C13.321 3.94789 13.04 4.62617 13.04 5.33341V5.57341C13.0395 6.04105 12.9161 6.50033 12.6821 6.9052C12.448 7.31006 12.1117 7.64626 11.7067 7.88008L11.1333 8.21341C10.728 8.44746 10.2681 8.57068 9.8 8.57068C9.3319 8.57068 8.87205 8.44746 8.46667 8.21341L8.26667 8.10675C7.65476 7.75376 6.92779 7.65801 6.24534 7.84049C5.56289 8.02298 4.98074 8.4688 4.62667 9.08008L4.33334 9.58675C3.98035 10.1987 3.88459 10.9256 4.06708 11.6081C4.24957 12.2905 4.69538 12.8727 5.30667 13.2267L5.50667 13.3601C5.9097 13.5928 6.24483 13.9269 6.47874 14.3292C6.71265 14.7315 6.83719 15.188 6.84 15.6534V16.3334C6.84187 16.8033 6.71954 17.2654 6.48539 17.6728C6.25125 18.0802 5.91361 18.4185 5.50667 18.6534L5.30667 18.7734C4.69538 19.1275 4.24957 19.7096 4.06708 20.3921C3.88459 21.0745 3.98035 21.8015 4.33334 22.4134L4.62667 22.9201C4.98074 23.5314 5.56289 23.9772 6.24534 24.1597C6.92779 24.3422 7.65476 24.2464 8.26667 23.8934L8.46667 23.7867C8.87205 23.5527 9.3319 23.4295 9.8 23.4295C10.2681 23.4295 10.728 23.5527 11.1333 23.7867L11.7067 24.1201C12.1117 24.3539 12.448 24.6901 12.6821 25.095C12.9161 25.4998 13.0395 25.9591 13.04 26.4267V26.6667C13.04 27.374 13.321 28.0523 13.8211 28.5524C14.3211 29.0525 14.9994 29.3334 15.7067 29.3334H16.2933C17.0006 29.3334 17.6789 29.0525 18.179 28.5524C18.6791 28.0523 18.96 27.374 18.96 26.6667V26.4267C18.9605 25.9591 19.0839 25.4998 19.318 25.095C19.552 24.6901 19.8884 24.3539 20.2933 24.1201L20.8667 23.7867C21.2721 23.5527 21.7319 23.4295 22.2 23.4295C22.6681 23.4295 23.128 23.5527 23.5333 23.7867L23.7333 23.8934C24.3452 24.2464 25.0722 24.3422 25.7547 24.1597C26.4371 23.9772 27.0193 23.5314 27.3733 22.9201L27.6667 22.4001C28.0197 21.7882 28.1154 21.0612 27.9329 20.3787C27.7504 19.6963 27.3046 19.1141 26.6933 18.7601L26.4933 18.6534C26.0864 18.4185 25.7488 18.0802 25.5146 17.6728C25.2805 17.2654 25.1581 16.8033 25.16 16.3334V15.6667C25.1581 15.1969 25.2805 14.7348 25.5146 14.3274C25.7488 13.92 26.0864 13.5817 26.4933 13.3467L26.6933 13.2267C27.3046 12.8727 27.7504 12.2905 27.9329 11.6081C28.1154 10.9256 28.0197 10.1987 27.6667 9.58675L27.3733 9.08008C27.0193 8.4688 26.4371 8.02298 25.7547 7.84049C25.0722 7.65801 24.3452 7.75376 23.7333 8.10675L23.5333 8.21341C23.128 8.44746 22.6681 8.57068 22.2 8.57068C21.7319 8.57068 21.2721 8.44746 20.8667 8.21341L20.2933 7.88008C19.8884 7.64626 19.552 7.31006 19.318 6.9052C19.0839 6.50033 18.9605 6.04105 18.96 5.57341V5.33341C18.96 4.62617 18.6791 3.94789 18.179 3.4478C17.6789 2.9477 17.0006 2.66675 16.2933 2.66675Z" stroke="#151515" stroke-width="3" stroke-linecap="round" stroke-linejoin="round"/>
<path id="Vector_2" d="M16 20C18.2091 20 20 18.2091 20 16C20 13.7909 18.2091 12 16 12C13.7909 12 12 13.7909 12 16C12 18.2091 13.7909 20 16 20Z" stroke="#151515" stroke-width="3" stroke-linecap="round" stroke-linejoin="round"/>
</g>
</svg>
