<svg width="100" height="100" viewBox="0 0 100 100" fill="none" xmlns="http://www.w3.org/2000/svg">
<path d="M79.1666 58.3333C85.3749 52.25 91.6666 44.9583 91.6666 35.4167C91.6666 29.3388 89.2522 23.5098 84.9545 19.2121C80.6567 14.9144 74.8278 12.5 68.7499 12.5C61.4166 12.5 56.2499 14.5833 49.9999 20.8333C43.7499 14.5833 38.5833 12.5 31.2499 12.5C25.172 12.5 19.3431 14.9144 15.0454 19.2121C10.7477 23.5098 8.33325 29.3388 8.33325 35.4167C8.33325 45 14.5833 52.2917 20.8333 58.3333L49.9999 87.5L79.1666 58.3333Z" stroke="#151515" stroke-width="8.33333" stroke-linecap="round" stroke-linejoin="round"/>
<path d="M13.4165 50H39.5832L41.6665 45.8333L49.9998 64.5833L58.3332 35.4167L64.5832 50H86.5415" stroke="#151515" stroke-width="8.33333" stroke-linecap="round" stroke-linejoin="round"/>
</svg>
