<svg width="24" height="24" viewBox="0 0 24 24" fill="none" xmlns="http://www.w3.org/2000/svg">
<g id="badge-help">
<path id="Vector" d="M3.84995 8.6201C3.70399 7.96262 3.7264 7.27894 3.91511 6.63244C4.10381 5.98593 4.4527 5.39754 4.92942 4.92182C5.40614 4.4461 5.99526 4.09844 6.64216 3.91109C7.28905 3.72374 7.97278 3.70276 8.62995 3.8501C8.99166 3.2844 9.48995 2.81886 10.0789 2.49638C10.6678 2.17391 11.3285 2.00488 11.9999 2.00488C12.6714 2.00488 13.332 2.17391 13.921 2.49638C14.5099 2.81886 15.0082 3.2844 15.3699 3.8501C16.0281 3.70212 16.713 3.72301 17.3609 3.91081C18.0089 4.09862 18.5988 4.44724 19.0758 4.92425C19.5528 5.40126 19.9014 5.99117 20.0892 6.6391C20.277 7.28703 20.2979 7.97193 20.1499 8.6301C20.7156 8.99181 21.1812 9.4901 21.5037 10.079C21.8261 10.668 21.9952 11.3286 21.9952 12.0001C21.9952 12.6715 21.8261 13.3322 21.5037 13.9211C21.1812 14.5101 20.7156 15.0084 20.1499 15.3701C20.2973 16.0273 20.2763 16.711 20.089 17.3579C19.9016 18.0048 19.554 18.5939 19.0782 19.0706C18.6025 19.5473 18.0141 19.8962 17.3676 20.0849C16.7211 20.2736 16.0374 20.2961 15.3799 20.1501C15.0187 20.718 14.52 21.1855 13.9301 21.5094C13.3401 21.8333 12.678 22.0032 12.0049 22.0032C11.3319 22.0032 10.6698 21.8333 10.0798 21.5094C9.48987 21.1855 8.99119 20.718 8.62995 20.1501C7.97278 20.2974 7.28905 20.2765 6.64216 20.0891C5.99526 19.9018 5.40614 19.5541 4.92942 19.0784C4.4527 18.6027 4.10381 18.0143 3.91511 17.3678C3.7264 16.7213 3.70399 16.0376 3.84995 15.3801C3.27991 15.0193 2.81036 14.5203 2.485 13.9293C2.15963 13.3384 1.98901 12.6747 1.98901 12.0001C1.98901 11.3255 2.15963 10.6618 2.485 10.0709C2.81036 9.47992 3.27991 8.98085 3.84995 8.6201Z" stroke="#006049" stroke-width="2" stroke-linecap="round" stroke-linejoin="round"/>
<path id="Vector_2" d="M9.08997 9.00008C9.32507 8.33175 9.78912 7.76819 10.3999 7.40921C11.0107 7.05024 11.7289 6.91902 12.4271 7.03879C13.1254 7.15857 13.7588 7.52161 14.215 8.06361C14.6713 8.60561 14.921 9.2916 14.92 10.0001C14.92 12.0001 11.92 13.0001 11.92 13.0001" stroke="#006049" stroke-width="2" stroke-linecap="round" stroke-linejoin="round"/>
<path id="Vector_3" d="M12 17H12.01" stroke="#006049" stroke-width="2" stroke-linecap="round" stroke-linejoin="round"/>
</g>
</svg>
