<svg width="561" height="333" viewBox="0 0 561 333" fill="none" xmlns="http://www.w3.org/2000/svg">
<g clip-path="url(#clip0_89_688)">
<path d="M64.9608 422.815L70.9593 424.272L67.3939 428.488L64.9608 422.815Z" fill="#89E7D0"/>
<path d="M99.2021 451.773L105.95 453.413L101.939 458.156L99.2021 451.773Z" fill="#89E7D0"/>
<path d="M133.707 480.954L140.455 482.594L136.444 487.337L133.707 480.954Z" fill="#89E7D0"/>
<path d="M168.475 510.359L174.474 511.816L170.908 516.032L168.475 510.359Z" fill="#89E7D0"/>
<path d="M24.8689 329.725L31.6172 331.365L27.6061 336.107L24.8689 329.725Z" fill="#89E7D0"/>
<path d="M58.8279 358.444L67.1295 360.461L62.1952 366.296L58.8279 358.444Z" fill="#89E7D0"/>
<path d="M92.8057 387.18L102.607 389.561L96.7813 396.45L92.8057 387.18Z" fill="#89E7D0"/>
<path d="M126.765 415.9L138.119 418.658L131.37 426.638L126.765 415.9Z" fill="#89E7D0"/>
<path d="M161.27 445.081L172.624 447.84L165.875 455.82L161.27 445.081Z" fill="#89E7D0"/>
<path d="M196.32 474.724L206.121 477.105L200.296 483.993L196.32 474.724Z" fill="#89E7D0"/>
<path d="M231.352 504.35L239.654 506.368L234.719 512.202L231.352 504.35Z" fill="#89E7D0"/>
<path d="M266.403 533.993L273.151 535.633L269.14 540.376L266.403 533.993Z" fill="#89E7D0"/>
<path d="M19.5452 266.039L26.2936 267.678L22.2825 272.421L19.5452 266.039Z" fill="#89E7D0"/>
<path d="M53.2408 294.536L62.2922 296.735L56.9122 303.096L53.2408 294.536Z" fill="#89E7D0"/>
<path d="M86.9363 323.032L98.2907 325.791L91.5419 333.771L86.9363 323.032Z" fill="#89E7D0"/>
<path d="M120.632 351.529L134.289 354.847L126.172 364.446L120.632 351.529Z" fill="#89E7D0"/>
<path d="M154.327 380.026L170.288 383.904L160.801 395.121L154.327 380.026Z" fill="#89E7D0"/>
<path d="M188.832 409.207L204.793 413.085L195.306 424.302L188.832 409.207Z" fill="#89E7D0"/>
<path d="M224.146 439.073L237.804 442.391L229.686 451.99L224.146 439.073Z" fill="#89E7D0"/>
<path d="M259.46 468.938L270.815 471.697L264.066 479.677L259.46 468.938Z" fill="#89E7D0"/>
<path d="M294.775 498.804L303.826 501.003L298.446 507.365L294.775 498.804Z" fill="#89E7D0"/>
<path d="M330.089 528.67L336.837 530.309L332.826 535.052L330.089 528.67Z" fill="#89E7D0"/>
<path d="M48.1806 231.072L56.4822 233.089L51.548 238.924L48.1806 231.072Z" fill="#89E7D0"/>
<path d="M81.6127 259.346L92.9671 262.105L86.2183 270.085L81.6127 259.346Z" fill="#89E7D0"/>
<path d="M115.045 287.62L129.452 291.121L120.889 301.246L115.045 287.62Z" fill="#89E7D0"/>
<path d="M148.458 315.878L165.972 320.134L155.562 332.442L148.458 315.878Z" fill="#89E7D0"/>
<path d="M181.89 344.152L202.456 349.149L190.232 363.604L181.89 344.152Z" fill="#89E7D0"/>
<path d="M216.395 373.333L236.961 378.33L224.737 392.785L216.395 373.333Z" fill="#89E7D0"/>
<path d="M251.972 403.422L269.486 407.677L259.076 419.986L251.972 403.422Z" fill="#89E7D0"/>
<path d="M287.569 433.526L301.976 437.027L293.413 447.152L287.569 433.526Z" fill="#89E7D0"/>
<path d="M323.146 463.615L334.501 466.374L327.752 474.354L323.146 463.615Z" fill="#89E7D0"/>
<path d="M358.724 493.703L367.026 495.72L362.091 501.555L358.724 493.703Z" fill="#89E7D0"/>
<path d="M43.6663 168.071L49.6649 169.528L46.0995 173.744L43.6663 168.071Z" fill="#89E7D0"/>
<path d="M76.8349 196.122L86.6361 198.503L80.8105 205.392L76.8349 196.122Z" fill="#89E7D0"/>
<path d="M109.985 224.157L123.642 227.475L115.524 237.074L109.985 224.157Z" fill="#89E7D0"/>
<path d="M143.134 252.192L160.648 256.448L150.238 268.756L143.134 252.192Z" fill="#89E7D0"/>
<path d="M176.303 280.243L197.619 285.423L184.949 300.404L176.303 280.243Z" fill="#89E7D0"/>
<path d="M209.453 308.279L234.625 314.395L219.663 332.086L209.453 308.279Z" fill="#89E7D0"/>
<path d="M243.957 337.46L269.13 343.576L254.168 361.268L243.957 337.46Z" fill="#89E7D0"/>
<path d="M279.817 367.787L301.134 372.966L288.464 387.948L279.817 367.787Z" fill="#89E7D0"/>
<path d="M315.658 398.098L333.172 402.354L322.762 414.662L315.658 398.098Z" fill="#89E7D0"/>
<path d="M351.518 428.426L365.176 431.744L357.058 441.343L351.518 428.426Z" fill="#89E7D0"/>
<path d="M387.378 458.753L397.179 461.134L391.354 468.023L387.378 458.753Z" fill="#89E7D0"/>
<path d="M423.219 489.064L429.218 490.522L425.652 494.737L423.219 489.064Z" fill="#89E7D0"/>
<path d="M72.584 133.343L79.3324 134.983L75.3213 139.726L72.584 133.343Z" fill="#89E7D0"/>
<path d="M105.47 161.155L116.825 163.914L110.076 171.894L105.47 161.155Z" fill="#89E7D0"/>
<path d="M138.356 188.968L154.317 192.846L144.83 204.063L138.356 188.968Z" fill="#89E7D0"/>
<path d="M171.243 216.78L191.809 221.777L179.585 236.232L171.243 216.78Z" fill="#89E7D0"/>
<path d="M204.129 244.593L229.301 250.709L214.339 268.4L204.129 244.593Z" fill="#89E7D0"/>
<path d="M237.015 272.405L266.794 279.64L249.094 300.569L237.015 272.405Z" fill="#89E7D0"/>
<path d="M271.52 301.586L301.299 308.821L283.599 329.75L271.52 301.586Z" fill="#89E7D0"/>
<path d="M307.643 332.136L332.816 338.252L317.854 355.944L307.643 332.136Z" fill="#89E7D0"/>
<path d="M343.767 362.686L364.333 367.683L352.109 382.138L343.767 362.686Z" fill="#89E7D0"/>
<path d="M379.89 393.236L395.851 397.114L386.364 408.331L379.89 393.236Z" fill="#89E7D0"/>
<path d="M416.014 423.786L427.368 426.545L420.619 434.525L416.014 423.786Z" fill="#89E7D0"/>
<path d="M452.137 454.336L458.885 455.976L454.874 460.719L452.137 454.336Z" fill="#89E7D0"/>
<path d="M101.765 98.8383L108.514 100.478L104.503 105.221L101.765 98.8383Z" fill="#89E7D0"/>
<path d="M134.651 126.651L146.006 129.409L139.257 137.389L134.651 126.651Z" fill="#89E7D0"/>
<path d="M167.538 154.463L183.498 158.341L174.012 169.558L167.538 154.463Z" fill="#89E7D0"/>
<path d="M200.424 182.275L220.99 187.272L208.766 201.727L200.424 182.275Z" fill="#89E7D0"/>
<path d="M233.31 210.088L258.483 216.204L243.521 233.895L233.31 210.088Z" fill="#89E7D0"/>
<path d="M266.196 237.9L295.975 245.135L278.275 266.064L266.196 237.9Z" fill="#89E7D0"/>
<path d="M300.701 267.081L330.48 274.317L312.78 295.245L300.701 267.081Z" fill="#89E7D0"/>
<path d="M336.825 297.631L361.997 303.748L347.035 321.439L336.825 297.631Z" fill="#89E7D0"/>
<path d="M372.948 328.181L393.515 333.178L381.29 347.633L372.948 328.181Z" fill="#89E7D0"/>
<path d="M409.071 358.731L425.032 362.609L415.545 373.827L409.071 358.731Z" fill="#89E7D0"/>
<path d="M445.195 389.282L456.549 392.04L449.8 400.02L445.195 389.282Z" fill="#89E7D0"/>
<path d="M481.318 419.832L488.067 421.471L484.056 426.214L481.318 419.832Z" fill="#89E7D0"/>
<path d="M131.21 64.5563L137.209 66.0138L133.643 70.2297L131.21 64.5563Z" fill="#89E7D0"/>
<path d="M164.378 92.6074L174.18 94.9889L168.354 101.877L164.378 92.6074Z" fill="#89E7D0"/>
<path d="M197.528 120.643L211.186 123.961L203.068 133.56L197.528 120.643Z" fill="#89E7D0"/>
<path d="M230.678 148.678L248.192 152.933L237.782 165.242L230.678 148.678Z" fill="#89E7D0"/>
<path d="M263.846 176.729L285.163 181.908L272.493 196.89L263.846 176.729Z" fill="#89E7D0"/>
<path d="M296.996 204.764L322.169 210.88L307.207 228.572L296.996 204.764Z" fill="#89E7D0"/>
<path d="M331.501 233.945L356.674 240.062L341.712 257.753L331.501 233.945Z" fill="#89E7D0"/>
<path d="M367.361 264.273L388.677 269.452L376.007 284.433L367.361 264.273Z" fill="#89E7D0"/>
<path d="M403.202 294.584L420.716 298.839L410.306 311.148L403.202 294.584Z" fill="#89E7D0"/>
<path d="M439.062 324.911L452.719 328.229L444.602 337.828L439.062 324.911Z" fill="#89E7D0"/>
<path d="M474.922 355.238L484.723 357.62L478.897 364.508L474.922 355.238Z" fill="#89E7D0"/>
<path d="M510.763 385.55L516.762 387.007L513.196 391.223L510.763 385.55Z" fill="#89E7D0"/>
<path d="M194.087 58.5483L202.388 60.5653L197.454 66.3998L194.087 58.5483Z" fill="#89E7D0"/>
<path d="M227.519 86.8222L238.873 89.581L232.124 97.5611L227.519 86.8222Z" fill="#89E7D0"/>
<path d="M260.951 115.096L275.358 118.597L266.795 128.722L260.951 115.096Z" fill="#89E7D0"/>
<path d="M294.364 143.354L311.878 147.609L301.468 159.918L294.364 143.354Z" fill="#89E7D0"/>
<path d="M327.796 171.628L348.362 176.625L336.138 191.08L327.796 171.628Z" fill="#89E7D0"/>
<path d="M362.301 200.809L382.867 205.806L370.643 220.261L362.301 200.809Z" fill="#89E7D0"/>
<path d="M397.878 230.898L415.392 235.153L404.982 247.462L397.878 230.898Z" fill="#89E7D0"/>
<path d="M433.475 261.002L447.882 264.503L439.319 274.628L433.475 261.002Z" fill="#89E7D0"/>
<path d="M469.052 291.091L480.407 293.849L473.658 301.829L469.052 291.091Z" fill="#89E7D0"/>
<path d="M504.63 321.179L512.932 323.196L507.997 329.031L504.63 321.179Z" fill="#89E7D0"/>
<path d="M223.814 24.5051L230.562 26.1447L226.551 30.8876L223.814 24.5051Z" fill="#89E7D0"/>
<path d="M257.509 53.0018L266.561 55.2011L261.181 61.5625L257.509 53.0018Z" fill="#89E7D0"/>
<path d="M291.205 81.4986L302.559 84.2574L295.81 92.2375L291.205 81.4986Z" fill="#89E7D0"/>
<path d="M324.9 109.995L338.558 113.314L330.44 122.912L324.9 109.995Z" fill="#89E7D0"/>
<path d="M358.596 138.492L374.556 142.37L365.07 153.587L358.596 138.492Z" fill="#89E7D0"/>
<path d="M393.101 167.673L409.061 171.551L399.575 182.769L393.101 167.673Z" fill="#89E7D0"/>
<path d="M428.415 197.539L442.072 200.857L433.954 210.456L428.415 197.539Z" fill="#89E7D0"/>
<path d="M463.729 227.405L475.083 230.163L468.334 238.143L463.729 227.405Z" fill="#89E7D0"/>
<path d="M499.043 257.27L508.094 259.47L502.714 265.831L499.043 257.27Z" fill="#89E7D0"/>
<path d="M534.357 287.136L541.105 288.776L537.094 293.518L534.357 287.136Z" fill="#89E7D0"/>
<path d="M287.5 19.1814L294.248 20.8211L290.237 25.564L287.5 19.1814Z" fill="#89E7D0"/>
<path d="M321.459 47.9011L329.76 49.9181L324.826 55.7526L321.459 47.9011Z" fill="#89E7D0"/>
<path d="M355.437 76.6366L365.238 79.018L359.412 85.9064L355.437 76.6366Z" fill="#89E7D0"/>
<path d="M389.396 105.356L400.75 108.115L394.001 116.095L389.396 105.356Z" fill="#89E7D0"/>
<path d="M423.9 134.537L435.255 137.296L428.506 145.276L423.9 134.537Z" fill="#89E7D0"/>
<path d="M458.951 164.18L468.752 166.562L462.927 173.45L458.951 164.18Z" fill="#89E7D0"/>
<path d="M493.983 193.807L502.284 195.824L497.35 201.659L493.983 193.807Z" fill="#89E7D0"/>
<path d="M529.033 223.45L535.782 225.09L531.771 229.832L529.033 223.45Z" fill="#89E7D0"/>
<path d="M385.954 43.2619L391.953 44.7194L388.387 48.9352L385.954 43.2619Z" fill="#89E7D0"/>
<path d="M420.195 72.2203L426.944 73.8599L422.933 78.6028L420.195 72.2203Z" fill="#89E7D0"/>
<path d="M454.7 101.401L461.449 103.041L457.438 107.784L454.7 101.401Z" fill="#89E7D0"/>
<path d="M489.469 130.806L495.467 132.263L491.902 136.479L489.469 130.806Z" fill="#89E7D0"/>
<path fill-rule="evenodd" clip-rule="evenodd" d="M194.261 248.092L359.442 261.21L359.616 262.333C362.383 280.366 363.781 292.601 363.81 299.037L363.811 299.234C363.811 305.615 365.769 315.764 369.685 329.679L369.927 330.536L194.03 330.843L191.956 288.956L194.261 248.092ZM292.053 158.21C298.769 158.542 305.538 161.423 306.061 163.264C307.225 167.363 309.098 184.914 315.256 187.611C321.414 190.307 334.559 187.849 338.319 194.288C342.077 200.728 354.421 226.977 354.421 233.094C354.421 237.172 314.194 238.587 233.741 237.34C234.768 204.496 239.05 187.232 246.587 185.546L247.259 185.397C258.159 183.015 264.673 182.938 268.391 179.099C272.185 175.181 272.874 168.456 274.447 163.264C275.315 160.402 283.811 157.803 292.053 158.21Z" fill="#F2F2F2"/>
<path fill-rule="evenodd" clip-rule="evenodd" d="M306.783 168.474C306.808 168.456 306.833 168.449 306.86 168.463C307.384 168.714 307.492 169.218 307.672 169.741C307.935 170.506 308.24 171.254 308.521 172.012C309.081 173.535 309.616 175.055 310.241 176.552C310.882 178.093 311.545 179.605 312.307 181.093C312.673 181.813 313.067 182.518 313.468 183.22C313.745 183.706 314.004 184.375 314.367 184.831C314.395 184.686 314.435 184.548 314.481 184.419C314.433 184.442 314.386 184.467 314.342 184.495C314.25 184.553 314.139 184.437 314.195 184.347C314.393 184.019 314.651 183.798 314.947 183.648C315.763 182.742 333.752 187.067 338.67 191.926C347.576 200.726 353.588 211.604 357.542 223.177C359.725 229.564 361.736 236.013 363.813 242.434C366.008 249.224 368.3 255.984 370.5 262.769C370.981 264.261 369.93 265.618 368.602 266.109C366.128 267.022 363.635 267.882 361.122 268.679C362.342 273.362 363.196 278.147 363.809 282.944C365.075 292.835 365.233 302.928 367.228 312.717C367.686 314.964 368.266 317.178 368.877 319.387L369.019 319.896C369.383 321.193 369.716 322.5 370.162 323.769C370.548 324.859 371.045 325.96 371.316 327.085C371.631 328.409 371.165 329.855 369.928 330.536C368.934 331.083 367.512 330.857 366.911 329.83C366.789 329.62 366.716 329.391 366.686 329.161C366.596 328.97 366.513 328.774 366.439 328.573C366.411 328.495 366.385 328.416 366.36 328.335L366.289 328.096C366.114 327.524 365.952 326.947 365.792 326.371C365.529 325.445 365.264 324.523 364.971 323.606L364.823 323.148C364.099 320.944 363.451 318.72 362.887 316.47C360.865 308.397 360.436 300.041 359.882 291.769L359.852 291.341C359.35 283.928 359.05 276.531 359.665 269.135L359.581 269.162L359.497 269.188C358.697 269.433 357.895 269.673 357.09 269.905C357.065 269.914 357.042 269.924 357.017 269.93C356.502 270.09 355.973 270.241 355.435 270.382L355.111 270.466L354.881 270.528L354.641 270.596C353.88 270.818 353.101 271.072 352.311 271.047C351.002 271.257 349.669 271.384 348.36 271.388C348.763 277.987 349.229 284.581 349.784 291.167C350.343 297.789 351.083 304.386 351.85 310.982C352.228 314.241 352.634 317.493 353.081 320.741C353.307 322.387 353.542 324.024 353.842 325.658C354.151 327.328 354.697 329.113 354.367 330.801C354.361 330.799 354.354 330.797 354.347 330.797C354.236 331.286 353.941 331.723 353.427 332.026C352.484 332.577 351.166 332.254 350.623 331.29C350.577 331.209 350.534 331.126 350.492 331.041C349.937 331.278 349.328 331.371 348.58 331.377L338.45 331.479C333.846 331.525 329.242 331.574 324.636 331.64C310.174 331.854 295.712 332.1 281.249 332.274L275.827 332.337C267.693 332.423 259.554 332.591 251.421 332.589C247.352 332.589 243.287 332.574 239.218 332.475C237.246 332.427 235.28 332.351 233.311 332.27L232.963 332.255C231.392 332.176 229.723 332.031 228.186 332.383C227.762 333.208 226.678 333.38 226.111 332.535C224.815 330.604 224.461 327.909 224.222 325.549L224.138 324.698C223.872 322.052 223.639 319.407 223.467 316.758C222.853 307.368 222.63 297.969 222.911 288.562C223.054 283.767 223.494 279 224.015 274.232C224.179 272.745 224.35 271.26 224.534 269.777L224.537 269.248C224.537 269.08 224.536 268.919 224.532 268.768L224.486 267.338C224.448 266.145 224.412 264.951 224.397 263.757L224.391 263.041L224.384 261.709C223.245 261.6 222.03 261.222 221.048 261.04C219.455 260.742 217.867 260.421 216.283 260.083C213.11 259.4 209.973 258.592 206.856 257.699L206.193 257.51C203.316 256.68 200.401 255.796 197.68 254.557C196.615 254.07 195.552 253.521 194.618 252.801C194.563 253.557 194.477 254.312 194.427 255.061C194.325 256.544 194.205 258.022 194.106 259.506L194.011 260.917C193.856 263.268 193.715 265.617 193.652 267.975C193.371 278.261 193.322 288.592 193.866 298.871C194.136 304.017 194.521 309.162 195.077 314.287C195.349 316.808 195.637 319.336 195.992 321.847C196.359 324.428 197.02 326.993 197.223 329.592C197.417 332.1 193.585 332.464 192.956 330.171C192.202 327.423 192.01 324.457 191.613 321.63L191.568 321.317C191.128 318.314 190.775 315.3 190.47 312.28C189.42 301.867 189.147 291.401 189.698 280.948C189.96 275.942 190.581 270.955 191.333 266.002L191.42 265.431C191.763 263.213 192.083 260.994 192.47 258.786L192.619 257.958C192.967 256.06 193.235 253.996 193.8 252.098L193.632 251.943C193.318 251.651 192.978 251.311 192.73 250.947C191.877 250.831 191.151 250.218 191.24 249.104C191.533 245.443 192.87 241.721 194.062 238.266C195.259 234.793 196.647 231.384 198.219 228.063C203.75 216.39 211.716 205.792 221.456 197.302C226.623 192.798 232.285 188.804 238.542 185.96C241.627 184.555 244.818 183.468 248.161 182.882C249.816 182.592 251.488 182.366 253.171 182.318C254.536 181.512 256.157 181.851 257.479 182.735L257.551 182.784H257.553L257.892 182.851C257.975 182.867 257.973 182.998 257.892 183.017C257.888 183.017 257.881 183.019 257.876 183.021C258.093 183.192 258.298 183.374 258.489 183.57C259.121 184.216 259.118 184.995 258.793 185.625C260.728 187.42 261.95 189.723 263.229 192.046C264.601 194.533 266.397 196.682 268.583 198.495C276.594 205.142 288.377 208.083 298.416 204.943C305.798 202.638 312.104 196.393 313.847 188.877C313.434 189.025 312.987 189.048 312.562 188.895C310.571 188.185 309.811 186.007 309.048 184.186L309.012 184.098C308.267 182.333 307.643 180.542 307.149 178.692C306.651 176.824 306.358 174.852 306.236 172.923C306.189 172.162 306.21 171.399 306.249 170.636L306.284 170.007C306.311 169.435 306.303 168.852 306.783 168.474ZM274.37 163.333C274.397 163.265 274.505 163.228 274.547 163.311C276.31 166.95 275.154 171.937 273.486 175.407C271.741 179.038 269.113 181.792 265.999 184.174C265.57 184.502 265.129 184.825 264.682 185.14C262.083 186.977 259.769 182.027 262.769 181.082C265.895 179.493 268.436 176.66 270.201 173.685C271.156 172.078 272.002 170.403 272.65 168.646C273.295 166.892 273.682 165.069 274.37 163.333Z" fill="black"/>
<path fill-rule="evenodd" clip-rule="evenodd" d="M334.33 134.402C335.759 124.091 332.709 114.141 328.758 104.718C328.541 104.144 328.198 103.647 327.755 103.294C316.605 80.8119 300.221 78.776 277.364 80.3243C276.69 80.3093 276.649 80.3213 276.137 80.0919C276.051 70.9589 265.626 66.1213 257.691 69.1346C222.502 85.4936 233.567 131.549 240.569 161.616C243.067 173.255 245.566 184.893 248.065 196.533C248.149 196.921 248.326 197.259 248.561 197.542C248.198 197.68 247.835 197.809 247.479 197.93C246.666 198.207 246.989 199.419 247.835 199.223C248.664 199.031 249.463 198.772 250.254 198.491C251.486 198.759 252.52 197.953 253.487 197.311C264.818 192.828 269.575 178.097 272.481 167.244C284.297 175.585 303.177 181.831 316.687 174.331C329.346 166.705 333.905 150.797 333.006 136.756C333.929 136.33 334.302 135.403 334.326 134.437H334.332C334.332 134.425 334.33 134.413 334.33 134.402Z" fill="#F2F2F2"/>
<path fill-rule="evenodd" clip-rule="evenodd" d="M254.444 69.9934C257.056 68.3005 260.409 67.6704 263.487 67.7938C265.128 67.8595 266.661 68.2689 268.175 68.8838C269.577 69.4539 270.813 70.2729 272.18 70.897C272.263 70.9349 272.199 71.0513 272.121 71.0354C270.504 70.7089 268.605 70.9061 266.966 71.14L266.802 71.1634C265.19 71.3975 263.55 71.5186 261.961 71.8902C259.034 72.5744 256.313 74.0655 254.707 76.6591C252.609 80.0462 252.072 84.4307 252.296 88.3386C252.409 90.3159 252.799 92.2612 253.406 94.1461C253.77 95.2774 254.616 96.4156 255.012 97.6027C255.313 97.0409 255.623 96.4846 255.945 95.935C254.48 95.2442 254.069 93.3244 253.993 91.5918C253.767 91.3736 253.622 91.0579 253.617 90.768C253.604 89.9886 253.788 89.2831 254.099 88.6375C254.277 86.8091 254.654 84.986 255.304 83.2726C257.852 76.5456 264.575 70.4826 272.198 71.0816C274.294 71.2462 276.332 72.1363 277.416 74.0284C278.285 75.5479 278.292 77.3808 277.691 78.9968C277.513 79.4766 277.281 79.9097 277.01 80.3048C277.834 80.0959 278.659 79.8954 279.482 79.6968C282.341 79.0076 285.213 78.4678 288.138 78.1675C292.124 77.7588 296.191 78.3771 299.842 79.9683C300.844 80.2259 301.84 80.5027 302.831 80.7984C307.191 82.0988 311.664 83.7971 315.184 86.7652C316.805 88.1308 317.964 89.7195 318.906 91.464C322.43 94.6079 325.8 98.1717 328.18 102.249C333.082 110.648 334.253 121.038 334.454 130.588C334.639 139.359 333.869 148.221 332.226 156.84C331.48 160.752 330.273 164.387 327.834 167.596C325.117 171.169 321.494 173.983 317.428 175.871C309.15 179.715 298.905 180.275 290.859 175.512C288.439 174.079 290.618 170.345 293.062 171.74C301.006 176.275 311.143 175.239 318.787 170.432C322.016 168.401 324.797 165.624 326.565 162.223C327.856 159.74 328.41 156.89 328.89 154.118L329.145 152.633C330.626 144.105 331.295 135.358 330.939 126.705C330.583 118.075 329.215 108.727 324.328 101.39C321.75 97.5198 318.464 94.1293 315.012 91.0379C314.769 90.8206 314.526 90.6042 314.283 90.3886C312.933 89.5774 311.535 88.8691 310.159 88.2646L309.865 88.1379C309.074 87.8004 307.967 87.3643 306.94 87.0157C305.472 86.5173 303.98 86.0745 302.482 85.6755C301.696 85.4663 300.907 85.2743 300.117 85.091C300.392 85.3441 300.667 85.5993 300.936 85.8611C302.211 87.1012 303.224 88.5751 304.433 89.8754C304.571 90.0221 304.398 90.2361 304.224 90.1468C302.385 89.2026 300.344 88.5915 298.424 87.8264C296.608 87.1031 294.843 86.2706 293.059 85.4725C292.613 85.2723 292.167 85.0585 291.723 84.847C289.968 84.865 288.215 84.9063 286.464 85.0061C288.58 86.5129 290.512 88.2937 292.113 90.2465C292.245 90.4072 292.125 90.6649 291.903 90.6079C288.552 89.7496 285.366 88.4881 282.18 87.1662L280.657 86.5316C279.537 86.4748 278.415 86.4483 277.293 86.4649L276.75 86.474C275.571 86.4965 274.396 86.5432 273.23 86.7217C272.951 86.7638 272.68 86.804 272.409 86.8409C270.767 87.5115 269.186 88.3202 267.763 89.386L268.134 89.3641C270.382 89.2361 272.676 89.4298 274.853 90.0105C279.085 91.1396 282.695 93.8581 285.323 97.3243C285.402 97.4281 285.249 97.5726 285.146 97.502C281.841 95.2383 278.006 94.098 274.079 93.4787C272.18 93.179 270.225 93.076 268.308 93.2252C266.721 93.3486 265.079 93.9079 263.5 93.6364C263.07 94.1726 262.656 94.725 262.258 95.2896C262.467 95.2762 262.677 95.264 262.889 95.2542C265.156 95.1476 267.465 95.2931 269.681 95.8153C274.103 96.8589 277.799 99.5149 281.179 102.431C281.246 102.489 281.16 102.591 281.088 102.55C277.421 100.433 273.16 99.8005 269.006 99.4186C266.914 99.2262 264.8 99.139 262.703 99.306C261.743 99.3823 260.793 99.5408 259.836 99.6393C259.759 99.6474 259.678 99.6495 259.599 99.6531C258.905 100.962 258.275 102.295 257.708 103.624C259.44 103.159 261.31 102.915 263.098 103.035C266.731 103.28 270.334 104.946 273.234 107.077C273.326 107.144 273.274 107.322 273.151 107.275C269.994 106.082 266.865 106.072 263.571 106.533C262.027 106.748 260.498 107.041 259.006 107.501C258.255 107.732 257.514 107.984 256.802 108.316C256.479 108.466 256.164 108.642 255.846 108.807C255.591 109.671 255.364 110.544 255.158 111.422C260.544 111.725 265.616 114.268 270.031 117.186C270.137 117.257 270.07 117.453 269.939 117.403C267.304 116.409 264.436 115.949 261.641 115.681C259.197 115.447 256.798 115.574 254.368 115.642C254.238 116.566 254.132 117.493 254.056 118.421C254.447 118.53 254.83 118.649 255.199 118.759C256.411 119.124 257.622 119.614 258.753 120.183C261.051 121.338 262.913 122.9 264.786 124.636C264.885 124.727 264.783 124.925 264.65 124.871C262.475 123.992 260.099 123.428 257.81 122.93C256.625 122.672 255.44 122.434 254.247 122.216C254.131 122.194 254.014 122.177 253.897 122.159C253.885 124.276 254.005 126.393 254.269 128.492L254.32 128.886C254.463 129.948 254.346 130.976 253.643 131.711C254.616 131.063 255.729 130.616 256.962 130.444C260.211 129.992 263.219 131.29 265.263 133.801C265.359 133.919 265.212 134.073 265.095 133.97C263.111 132.204 260.054 131.892 257.59 132.723C255.309 133.493 253.594 135.33 252.907 137.63C252.177 140.073 252.511 142.771 253.843 144.949C254.507 146.033 255.465 147.004 256.664 147.48C256.812 147.539 256.963 147.589 257.115 147.631C257.839 147.367 258.619 147.487 259.363 147.822L259.46 147.868C259.935 147.865 260.407 147.85 260.867 147.855C261.761 147.864 262.191 148.813 261.816 149.52C262.029 149.91 262.185 150.348 262.371 150.73C262.709 151.42 263.062 152.105 263.418 152.786C263.921 153.364 264.401 153.96 264.727 154.657C264.861 154.943 264.987 155.252 265.084 155.562C265.364 155.983 265.647 156.402 265.939 156.817C266.879 158.162 267.87 159.435 268.968 160.655C269.628 161.389 270.389 162.043 271.087 162.746C271.299 162.775 271.508 162.919 271.573 163.126L271.63 163.325C271.855 163.579 272.071 163.841 272.265 164.119C272.695 164.737 272.577 165.364 272.199 165.816C272.798 169.556 272.39 173.534 271.588 177.161C271.07 179.505 270.465 181.846 269.652 184.107C269.24 185.256 268.74 186.359 268.049 187.368C267.67 187.922 267.176 188.566 266.623 189.092C266.539 189.705 266.43 190.312 266.274 190.907C264.418 197.965 256.819 200.113 250.457 201.015C249.23 201.188 248.014 200.891 247.346 199.747C247.191 199.483 247.087 199.198 247.032 198.905C246.754 198.832 246.488 198.702 246.249 198.516C246.209 198.958 246.163 199.401 246.105 199.849C245.959 200.971 244.446 201.308 244.067 200.125C242.466 195.134 241.597 189.871 240.5 184.742C239.406 179.624 238.184 174.533 237.053 169.421L235.621 162.972C232.127 147.179 228.855 131.184 229.658 114.94C230.096 106.074 231.723 97.23 235.203 89.0364C238.103 82.2106 242.997 74.5421 250.902 73.1465C250.956 73.137 251.005 73.1425 251.05 73.1541C251.989 71.9329 253.11 70.8573 254.444 69.9934ZM259.213 155.843C259.852 157.959 260.307 160.128 260.553 162.341C260.966 166.03 260.762 169.809 260.583 173.508C260.418 176.906 260.026 180.334 259.361 183.671C258.721 186.875 257.719 190.017 256.23 192.931C255.989 193.402 255.73 193.861 255.458 194.312C256.282 194.037 257.025 193.717 257.8 193.274C258.775 192.716 259.667 191.996 260.155 191.237C260.939 190.02 261.202 188.667 261.316 187.216C261.611 183.484 261.747 179.74 261.935 176.002L261.976 175.188C262.281 169.347 262.679 163.356 262.083 157.509C261.246 157.289 260.491 156.857 259.795 156.315C259.602 156.166 259.408 156.008 259.213 155.843ZM252.848 148.77C253.023 150.547 253.192 152.324 253.344 154.102C253.885 160.415 254.219 166.763 253.912 173.098C253.752 176.397 253.43 179.704 252.875 182.962C252.624 184.43 252.321 185.897 251.983 187.349L251.869 187.832C251.526 189.27 251.307 191.069 250.208 192.114L250.216 192.331C250.988 191.159 251.701 189.842 252.213 188.616C254.49 183.153 254.906 177.204 255.318 171.379C255.571 167.789 255.759 164.194 256.053 160.606L256.195 158.88C256.359 156.871 256.5 154.877 256.48 152.869C256.042 152.215 255.685 151.527 255.464 150.821C255.428 150.707 255.404 150.593 255.387 150.477C254.459 150.037 253.586 149.437 252.848 148.77ZM265.315 161.271C265.772 162.794 266.145 164.337 266.411 165.887C266.835 168.352 267.089 170.834 267.201 173.324L267.435 172.444C268.023 170.244 268.65 168.041 269.424 165.905C268.198 165.047 267.173 163.698 266.283 162.57C265.949 162.149 265.626 161.715 265.315 161.271ZM247.753 93.5233C247.282 95.0451 246.87 96.5842 246.444 98.1184C245.444 101.722 244.795 105.425 244.344 109.135C242.547 123.946 244.044 138.817 246.002 153.532C246.813 159.628 247.695 165.716 248.453 171.82C248.473 171.221 248.489 170.622 248.5 170.024C248.73 157.067 246.551 144.293 245.678 131.404L245.625 130.618C245.23 124.592 244.988 118.453 245.704 112.448C246.072 109.358 246.721 106.333 247.585 103.347L248.099 101.593C248.447 100.413 248.817 99.2025 249.255 98.0282C249.196 97.9157 249.141 97.8022 249.089 97.6885C248.482 96.3545 248.06 94.9522 247.753 93.5233ZM249.272 76.0642C244.747 81.9 240.95 88.0994 238.653 95.2298C233.396 111.549 234.57 128.999 237.616 145.633C239.052 153.472 240.903 161.217 242.592 169C240.784 155.024 238.452 141.078 238.081 126.967C237.879 119.266 238.277 111.528 239.695 103.946L239.779 103.5C240.387 100.295 241.139 96.9002 242.681 94.0204C243.518 92.4566 244.441 90.9974 245.537 89.6007C245.999 89.0116 246.518 88.5392 247.068 88.1073C246.907 84.0842 247.515 79.7217 249.272 76.0642ZM256.654 138.244C258.906 138.332 261.155 138.96 262.927 140.424C264.314 141.569 262.337 143.503 260.96 142.391C259.464 141.182 258.123 139.808 256.529 138.708C256.339 138.576 256.391 138.233 256.654 138.244ZM252.92 132.244C252.419 132.502 251.922 132.554 251.355 132.414C251.335 132.409 251.315 132.404 251.295 132.398L251.179 132.36C251.229 132.897 251.281 133.434 251.332 133.971C251.79 133.327 252.32 132.743 252.92 132.244ZM250.679 99.8412C250.48 101.506 250.35 103.18 250.281 104.855C250.214 106.488 250.186 108.126 250.178 109.764L250.176 110.466L250.179 110.453C250.953 107.149 252.048 103.899 253.446 100.788C253.205 100.828 252.96 100.821 252.72 100.792C252.169 100.726 251.641 100.481 251.169 100.196C250.997 100.091 250.835 99.9699 250.679 99.8412ZM273.64 80.54C272.678 80.975 271.749 81.475 270.784 81.9C268.869 82.7433 266.995 83.7234 265.223 84.8363C263.43 85.9625 261.703 87.1483 260.114 88.5528C259.928 88.7175 259.744 88.884 259.559 89.0503C259.522 89.4136 259.495 89.7782 259.483 90.1459C259.476 90.3435 259.476 90.5502 259.479 90.7626C262.476 87.0476 266.101 84.1167 270.699 82.273C271.496 81.9533 272.306 81.6687 273.124 81.4054C273.318 81.1351 273.493 80.8481 273.64 80.54ZM273.555 76.9765C273.021 76.2665 271.484 76.3244 270.514 76.4827C268.949 76.7387 267.568 77.2866 266.225 78.0801C264.638 79.0174 263.268 80.2873 262.197 81.7809C262.724 81.4834 263.262 81.2026 263.81 80.942L264.186 80.7645C266.263 79.7903 268.513 78.8641 270.786 78.5621C271.837 78.4223 272.968 78.2201 274.029 78.334C273.977 77.8176 273.824 77.3332 273.555 76.9765Z" fill="black"/>
<path fill-rule="evenodd" clip-rule="evenodd" d="M313.723 154.486C312.261 153.781 310.588 153.83 309.053 154.296C307.239 154.847 305.631 155.993 304.201 157.213C303.643 157.689 303.113 158.227 302.58 158.767C301.903 159.454 301.225 160.148 300.471 160.71C300.719 158.592 302.205 156.441 303.48 154.886C305.046 152.977 307.226 151.431 309.582 150.682C312.09 149.885 314.68 150.324 316.712 151.617C318.725 152.9 320.192 155.022 320.488 157.618C320.55 158.164 320.295 158.664 319.917 159.041C319.476 159.483 318.856 159.773 318.279 159.773C317.69 159.773 317.167 159.536 316.78 159.157C316.373 158.76 316.113 158.209 316.076 157.611C316.052 156.972 315.903 156.413 315.367 155.741C315.007 155.289 314.331 154.779 313.723 154.486ZM317.441 132.196C316.834 132.418 316.129 132.95 315.924 133.534C315.879 133.662 315.853 133.794 315.852 133.927C315.654 133.525 315.579 133.052 315.604 132.583C315.686 131.097 317.104 130.018 318.311 129.387C318.741 129.163 319.181 129.015 319.62 128.936L321.175 128.659L319.715 128.056C318.368 127.5 317.106 126.735 315.98 125.798C314.903 124.904 313.907 123.748 313.324 122.472C313.061 121.896 312.853 121.332 312.708 120.723L312.669 120.552C312.598 120.224 312.519 120.057 312.432 119.871C312.381 119.762 312.325 119.645 312.265 119.454C312.231 119.347 312.213 119.258 312.244 119.188C312.274 119.12 312.348 119.091 312.42 119.064C312.897 118.884 313.664 119.007 313.99 119.137C314.779 119.452 315.471 120.139 316.138 120.783C316.464 121.097 316.783 121.404 317.099 121.666C319.118 123.341 321.639 124.294 324.102 124.526L324.25 124.54C324.902 124.593 325.505 124.85 325.933 125.278C326.316 125.661 326.552 126.181 326.552 126.805C326.552 127.413 326.279 127.998 325.855 128.422C325.45 128.828 324.901 129.09 324.306 129.07C323.888 129.054 323.472 129.017 323.061 128.962L321.528 128.756L322.697 129.768C322.93 129.969 323.148 130.199 323.345 130.466C324.412 131.92 324.869 134.134 324.83 135.913C324.822 136.252 324.728 136.603 324.556 136.904C324.404 137.167 324.193 137.395 323.919 137.537C323.591 137.706 323.313 137.798 322.941 137.804C322.535 137.813 322.191 137.684 321.909 137.469C321.555 137.2 321.295 136.803 321.117 136.37C320.881 135.795 320.866 135.186 320.843 134.579C320.827 134.159 320.81 133.738 320.74 133.324C320.639 132.794 320.4 132.12 320.099 131.907C319.653 131.593 318.468 131.835 317.731 132.092L317.441 132.196ZM311.106 137.516C312.847 138.575 315.5 141.043 313.627 143.667C311.423 145.982 308.248 143.328 306.684 142.129C305.234 141.199 303.605 143.59 304.95 144.677C316.252 153.048 320.839 137.793 311.987 136.271C311.012 136.104 310.65 137.189 311.106 137.516ZM298.758 134.155C298.283 133.618 297.819 133.118 297.103 132.833C296.256 132.495 295.23 132.459 294.35 132.712C293.351 132.999 292.56 133.661 291.974 134.507C291.46 135.251 291.105 136.134 290.903 137.007C290.526 136.593 290.349 136.114 290.264 135.626C290.124 134.823 290.224 133.996 290.496 133.209C291.105 131.458 292.573 129.901 294.283 129.231C296.235 128.466 298.651 128.721 300.446 129.799C301.361 130.349 302.416 131.302 302.948 132.235C303.31 132.874 303.331 133.534 303.101 134.101C302.846 134.726 302.298 135.233 301.599 135.487C301.267 135.608 300.927 135.599 300.603 135.512C300.181 135.401 299.787 135.163 299.467 134.886C299.199 134.656 298.977 134.403 298.758 134.155ZM301.676 123.11C301.275 123.647 300.684 123.921 300.07 123.95C300.007 123.952 299.944 123.953 299.881 123.951C299.841 123.996 299.797 124.047 299.745 124.106C299.625 124.243 299.546 124.333 299.464 124.42C299.169 124.735 298.858 125.035 298.534 125.321C297.812 125.959 297.036 126.518 296.196 126.987C294.724 127.81 293.11 128.451 291.45 128.757C289.803 129.061 288.177 129.155 286.519 128.917L286.117 128.859C285.159 128.718 283.903 128.535 283.116 127.942C283.426 127.843 283.739 127.838 284.046 127.824C284.248 127.816 284.448 127.806 284.643 127.789C285.572 127.704 286.473 127.55 287.372 127.301C289.119 126.818 290.702 126.15 292.245 125.193C293.756 124.254 295.145 122.977 296.252 121.579L296.384 121.409C296.441 121.336 296.496 121.263 296.551 121.191C297.004 120.6 297.419 120.036 298.122 119.66C298.68 119.363 299.243 119.283 299.785 119.368C300.414 119.468 301.011 119.784 301.54 120.228C301.932 120.555 302.113 121.027 302.141 121.511C302.175 122.08 302.002 122.673 301.676 123.11Z" fill="black"/>
</g>
<defs>
<clipPath id="clip0_89_688">
<rect width="559.175" height="333" fill="white" transform="translate(0.912598)"/>
</clipPath>
</defs>
</svg>
