<svg width="759" height="500" viewBox="0 0 759 500" fill="none" xmlns="http://www.w3.org/2000/svg">
<g clip-path="url(#clip0_89_675)">
<path d="M86.9362 569.911L95.0784 571.889L90.2389 577.612L86.9362 569.911Z" fill="#89E7D0"/>
<path d="M133.414 609.218L142.574 611.443L137.129 617.881L133.414 609.218Z" fill="#89E7D0"/>
<path d="M180.249 648.827L189.409 651.053L183.965 657.491L180.249 648.827Z" fill="#89E7D0"/>
<path d="M227.442 688.739L235.585 690.717L230.745 696.44L227.442 688.739Z" fill="#89E7D0"/>
<path d="M32.5172 443.555L41.6772 445.78L36.2327 452.218L32.5172 443.555Z" fill="#89E7D0"/>
<path d="M78.6117 482.537L89.8799 485.275L83.1824 493.195L78.6117 482.537Z" fill="#89E7D0"/>
<path d="M124.732 521.542L138.036 524.774L130.128 534.124L124.732 521.542Z" fill="#89E7D0"/>
<path d="M170.826 560.524L186.238 564.269L177.078 575.101L170.826 560.524Z" fill="#89E7D0"/>
<path d="M217.662 600.134L233.074 603.878L223.913 614.71L217.662 600.134Z" fill="#89E7D0"/>
<path d="M265.238 640.37L278.542 643.602L270.634 652.952L265.238 640.37Z" fill="#89E7D0"/>
<path d="M312.789 680.584L324.057 683.322L317.359 691.241L312.789 680.584Z" fill="#89E7D0"/>
<path d="M360.365 720.82L369.525 723.045L364.08 729.483L360.365 720.82Z" fill="#89E7D0"/>
<path d="M25.2912 357.11L34.4511 359.335L29.0066 365.773L25.2912 357.11Z" fill="#89E7D0"/>
<path d="M71.028 395.79L83.314 398.775L76.0115 407.41L71.028 395.79Z" fill="#89E7D0"/>
<path d="M116.765 434.47L132.177 438.215L123.016 449.047L116.765 434.47Z" fill="#89E7D0"/>
<path d="M162.502 473.151L181.04 477.655L170.021 490.684L162.502 473.151Z" fill="#89E7D0"/>
<path d="M208.239 511.831L229.903 517.095L217.026 532.321L208.239 511.831Z" fill="#89E7D0"/>
<path d="M255.074 551.44L276.738 556.704L263.861 571.93L255.074 551.44Z" fill="#89E7D0"/>
<path d="M303.008 591.979L321.546 596.483L310.527 609.512L303.008 591.979Z" fill="#89E7D0"/>
<path d="M350.942 632.517L366.354 636.262L357.193 647.094L350.942 632.517Z" fill="#89E7D0"/>
<path d="M398.876 673.055L411.162 676.041L403.859 684.675L398.876 673.055Z" fill="#89E7D0"/>
<path d="M446.81 713.594L455.969 715.819L450.525 722.257L446.81 713.594Z" fill="#89E7D0"/>
<path d="M64.1596 309.648L75.4279 312.386L68.7303 320.305L64.1596 309.648Z" fill="#89E7D0"/>
<path d="M109.539 348.026L124.951 351.77L115.79 362.602L109.539 348.026Z" fill="#89E7D0"/>
<path d="M154.918 386.404L174.474 391.155L162.85 404.899L154.918 386.404Z" fill="#89E7D0"/>
<path d="M200.272 424.76L224.044 430.536L209.914 447.243L200.272 424.76Z" fill="#89E7D0"/>
<path d="M245.651 463.138L273.567 469.92L256.974 489.54L245.651 463.138Z" fill="#89E7D0"/>
<path d="M292.486 502.747L320.402 509.53L303.81 529.15L292.486 502.747Z" fill="#89E7D0"/>
<path d="M340.778 543.588L364.55 549.364L350.42 566.071L340.778 543.588Z" fill="#89E7D0"/>
<path d="M389.095 584.45L408.651 589.202L397.027 602.946L389.095 584.45Z" fill="#89E7D0"/>
<path d="M437.386 625.291L452.798 629.036L443.638 639.867L437.386 625.291Z" fill="#89E7D0"/>
<path d="M485.678 666.132L496.946 668.87L490.249 676.789L485.678 666.132Z" fill="#89E7D0"/>
<path d="M58.0321 224.132L66.1743 226.111L61.3347 231.833L58.0321 224.132Z" fill="#89E7D0"/>
<path d="M103.054 262.208L116.357 265.44L108.45 274.79L103.054 262.208Z" fill="#89E7D0"/>
<path d="M148.05 300.261L166.588 304.766L155.569 317.794L148.05 300.261Z" fill="#89E7D0"/>
<path d="M193.046 338.315L216.818 344.091L202.688 360.799L193.046 338.315Z" fill="#89E7D0"/>
<path d="M238.067 376.39L267.001 383.421L249.803 403.756L238.067 376.39Z" fill="#89E7D0"/>
<path d="M283.063 414.444L317.231 422.746L296.923 446.76L283.063 414.444Z" fill="#89E7D0"/>
<path d="M329.899 454.054L364.067 462.355L343.758 486.369L329.899 454.054Z" fill="#89E7D0"/>
<path d="M378.573 495.218L407.507 502.249L390.31 522.584L378.573 495.218Z" fill="#89E7D0"/>
<path d="M427.223 536.362L450.995 542.138L436.865 558.845L427.223 536.362Z" fill="#89E7D0"/>
<path d="M475.897 577.527L494.435 582.031L483.417 595.06L475.897 577.527Z" fill="#89E7D0"/>
<path d="M524.572 618.692L537.876 621.924L529.968 631.274L524.572 618.692Z" fill="#89E7D0"/>
<path d="M573.221 659.835L581.363 661.813L576.524 667.536L573.221 659.835Z" fill="#89E7D0"/>
<path d="M97.2838 176.994L106.444 179.22L100.999 185.658L97.2838 176.994Z" fill="#89E7D0"/>
<path d="M141.922 214.746L157.334 218.49L148.174 229.322L141.922 214.746Z" fill="#89E7D0"/>
<path d="M186.56 252.497L208.225 257.761L195.348 272.986L186.56 252.497Z" fill="#89E7D0"/>
<path d="M231.199 290.248L259.115 297.031L242.522 316.651L231.199 290.248Z" fill="#89E7D0"/>
<path d="M275.837 328L310.005 336.301L289.697 360.315L275.837 328Z" fill="#89E7D0"/>
<path d="M320.476 365.751L360.896 375.572L336.871 403.98L320.476 365.751Z" fill="#89E7D0"/>
<path d="M367.311 405.36L407.731 415.181L383.706 443.589L367.311 405.36Z" fill="#89E7D0"/>
<path d="M416.343 446.828L450.511 455.129L430.203 479.143L416.343 446.828Z" fill="#89E7D0"/>
<path d="M465.376 488.295L493.292 495.078L476.699 514.697L465.376 488.295Z" fill="#89E7D0"/>
<path d="M514.408 529.762L536.072 535.026L523.196 550.252L514.408 529.762Z" fill="#89E7D0"/>
<path d="M563.44 571.23L578.853 574.974L569.692 585.806L563.44 571.23Z" fill="#89E7D0"/>
<path d="M612.473 612.697L621.633 614.923L616.188 621.36L612.473 612.697Z" fill="#89E7D0"/>
<path d="M136.893 130.159L146.053 132.385L140.609 138.822L136.893 130.159Z" fill="#89E7D0"/>
<path d="M181.531 167.91L196.943 171.655L187.783 182.487L181.531 167.91Z" fill="#89E7D0"/>
<path d="M226.17 205.662L247.834 210.925L234.957 226.151L226.17 205.662Z" fill="#89E7D0"/>
<path d="M270.808 243.413L298.724 250.196L282.132 269.815L270.808 243.413Z" fill="#89E7D0"/>
<path d="M315.447 281.164L349.615 289.466L329.306 313.48L315.447 281.164Z" fill="#89E7D0"/>
<path d="M360.085 318.915L400.505 328.736L376.48 357.144L360.085 318.915Z" fill="#89E7D0"/>
<path d="M406.92 358.525L447.34 368.346L423.316 396.754L406.92 358.525Z" fill="#89E7D0"/>
<path d="M455.953 399.992L490.121 408.294L469.812 432.308L455.953 399.992Z" fill="#89E7D0"/>
<path d="M504.985 441.46L532.901 448.242L516.308 467.862L504.985 441.46Z" fill="#89E7D0"/>
<path d="M554.017 482.927L575.681 488.191L562.805 503.416L554.017 482.927Z" fill="#89E7D0"/>
<path d="M603.05 524.394L618.462 528.139L609.301 538.971L603.05 524.394Z" fill="#89E7D0"/>
<path d="M652.082 565.862L661.242 568.087L655.798 574.525L652.082 565.862Z" fill="#89E7D0"/>
<path d="M176.86 83.6261L185.002 85.6044L180.163 91.3268L176.86 83.6261Z" fill="#89E7D0"/>
<path d="M221.882 121.701L235.185 124.934L227.278 134.284L221.882 121.701Z" fill="#89E7D0"/>
<path d="M266.878 159.755L285.416 164.259L274.397 177.288L266.878 159.755Z" fill="#89E7D0"/>
<path d="M311.874 197.809L335.646 203.585L321.516 220.292L311.874 197.809Z" fill="#89E7D0"/>
<path d="M356.895 235.884L385.829 242.914L368.631 263.25L356.895 235.884Z" fill="#89E7D0"/>
<path d="M401.891 273.938L436.059 282.24L415.751 306.254L401.891 273.938Z" fill="#89E7D0"/>
<path d="M448.727 313.547L482.895 321.849L462.586 345.863L448.727 313.547Z" fill="#89E7D0"/>
<path d="M497.401 354.712L526.335 361.742L509.138 382.078L497.401 354.712Z" fill="#89E7D0"/>
<path d="M546.051 395.856L569.823 401.632L555.693 418.339L546.051 395.856Z" fill="#89E7D0"/>
<path d="M594.725 437.021L613.263 441.525L602.245 454.554L594.725 437.021Z" fill="#89E7D0"/>
<path d="M643.4 478.185L656.704 481.418L648.796 490.768L643.4 478.185Z" fill="#89E7D0"/>
<path d="M692.049 519.329L700.191 521.307L695.352 527.029L692.049 519.329Z" fill="#89E7D0"/>
<path d="M262.206 75.471L273.475 78.2089L266.777 86.1283L262.206 75.471Z" fill="#89E7D0"/>
<path d="M307.586 113.849L322.998 117.594L313.837 128.425L307.586 113.849Z" fill="#89E7D0"/>
<path d="M352.965 152.227L372.521 156.978L360.897 170.722L352.965 152.227Z" fill="#89E7D0"/>
<path d="M398.318 190.583L422.091 196.359L407.961 213.066L398.318 190.583Z" fill="#89E7D0"/>
<path d="M443.698 228.961L471.614 235.744L455.021 255.363L443.698 228.961Z" fill="#89E7D0"/>
<path d="M490.533 268.57L518.449 275.353L501.856 294.973L490.533 268.57Z" fill="#89E7D0"/>
<path d="M538.824 309.411L562.597 315.187L548.467 331.894L538.824 309.411Z" fill="#89E7D0"/>
<path d="M587.142 350.273L606.697 355.025L595.074 368.769L587.142 350.273Z" fill="#89E7D0"/>
<path d="M635.433 391.114L650.845 394.859L641.685 405.691L635.433 391.114Z" fill="#89E7D0"/>
<path d="M683.725 431.955L694.993 434.693L688.295 442.612L683.725 431.955Z" fill="#89E7D0"/>
<path d="M302.556 29.2622L311.716 31.4878L306.272 37.9256L302.556 29.2622Z" fill="#89E7D0"/>
<path d="M348.293 67.9425L360.579 70.9277L353.277 79.5624L348.293 67.9425Z" fill="#89E7D0"/>
<path d="M394.03 106.623L409.442 110.368L400.282 121.199L394.03 106.623Z" fill="#89E7D0"/>
<path d="M439.767 145.303L458.305 149.807L447.286 162.836L439.767 145.303Z" fill="#89E7D0"/>
<path d="M485.504 183.983L507.168 189.247L494.291 204.473L485.504 183.983Z" fill="#89E7D0"/>
<path d="M532.339 223.593L554.003 228.857L541.127 244.082L532.339 223.593Z" fill="#89E7D0"/>
<path d="M580.273 264.131L598.811 268.635L587.793 281.664L580.273 264.131Z" fill="#89E7D0"/>
<path d="M628.207 304.669L643.619 308.414L634.458 319.246L628.207 304.669Z" fill="#89E7D0"/>
<path d="M676.141 345.208L688.427 348.193L681.124 356.828L676.141 345.208Z" fill="#89E7D0"/>
<path d="M724.075 385.746L733.235 387.972L727.79 394.41L724.075 385.746Z" fill="#89E7D0"/>
<path d="M389.001 22.0361L398.161 24.2618L392.717 30.6995L389.001 22.0361Z" fill="#89E7D0"/>
<path d="M435.096 61.0189L446.364 63.7568L439.666 71.6762L435.096 61.0189Z" fill="#89E7D0"/>
<path d="M481.216 100.023L494.519 103.256L486.612 112.606L481.216 100.023Z" fill="#89E7D0"/>
<path d="M527.31 139.006L542.722 142.751L533.562 153.583L527.31 139.006Z" fill="#89E7D0"/>
<path d="M574.146 178.615L589.558 182.36L580.397 193.192L574.146 178.615Z" fill="#89E7D0"/>
<path d="M621.722 218.851L635.026 222.084L627.118 231.434L621.722 218.851Z" fill="#89E7D0"/>
<path d="M669.273 259.066L680.541 261.803L673.843 269.723L669.273 259.066Z" fill="#89E7D0"/>
<path d="M716.849 299.301L726.009 301.527L720.564 307.965L716.849 299.301Z" fill="#89E7D0"/>
<path d="M522.639 54.7219L530.781 56.7002L525.941 62.4227L522.639 54.7219Z" fill="#89E7D0"/>
<path d="M569.117 94.0288L578.277 96.2544L572.832 102.692L569.117 94.0288Z" fill="#89E7D0"/>
<path d="M615.952 133.638L625.112 135.864L619.667 142.301L615.952 133.638Z" fill="#89E7D0"/>
<path d="M663.145 173.55L671.287 175.528L666.448 181.251L663.145 173.55Z" fill="#89E7D0"/>
</g>
<path fill-rule="evenodd" clip-rule="evenodd" d="M292.459 448.046C295.871 448.256 299.282 448.422 302.692 448.55C347.296 450.212 391.863 445.126 436.44 444.013C451.962 443.604 467.406 443.808 482.89 445.054C484.407 445.177 486.142 443.544 485.955 441.988C483.095 417.286 479.515 392.651 477.66 367.847C477.659 366.534 477.829 365.225 478.28 363.989C478.365 363.892 478.804 362.805 479.197 362.738C479.069 362.833 479.649 362.666 479.279 362.695C481.518 362.329 483.714 359.911 482.088 357.598C465.353 331.937 442.508 308.517 435.158 278.038C433.421 269.798 427.149 269.288 420.466 265.89C418.382 264.649 413.284 261.213 412.454 258.825C410.472 250.214 413.962 241.78 403.766 238.297C397.035 236.43 385.138 234.85 378.327 236.818C370.02 239.585 370.641 248.95 365.822 255.393C363.33 259.12 359.081 264.222 355.158 264.794C353.257 265.071 351.856 261.223 349.958 261.487C320.364 268.677 280.046 317.727 267.327 344.88C264.46 353.424 273.704 350.847 273.136 359.436C272.436 375.73 270.905 396.59 271.813 412.904C272.664 422.372 272.034 432.294 274.976 441.406C274.185 442.367 275.322 443.34 276.251 443.757C277.42 445.747 288.93 447.769 292.459 448.046Z" fill="white" fill-opacity="0.7"/>
<path fill-rule="evenodd" clip-rule="evenodd" d="M369.502 245.131C370.273 241.667 375.781 243.153 374.837 246.602C373.375 251.935 370.344 256.976 366.063 260.513C362.759 263.245 358.254 265.68 353.785 266.131C354.203 266.54 354.605 266.975 355.027 267.391C355.98 268.338 356.991 269.216 358.034 270.06C360.177 271.793 362.405 273.352 364.838 274.658C374.558 279.875 385.538 281.078 396.394 279.863C401.545 279.287 406.774 278.309 411.619 276.425C413.865 275.553 416.047 274.407 417.973 272.958L418.477 272.581C419.49 271.815 420.842 270.736 421.474 269.555C419.548 269.988 417.113 267.936 415.776 266.742C414.314 265.431 413.084 263.74 412.175 262.006C410.393 258.606 409.45 254.219 410.943 250.573C411.043 250.33 411.361 250.371 411.391 250.632C411.832 254.884 412.977 258.868 416.027 262.016C417.381 263.409 419.002 264.579 420.772 265.39L421.02 265.505C421.774 265.853 422.568 266.263 422.885 267.009C423.008 266.996 423.131 267.006 423.247 267.039C423.353 267.067 423.449 267.098 423.543 267.132C423.333 266.719 423.222 266.231 423.241 265.655C423.315 263.423 426.38 263.355 426.803 265.342C426.727 265.08 426.624 265.334 426.818 265.413C426.814 265.39 426.809 265.365 426.803 265.342L426.809 265.364L426.821 265.413H426.818C426.825 265.45 426.832 265.486 426.836 265.524L426.84 265.574L426.837 265.532C426.834 265.501 426.832 265.474 426.828 265.448L426.821 265.413C426.849 265.427 426.888 265.436 426.934 265.436L426.953 265.443C427.025 265.474 427.277 265.591 427.351 265.621C427.861 265.81 428.43 265.869 428.952 266.031C430.084 266.379 431.08 266.955 431.771 267.936C432.266 268.64 432.542 269.446 432.657 270.285C437.664 272.694 442.402 275.823 446.371 279.698C455.23 288.341 461.407 299.158 466.477 310.356C469.058 316.057 471.357 321.878 473.606 327.716L473.96 328.637C476.371 334.911 478.503 341.253 479.026 347.998C479.075 348.603 478.875 349.17 478.531 349.641C478.653 350.148 478.716 350.655 478.698 351.152C478.696 351.229 478.69 351.305 478.685 351.382C479.494 351.368 480.286 351.707 481.039 352.66C481.343 352.563 481.674 352.55 481.999 352.656C483.979 353.29 484.299 355.464 484.671 357.286C485.057 359.167 485.224 361.095 485.227 363.013C485.227 363.699 484.834 364.567 484.166 364.861C482.913 365.412 481.563 365.775 480.266 366.277C479.292 366.653 478.314 367.009 477.328 367.342C477.876 368.297 478.052 369.626 478.348 370.632C478.813 372.203 479.185 373.78 479.5 375.388C481.625 386.319 483.098 397.369 485.088 408.323C486.082 413.811 487.239 419.262 488.419 424.712C488.999 427.391 489.618 430.065 490.282 432.728C490.635 434.147 491.003 435.567 491.382 436.978C491.492 437.39 491.603 437.8 491.717 438.212L491.915 438.931C492.348 439.169 492.719 439.532 492.975 440.027C493.913 441.841 493.373 443.885 491.575 444.906C489.621 446.017 487.287 444.968 486.21 443.163C485.452 441.89 485.204 440.201 484.831 438.785C484.409 437.195 484.007 435.595 483.62 433.996C480.987 423.131 479.225 412.077 477.895 400.981L477.802 400.187C477.126 394.475 476.473 388.749 476.051 383.01C475.843 380.191 475.679 377.372 475.576 374.546C475.525 373.092 475.607 371.63 475.689 370.179C475.727 369.544 475.781 368.904 475.801 368.269L475.807 368.179C475.812 368.114 475.82 368.03 475.826 367.941L475.832 367.833C473.866 368.448 471.871 368.962 469.857 369.395C465.571 370.322 461.186 370.838 456.812 370.575C457.422 377.822 458.216 385.05 459.328 392.231C460.4 399.148 461.635 406.048 463.033 412.908C463.73 416.354 464.485 419.792 465.281 423.218C465.707 425.048 466.195 426.866 466.58 428.706C466.808 429.8 466.879 430.714 466.421 431.738C466.925 433.115 467.374 434.497 467.815 435.8L467.947 436.189C468.728 438.468 470.209 440.8 468.662 443.04C467.862 444.198 466.557 444.86 465.243 444.899C465.22 444.914 465.195 444.931 465.169 444.945C464.462 445.324 463.648 445.398 462.872 445.236C461.696 445.467 460.516 445.689 459.333 445.892C456.413 446.396 453.478 446.812 450.538 447.164C444.938 447.83 439.301 448.195 433.669 448.398C413.043 449.141 392.396 447.835 371.763 448.212C361.251 448.403 350.739 448.877 340.244 449.504C335.007 449.817 329.766 450.154 324.526 450.413L322.904 450.492C318.218 450.716 313.528 450.889 308.845 450.546C308.754 450.541 308.683 450.503 308.635 450.453C307.019 450.27 305.395 448.782 305.557 447.064C306.255 439.743 306.953 432.423 307.654 425.099C308.9 412.053 310.156 399.005 311.427 385.959L311.611 384.076C312.038 379.681 312.445 375.276 312.652 370.863C311.609 370.79 310.57 370.695 309.529 370.581C298.258 369.347 287.453 365.936 277.078 361.456L276.657 361.274C275.723 360.866 274.7 360.458 273.651 360.023C273.668 362.015 273.603 364.011 273.594 365.983C273.58 369.259 273.605 372.534 273.614 375.806C273.634 382.551 273.89 389.298 274.227 396.032C274.817 407.924 275.509 419.8 276.558 431.664C276.823 434.648 277.182 437.628 277.435 440.613C277.587 442.371 277.224 443.836 275.615 444.76C274.822 445.216 274.21 445.024 273.423 444.658C271.503 443.757 271.449 441.627 271.266 439.774C271.127 438.378 270.998 436.98 270.873 435.58C270.605 432.597 270.374 429.612 270.186 426.621C269.443 414.739 269.226 402.87 269.739 390.974C269.977 385.41 270.321 379.835 270.777 374.28L270.884 372.999C271.26 368.56 271.503 363.902 272.281 359.436C269.143 358.044 266.034 356.274 264.593 353.331C262.724 349.512 264.778 346.245 267.704 343.997C267.676 343.618 267.704 343.241 267.784 342.899C268.625 339.258 270.032 335.661 271.391 332.189C272.762 328.7 274.275 325.265 275.939 321.904C282.618 308.44 291.743 296.137 302.619 285.772C308.022 280.625 313.935 275.866 320.246 271.875C323.375 269.901 326.584 268.076 329.906 266.451L330.397 266.212C332.71 265.088 335.304 263.895 337.876 263.27C338.144 263.071 338.415 262.882 338.688 262.702C339.7 262.029 341.073 262.516 341.672 263.478C341.963 263.253 342.299 263.053 342.683 262.874L343.064 262.7C345.371 261.66 348.142 260.687 350.648 261.371C352.203 261.796 353.429 262.941 353.979 264.402C355.241 263.734 356.48 263.048 357.691 262.206C359.638 260.861 361.402 259.19 362.987 257.437C366.163 253.911 368.471 249.78 369.502 245.131ZM479.748 356.305C479.531 356.367 479.303 356.39 479.067 356.362C479.493 356.412 478.638 356.665 478.403 356.786L478.386 356.795C477.958 357.04 477.528 357.276 477.092 357.506C476.074 358.041 475.034 358.523 473.976 358.976C471.894 359.863 469.743 360.545 467.535 361.044C465.374 361.53 463.109 361.815 460.895 361.861C459.414 361.889 457.655 361.822 456.122 361.385C456.3 364.073 456.495 366.758 456.715 369.441L459.743 368.746C462.77 368.052 465.795 367.34 468.782 366.474C471.025 365.824 473.236 365.063 475.422 364.242C476.567 363.811 477.704 363.355 478.827 362.864C479.385 362.62 479.91 362.33 480.428 362.036L480.87 361.784C480.768 360.584 480.579 359.406 480.306 358.221C480.163 357.593 479.92 356.95 479.748 356.305ZM272.423 343.646C272.038 344.895 271.448 346.06 270.103 346.342C269.628 346.442 269.229 346.388 268.898 346.226L268.819 346.385C267.713 348.657 267.388 351.053 269.933 352.801C271.081 353.592 272.332 354.275 273.625 354.888C275.939 355.99 278.403 356.875 280.725 357.776L281.188 357.956C285.343 359.587 289.563 361.072 293.848 362.314C298.197 363.571 302.622 364.58 307.102 365.222C308.991 365.49 310.894 365.678 312.801 365.801C312.832 363.235 312.817 360.667 312.809 358.101C312.131 358.016 311.458 357.924 310.809 357.847C308.831 357.616 306.859 357.334 304.899 356.984C300.804 356.251 296.752 355.239 292.8 353.945C285.477 351.542 278.663 348.106 272.423 343.646ZM352.714 265.06C351.05 263.299 347.867 263.934 345.858 264.789C345.251 265.048 344.638 265.311 344.057 265.627L343.944 265.69C343.267 266.08 343.271 266.312 343.601 267.089C344.031 268.112 344.63 269.101 345.2 270.05C347.639 274.125 350.85 277.671 354.518 280.667C367.505 291.271 386.164 295.011 402.406 291.459C410.201 289.756 417.721 286.319 423.458 280.681L423.982 280.162C426.295 277.845 429.471 274.493 429.249 271.061C429.143 269.41 427.795 269.315 426.419 268.996C425.855 268.865 425.316 268.68 424.849 268.417C425.225 270.04 423.222 272.451 422.188 273.463C420.019 275.587 417.409 277.246 414.648 278.486C409.394 280.849 403.677 281.967 397.987 282.674C391.529 283.477 384.934 283.406 378.524 282.218C372.949 281.183 367.451 279.225 362.653 276.174C360.454 274.777 358.285 273.184 356.449 271.328L356.059 270.934C354.735 269.591 353.193 267.968 352.4 266.205C352.098 266.208 351.799 266.2 351.5 266.18C351.289 266.169 351.175 265.869 351.386 265.757C351.622 265.632 351.859 265.508 352.095 265.385C352.056 265.253 352.021 265.125 351.993 264.994C351.97 264.883 352.087 264.781 352.189 264.843C352.332 264.928 352.469 265.02 352.603 265.117C352.64 265.099 352.677 265.08 352.714 265.06Z" fill="black"/>
<path fill-rule="evenodd" clip-rule="evenodd" d="M437.27 183.797C436.593 175.033 437.642 165.847 434.263 157.517C428.375 143.696 411.86 139.087 399.057 133.826C393.927 132.309 376.668 132.097 370.662 130.091C357.071 125.549 353.823 120.138 343.023 128.785C341.2 130.263 340.059 131.868 339.227 134.062L339.261 134.071C339.024 134.985 339.279 135.898 339.814 136.595C335.131 141.383 333.171 148.562 335.574 154.937C343.415 171.524 343.046 180.493 340.52 198.326C337.221 214.972 344.76 221.054 357.245 230.112C356.736 231.098 356.631 232.409 357.295 233.279C371.732 253.575 398.954 263.265 422.278 252.964C431.745 248.748 435.972 238.662 438.384 229.561C441.195 219.371 442.058 208.632 439.77 198.25C438.848 193.45 437.645 188.684 437.27 183.797Z" fill="white" fill-opacity="0.7"/>
<path fill-rule="evenodd" clip-rule="evenodd" d="M353.991 86.6995C355.743 86.4362 357.067 87.5239 357.696 89.057L357.729 89.1396C357.932 89.6613 358.157 90.1687 358.398 90.6676C362.785 88.5154 369.042 89.0684 371.817 93.4269C373.797 96.5398 372.589 100.234 371.843 103.535L371.353 105.71C372.3 106.313 373.015 107.393 372.981 108.512L372.977 108.598L372.778 111.631C373.41 110.99 373.989 110.291 374.504 109.547C374.86 108.894 375.245 108.253 375.659 107.632C378.089 103.974 383.546 107.153 381.539 111.069C381.155 111.825 380.722 112.54 380.258 113.23C379.733 114.248 379.303 115.294 378.973 116.369C379.921 116.782 380.65 117.7 380.727 119.085C380.907 122.321 379.209 125.02 376.507 126.716C375.713 127.215 374.893 127.312 374.148 127.127C374.017 127.304 373.886 127.48 373.761 127.66C374.837 128.535 375.81 129.533 376.645 130.639C379.157 130.263 381.685 130.086 384.212 130.08C387.301 128.567 390.999 128.598 394.32 129.165C396.457 129.53 398.508 130.24 400.612 130.75C402.828 131.286 405.079 131.306 407.322 131.671C410.149 132.13 412.628 133.435 414.186 135.519C415.899 135.571 417.7 136.272 419.193 137.224C422.67 139.442 426.125 141.691 429.594 143.923C430.924 144.78 431.422 146.148 431.178 147.674L431.162 147.771L431.044 148.404L431.318 148.793C432.38 150.293 433.534 151.863 434.222 153.518C435.493 155.351 436.64 157.272 437.657 159.253C439.029 161.916 440.159 164.738 440.927 167.634C441.117 168.367 441.308 169.105 441.434 169.852C441.613 170.907 441.337 171.725 441.186 172.737C440.997 174.02 440.929 175.32 440.73 176.605C440.596 177.458 439.872 177.877 439.114 177.899C439.399 180.069 439.604 182.252 439.801 184.419C440.077 187.514 440.266 190.619 440.428 193.723C441.265 194.94 442.978 195.904 444.215 196.237C445.927 196.696 447.722 196.197 449.34 195.613C450.359 195.245 451.194 196.525 450.697 197.38C449.138 200.066 445.805 200.055 443.28 198.865C442.211 198.364 441.273 197.637 440.579 196.691C440.622 197.591 440.666 198.492 440.712 199.395L440.755 200.214C441.268 209.773 442.377 219.661 440.581 229.125C437.473 245.519 423.911 258.002 407.345 258.97C398.651 259.48 391.412 256.911 387.812 255.478C384.212 254.045 385.611 251.123 388.11 251.958C392.416 253.397 400.325 255.54 407.402 254.615C424.083 252.434 438.228 244.093 436.774 208.17C436.569 203.076 435.934 197.979 435.797 192.885C435.667 187.905 435.715 182.922 435.495 177.945L435.422 176.247C435.336 174.263 435.244 172.269 435.096 170.283C434.917 169.513 434.768 168.732 434.548 167.976C433.954 165.921 433.175 163.923 432.21 162.016C431.997 162.178 431.756 162.295 431.497 162.341C429.528 162.694 427.682 162.594 425.838 161.773C424.978 161.394 424.22 160.89 423.513 160.265C423.177 159.972 422.952 159.687 422.775 159.39C421.883 159.405 420.991 159.137 420.432 158.495C419.796 157.764 419.689 157.009 419.939 156.31L419.966 156.24L419.902 156.218C419.151 158.165 417.651 159.878 416.007 161.035C413.409 162.871 410.157 163.401 407.04 163.45C403.598 163.501 399.967 162.971 396.571 162.429C395.673 162.286 394.781 162.124 393.906 161.905C393.872 161.939 393.839 161.979 393.801 162.013C390.886 164.804 386.786 165.522 383.088 163.928C380.95 163.008 379.157 161.525 377.574 159.826C377.551 160.716 377.505 161.605 377.428 162.486L377.396 162.836C377.238 164.476 376.935 166.217 375.695 167.4C373.692 169.319 370.786 168.549 368.475 167.301C368.478 167.361 368.478 167.423 368.478 167.486C369.102 169.607 369.728 171.731 370.355 173.854L370.49 174.307C370.946 175.815 371.446 177.325 371.584 178.903C371.846 181.919 369.84 184.898 366.488 183.886C364.731 183.357 363.323 181.878 361.971 180.694L361.12 179.957C363.323 187.161 364.85 194.621 364.993 202.139C365.001 202.546 364.651 202.854 364.263 202.868C363.357 202.905 362.383 202.725 361.471 202.364C361.42 202.36 361.368 202.357 361.314 202.349C359.758 202.124 358.313 201.563 357.04 200.733C357.333 201.665 357.464 202.666 357.387 203.711C357.368 203.965 356.971 204.054 356.915 203.775C356.18 200.157 351.948 197.423 348.3 198.115C344.385 198.86 341.501 202.229 340.795 206.064C340.037 210.183 341.487 214.947 344.174 218.124C345.411 219.589 347.038 220.812 348.97 221.12C349.853 221.26 350.771 221.212 351.628 220.961C351.993 220.853 352.335 220.702 352.683 220.559C353.19 220.354 353.783 220.323 354.262 220.106C355.348 219.619 356.439 220.618 355.888 221.734C355.41 222.706 354.979 223.362 354.185 223.863C354.828 224.65 355.412 225.745 355.629 226.038C356.735 227.532 357.858 228.943 359.117 230.308C360.399 231.693 361.799 232.959 363.277 234.13L363.899 234.622C365.323 235.753 366.564 236.799 367.569 238.421C368.36 239.701 367.335 241.436 365.85 241.417C361.205 241.351 357.829 237.269 355.424 233.703C355.082 233.193 354.759 232.655 354.461 232.102C354.352 232.276 354.233 232.437 354.099 232.586L354.364 233.298C355.151 235.397 351.762 236.767 350.779 234.809C350.064 233.39 349.235 232.038 348.312 230.761C347.767 230.684 347.235 230.354 346.938 229.926C346.189 228.84 345.348 227.742 344.639 226.585C344.245 226.212 343.841 225.853 343.428 225.502C343.308 225.607 343.185 225.712 343.069 225.824C342.55 227.007 341.909 228.088 341.114 229.105L340.943 229.322C339.42 231.242 337.436 233.208 334.982 233.677C334.232 233.82 333.511 232.888 334.175 232.292C335.893 230.747 337.925 229.695 339.51 227.97C340.29 227.121 341.007 226.185 341.623 225.204L341.763 224.977C341.866 224.809 341.972 224.642 342.08 224.47C341.365 223.982 340.649 223.492 339.934 223.001C337.965 224.685 335.401 225.455 333.223 226.848L333.007 226.99C331.038 228.307 328.964 225.394 330.542 223.795C332.282 222.038 333.735 219.944 335.277 217.992C334.552 216.656 334.209 215.076 334.08 213.481C334.029 213.029 333.99 212.575 333.95 212.124C332.845 212.141 331.733 211.762 330.793 211.109L330.437 210.856C329.294 211.22 328.094 211.397 326.946 211.366C324.245 211.286 323.139 208.199 324.829 206.246C326.553 204.251 329.57 203.814 331.961 204.784C332.038 204.743 332.118 204.701 332.195 204.658C332.081 204.134 332.106 203.657 332.236 203.239L332.198 202.986C331.673 202.178 331.327 201.257 331.196 200.283C331.092 199.513 331.113 198.748 331.292 197.986C331.351 197.733 331.474 197.471 331.569 197.206C331.374 196.715 331.26 196.208 331.225 195.698C331.17 195.633 331.116 195.567 331.065 195.495C329.879 193.829 330.118 191.821 331.247 190.473C331.252 190.387 331.26 190.301 331.272 190.216C331.206 190.067 331.145 189.917 331.09 189.765C329.987 188.652 329.177 187.312 329.328 185.652C329.417 184.676 329.818 183.796 330.425 183.139C330.317 182.821 330.307 182.451 330.438 182.143C329.469 179.565 329.591 176.459 330.289 173.575C330.135 173.136 330.055 172.66 330.072 172.155C330.152 170.015 332.004 168.048 334.198 168.073C334.462 168.076 334.71 168.11 334.947 168.161L334.95 168.11C335.034 167.467 335.211 166.873 335.469 166.34C335.342 166.294 335.225 166.229 335.122 166.141C333.716 166.891 332.228 167.465 330.668 167.856C329.522 168.143 328.347 166.839 329.06 165.762C329.39 165.262 329.755 164.814 330.149 164.404C329.59 164.407 329.022 164.445 328.448 164.519C327.416 164.653 326.265 163.948 325.595 162.996C324.763 163.806 323.928 164.613 323.094 165.419C320.979 167.469 317.785 165.961 317.452 163.259C316.822 163.09 316.235 162.805 315.719 162.398C312.385 163.846 308.798 164.641 305.13 164.792C302.497 164.901 300.959 161.833 302.19 159.667C303.016 158.213 304.042 156.907 305.224 155.773C303.389 156.334 301.494 156.739 299.56 156.999C298.514 157.138 297.035 156.272 296.616 155.311C295.015 151.617 295.151 147.765 296.995 144.171C297.066 144.028 297.146 143.891 297.223 143.755C297.414 143.279 297.622 142.808 297.847 142.346C295.579 139.98 295.382 136.463 296.605 133.518C296.114 132.723 295.926 131.765 296.26 130.898C297.209 128.404 298.576 126.101 300.303 124.122C300.138 123.803 299.993 123.464 299.87 123.099C298.898 120.149 300.024 116.588 302.295 114.533C303.723 113.239 305.364 112.463 307.116 111.967C307.854 110.662 308.803 109.484 309.909 108.492C309.952 108.398 309.994 108.304 310.043 108.21C311.764 104.966 314.898 103.227 318.258 102.825C318.389 101.557 319.244 100.345 320.486 99.952C320.828 98.8545 321.338 97.8055 322.039 96.8534C323.142 95.354 324.974 94.647 326.701 95.6305C327.647 96.1692 328.553 96.7879 329.402 97.472C329.784 97.293 330.216 97.1773 330.704 97.1403L330.827 97.1328L333.637 96.9902C334.814 96.4685 335.988 95.9213 337.164 95.3881C337.871 94.8038 338.66 94.3164 339.521 93.9543C340.495 93.5467 341.493 93.3158 342.493 93.2387C343.305 92.9737 344.123 92.74 344.955 92.5575C346.91 92.1299 348.956 91.8905 350.985 91.9105C351.026 91.3851 351.047 90.8534 351.043 90.3156L351.039 90.0461C350.993 88.3215 352.369 86.9446 353.991 86.6995ZM352.022 224.683C351.743 224.744 351.461 224.793 351.178 224.826C351.264 225.037 351.349 225.248 351.432 225.459C351.66 225.587 351.891 225.71 352.122 225.824C352.053 225.436 352.013 225.046 352.022 224.683ZM337.381 220.332L337.192 220.68C337.161 220.738 337.131 220.794 337.101 220.85C337.503 220.818 337.908 220.827 338.307 220.873L338.305 220.83C338.254 220.812 338.203 220.796 338.154 220.773C337.879 220.641 337.623 220.493 337.381 220.332ZM345.294 204.41C347.815 204.557 349.951 204.944 352.244 206.047L352.441 206.143C354.467 207.149 357.818 209.008 357.535 211.673C357.456 212.431 356.905 213.23 356.039 213.17C353.666 213.007 352.31 210.613 350.703 209.12C349.081 207.615 347.089 206.066 345.126 205.032C344.849 204.886 344.958 204.425 345.26 204.41H345.294ZM333.862 169.293C333.257 169.313 333.46 169.901 333.77 169.41C333.796 169.37 333.827 169.33 333.862 169.293ZM366.469 130.091C360.749 130.242 354.99 133.621 350.705 137.037C346.976 140.009 343.757 143.543 340.906 147.353C340.172 149.251 339.542 151.188 339.01 153.139C338.66 154.427 338.441 155.73 338.147 157.03L338.056 157.429C337.825 157.859 337.654 158.323 337.529 158.802C338.049 159.324 338.723 159.697 339.465 159.874C339.704 159.931 339.902 160.054 340.059 160.218C340.657 159.221 341.179 158.168 341.482 157.052L341.494 157.001C342.642 155.12 343.889 153.297 345.225 151.537C348.912 146.677 352.972 142.247 357.854 138.561C361.556 135.767 365.693 133.578 370.092 132.155C369.016 131.286 367.793 130.599 366.469 130.091Z" fill="black"/>
<path fill-rule="evenodd" clip-rule="evenodd" d="M411.078 236.012C409.163 235.229 407.454 233.925 406.204 232.259C405.77 231.681 405.658 231.07 405.748 230.51C405.851 229.881 406.223 229.311 406.73 228.929C407.238 228.545 407.875 228.356 408.49 228.453C409.026 228.537 409.557 228.829 409.979 229.436L410.067 229.558C410.81 230.564 411.777 231.388 412.88 231.919C413.943 232.432 415.133 232.672 416.363 232.533C418.707 232.267 420.321 231 422.038 229.279C422.252 229.061 422.465 228.836 422.678 228.61C422.813 228.402 423.001 228.27 423.209 228.2C423.44 228.123 423.701 228.127 423.942 228.21C424.172 228.291 424.379 228.444 424.517 228.647C424.648 228.842 424.724 229.08 424.7 229.354C424.542 231.139 423.61 232.731 422.285 233.982C420.814 235.37 418.863 236.331 417.028 236.667C415.006 237.039 412.945 236.774 411.078 236.012ZM417.983 208.486C420.134 209.794 423.413 212.845 421.098 216.089C418.372 218.95 414.45 215.67 412.517 214.187C410.725 213.038 408.71 215.993 410.373 217.335C424.342 227.682 430.012 208.829 419.071 206.947C417.865 206.741 417.419 208.081 417.983 208.486ZM392.95 196.45C393.187 193.498 397.681 192.828 398.129 195.749C398.528 198.366 398.057 200.77 396.879 203.126C395.754 205.377 392.924 204.326 392.71 202.278C392.422 199.53 392.801 198.287 392.95 196.45ZM427.161 195.144C427.788 194.323 428.693 193.762 429.776 194.079C433.163 195.069 432.165 199.878 430.975 202.22C430.329 203.492 428.24 203.814 427.296 202.694C425.757 200.868 425.021 197.223 426.976 195.425C427.03 195.332 427.09 195.238 427.161 195.144ZM396.831 183.533L397.367 183.439C399.022 183.153 401.079 182.878 402.249 184.209C402.871 184.914 403.084 186.226 402.249 186.902C400.782 188.091 399.158 187.63 397.399 187.731C395.949 187.814 394.556 188.054 393.16 188.453C390.096 189.329 387.599 190.928 384.982 192.684C384.64 192.915 384.289 192.475 384.452 192.154C385.963 189.194 388.89 186.763 391.822 185.281C393.388 184.49 395.1 183.834 396.831 183.533ZM424.074 182.207L424.484 182.291C428.94 183.222 434.729 185.084 436.838 189.462C436.919 190.081 436.834 190.214 436.766 190.3L436.743 190.329C436.685 190.403 436.64 190.505 436.372 190.59C436.298 190.572 436.222 190.553 436.147 190.533C435.178 190.28 434.413 189.93 433.673 189.568L432.869 189.172C431.937 188.715 430.997 188.274 430 187.949C427.875 187.255 425.687 186.767 423.467 186.506C422.985 186.449 422.521 186.287 422.156 186.008C421.809 185.744 421.543 185.378 421.422 184.891C421.266 184.261 421.311 183.784 421.649 183.216C421.902 182.79 422.266 182.494 422.683 182.324C423.108 182.151 423.592 182.11 424.074 182.207Z" fill="black"/>
<path fill-rule="evenodd" clip-rule="evenodd" d="M451.07 186.783C450.836 186.744 450.601 186.707 450.366 186.672C450.183 186.568 449.969 186.488 449.718 186.44C449.147 186.295 448.579 186.197 448.013 186.144C439.882 184.314 421.074 186.913 420.298 193.854C417.709 194.718 415.468 193.944 412.467 194.021C410.184 184.47 370.695 185.818 368.796 191.576C368.788 191.574 368.781 191.573 368.773 191.57C366.949 191.005 364.259 191.142 362.169 191.052C357.71 190.959 353.245 191.356 348.882 192.297C340.711 193.596 329.559 195.117 335.242 205.324L335.245 205.33L335.246 205.329C336.226 206.333 337.888 205.524 337.95 204.165C336.039 199.329 340.354 198.749 343.674 197.359C351.936 194.39 360.347 193.978 368.892 194.897C369.535 195.654 370.51 196.314 371.541 196.659C377.254 197.608 374.243 201.847 377.854 202.464C377.19 217.242 395.126 225.309 405.517 215.594C409.667 211.537 410.656 205.524 411.618 200.106C412.126 199.991 412.45 199.714 412.639 199.345C413.862 198.123 414.631 196.995 417.049 196.659C419.469 196.324 421.332 196.997 421.582 197.203C421.646 197.331 421.715 197.46 421.794 197.588C421.905 197.779 422.054 197.932 422.226 198.052C419.837 212.768 431.257 222.075 442.786 214.442C447.796 209.728 448.853 202.511 449.064 196.069C449.742 195.659 450.172 194.865 449.936 193.866C449.612 192.489 450.373 191.297 451.583 190.698C453.154 189.921 452.876 187.082 451.07 186.783ZM401.533 193.764C400.102 193.449 399.491 195.657 400.926 195.972C401.943 196.196 402.804 196.709 403.386 197.578L403.447 197.672C404.229 198.915 406.204 197.768 405.417 196.516C404.533 195.108 403.157 194.122 401.533 193.764ZM443.445 192.396C442.94 192.04 442.177 192.304 441.884 192.806C441.562 193.36 441.773 193.975 442.245 194.337L442.294 194.373C442.727 194.678 443.149 195.226 443.202 195.787L443.207 195.857C443.264 197.326 445.546 197.333 445.488 195.857C445.433 194.413 444.596 193.207 443.445 192.396Z" fill="black"/>
<defs>
<clipPath id="clip0_89_675">
<rect width="759" height="452" fill="white" transform="translate(0 -4)"/>
</clipPath>
</defs>
</svg>
